<svg id="logo" xmlns="http://www.w3.org/2000/svg" viewBox="0 0 208 43"><defs><style>.cls-1{fill:#fafafa;}.cls-2{fill:#00b8d4;}</style></defs><path class="cls-1" d="M90.2,33.5V9.5h19a5.36,5.36,0,0,1,5.38,5.38V33.5h-4.47v-18a1.74,1.74,0,0,0-.31-1.22,1.72,1.72,0,0,0-1.22-.31H96.2a1.74,1.74,0,0,0-1.22.31,1.74,1.74,0,0,0-.31,1.22v18Z"/><path class="cls-1" d="M57.88,9.5H43.32a5.36,5.36,0,0,0-5.38,5.38V33.5h4.47v-18a1.74,1.74,0,0,1,.31-1.22A1.74,1.74,0,0,1,43.94,14H55.29Z"/><polygon class="cls-1" points="15.37 33.5 28.2 15.46 28.2 33.5 32.71 33.5 32.71 9.5 27.41 9.5 9.4 33.5 15.37 33.5"/><path class="cls-1" d="M62.08,31.93a5.15,5.15,0,0,0,3.8,1.57h19L82.33,29H66.5a1.76,1.76,0,0,1-1.22-.31A1.79,1.79,0,0,1,65,27.5V23.73h20V14.88A5.36,5.36,0,0,0,79.54,9.5H65.88a5.15,5.15,0,0,0-3.8,1.57,5.19,5.19,0,0,0-1.58,3.81V28.12A5.19,5.19,0,0,0,62.08,31.93ZM65,15.5a1.79,1.79,0,0,1,.31-1.22A1.76,1.76,0,0,1,66.5,14H78.92a1.68,1.68,0,0,1,1.2.31,1.87,1.87,0,0,1,.29,1.22v4.06H65Z"/><polygon class="cls-1" points="192.63 9.5 179.8 27.54 179.8 9.5 175.29 9.5 175.29 33.5 180.59 33.5 198.6 9.5 192.63 9.5"/><rect class="cls-2" x="149.95" y="9.5" width="20.03" height="4.47"/><rect class="cls-2" x="149.95" y="19.23" width="20.03" height="4.18"/><rect class="cls-2" x="149.95" y="29.03" width="20.03" height="4.47"/><path class="cls-1" d="M142.71,11.07A5.19,5.19,0,0,0,138.9,9.5h-19L122.46,14h15.82a1.72,1.72,0,0,1,1.22.31,1.73,1.73,0,0,1,.32,1.22v3.77H119.87v8.85a5.36,5.36,0,0,0,5.38,5.38H138.9a5.36,5.36,0,0,0,5.38-5.38V14.88A5.19,5.19,0,0,0,142.71,11.07ZM139.82,27.5a1.73,1.73,0,0,1-.32,1.22,1.72,1.72,0,0,1-1.22.31H125.87a1.65,1.65,0,0,1-1.2-.31,1.87,1.87,0,0,1-.29-1.22V23.44h15.44Z"/></svg>