<svg xmlns="http://www.w3.org/2000/svg" width="112.751" height="44.065"><g fill="none" fill-rule="nonzero"><path fill="#ED7544" d="M21.473 42.105h-.72l-2.701-5.741h1.596l1.502 3.53 1.512-3.53h1.565l-2.754 5.741Zm4.308-3.499h2.983c-.083-.618-.532-1.184-1.502-1.184-.72 0-1.304.367-1.481 1.184m4.37 1.037h-4.38c.156.849.74 1.32 1.668 1.32.657 0 1.242-.251 1.628-.722l.897.764c-.511.713-1.335 1.163-2.629 1.163-1.888 0-3.004-1.163-3.004-2.965 0-1.802 1.2-2.965 2.931-2.965 1.94 0 2.9 1.237 2.9 2.986 0 .136-.01.42-.01.42m2.513-3.28v.807c.376-.556.96-.901 1.732-.933.125 0 .271 0 .386.042v1.582a2.433 2.433 0 0 0-.678-.105c-1.043 0-1.44.786-1.44 1.54v2.756h-1.429v-5.69h1.43Zm8.021 5.69h-5.413v-.703l3.212-3.803H35.45v-1.184h5.205v.691L37.38 40.87h3.306v1.184Zm2.013-3.448h2.984c-.084-.618-.532-1.184-1.503-1.184-.72 0-1.303.367-1.48 1.184m4.37 1.037H42.69c.156.849.74 1.32 1.669 1.32.657 0 1.241-.251 1.627-.722l.897.764c-.51.713-1.335 1.163-2.628 1.163-1.888 0-3.005-1.163-3.005-2.965 0-1.802 1.2-2.965 2.931-2.965 1.94 0 2.9 1.237 2.9 2.986 0 .136-.01.42-.01.42m6.728 2.399H52.18l-1.502-2.431-1.116 1.09v1.351h-1.43v-7.9h1.43v4.81l2.514-2.6h1.762l-2.117 2.243 2.076 3.437Zm1.835-3.437h2.984c-.084-.618-.532-1.184-1.502-1.184-.72 0-1.304.367-1.482 1.184m4.371 1.037h-4.381c.156.849.74 1.32 1.669 1.32.657 0 1.241-.251 1.627-.722l.897.764c-.51.713-1.335 1.163-2.628 1.163-1.888 0-3.005-1.163-3.005-2.965 0-1.802 1.2-2.965 2.932-2.965 1.94 0 2.9 1.237 2.9 2.986 0 .136-.01.42-.01.42m2.513-3.28v.807c.375-.556.96-.901 1.731-.933.125 0 .271 0 .386.042v1.582a2.433 2.433 0 0 0-.678-.105c-1.043 0-1.44.786-1.44 1.54v2.756H61.09v-5.69h1.429Zm3.035 5.689h1.44v-5.69h-1.44v5.69Zm-.146-7.386c0-.493.396-.88.886-.88.47 0 .866.387.866.88 0 .492-.396.89-.866.89a.888.888 0 0 1-.886-.89Zm4.339 1.697v.419c.532-.314 1.314-.545 1.971-.545 1.482 0 2.003.64 2.003 2.41v3.405h-1.418v-3.185c0-1.006-.334-1.341-1.106-1.341-.574 0-1.054.199-1.398.45v4.076H68.37v-5.69h1.377Zm9.408 3.73V38.06c-.365-.398-.907-.545-1.397-.545-.97 0-1.628.587-1.628 1.582 0 .891.605 1.488 1.596 1.488.512 0 1.054-.136 1.43-.492m-3.891 3.667v-1.289a5.67 5.67 0 0 0 2.076.388c1.168 0 1.752-.388 1.752-1.289v-.24c-.407.345-1.043.502-1.606.502-1.805 0-2.806-1.11-2.806-2.735 0-1.718 1.043-2.86 2.764-2.86.594 0 1.2.136 1.69.513v-.387h1.408v4.641c0 1.855-.72 3.06-2.91 3.06-1.085 0-1.836-.136-2.368-.304m7.708-5.155h2.983c-.083-.618-.532-1.184-1.502-1.184-.72 0-1.304.367-1.481 1.184m4.37 1.037h-4.38c.156.849.74 1.32 1.668 1.32.658 0 1.242-.251 1.628-.722l.897.764c-.511.713-1.335 1.163-2.629 1.163-1.888 0-3.004-1.163-3.004-2.965 0-1.802 1.2-2.965 2.931-2.965 1.94 0 2.9 1.237 2.9 2.986 0 .136-.01.42-.01.42m2.461-3.28v.419c.532-.314 1.314-.545 1.972-.545 1.48 0 2.002.64 2.002 2.41v3.405H92.36v-3.185c0-1.006-.334-1.341-1.106-1.341-.574 0-1.054.199-1.398.45v4.076h-1.429v-5.69h1.377Z"/><path fill="#2799D6" d="M34.604 5.851c1.558 0 3.03.373 4.332 1.033a6 6 0 0 0 2.131.39 6.001 6.001 0 0 0 3.483-1.109.319.319 0 0 1 .386.061l.426.45a.323.323 0 0 1 .004.44c-.644.705-1.273 1.836-1.666 2.614l-.005-.001-7.825 16.314a.325.325 0 0 1-.293.185h-2.124a.325.325 0 0 1-.294-.188L23.954 6.48a.327.327 0 0 1 .295-.467h4.89c.13 0 .248.078.3.198l5.203 12.56 3.434-8.23a6.092 6.092 0 0 0-3.394-1.028c-.769 0-1.504.143-2.182.402l-1.405-3.398a9.55 9.55 0 0 1 3.509-.666ZM14.664 0c.126 0 .24.073.294.187l6.951 14.758 1.626 3.451 3.382 7.18a.327.327 0 0 1-.294.467h-4.858a.325.325 0 0 1-.297-.193l-1.984-4.451H7.297l-1.855 4.446a.325.325 0 0 1-.299.198H.326a.327.327 0 0 1-.295-.466L11.954.187A.325.325 0 0 1 12.25 0h2.415Zm-1.226 6.682L9.165 16.924h8.522l-.05-.125-4.2-10.117Zm37.7 7.225c.624-2.877 2.68-4.169 5.215-4.169 3.415 0 4.994 1.992 5.288 4.169H51.137Zm5.215-8.337c-6.097 0-10.32 4.095-10.32 10.44 0 6.344 3.93 10.44 10.577 10.44 4.402 0 7.26-1.484 9.071-3.849a.327.327 0 0 0-.05-.446L62.95 19.87a.324.324 0 0 0-.453.036c-1.356 1.503-3.322 2.302-5.52 2.302-3.269 0-5.325-1.66-5.876-4.648h15.11c.176 0 .32-.14.325-.316.011-.333.026-.853.026-1.16 0-6.16-3.379-10.513-10.21-10.513Zm29.56 13.995a.321.321 0 0 0-.466.032c-1.008 1.233-2.67 2.253-4.926 2.277-3.25.036-5.92-2.667-5.922-5.932-.003-3.471 2.275-5.76 5.876-5.76 2.064 0 3.74.937 4.79 2.268.116.147.33.164.469.04l3.001-2.698a.327.327 0 0 0 .044-.442c-1.754-2.262-4.726-3.743-8.488-3.743-6.72 0-10.723 4.28-10.723 10.403 0 6.344 3.93 10.44 10.723 10.44 3.87 0 6.814-1.484 8.598-3.782a.327.327 0 0 0-.042-.44l-2.934-2.663Zm15.857 2.384c-3.526 0-5.876-2.361-5.876-5.94 0-3.54 2.35-5.902 5.876-5.902 3.526 0 5.876 2.361 5.876 5.903 0 3.578-2.35 5.939-5.876 5.939m0-16.379c-6.72 0-10.98 4.095-10.98 10.44 0 6.381 4.26 10.476 10.98 10.476 6.72 0 10.981-4.095 10.981-10.476 0-6.345-4.26-10.44-10.98-10.44"/></g></svg>