<?xml version="1.0" encoding="UTF-8"?>
<svg width="160px" height="44px" viewBox="0 0 160 44" version="1.1" xmlns="http://www.w3.org/2000/svg" xmlns:xlink="http://www.w3.org/1999/xlink">
    <!-- Generator: Sketch 46.2 (44496) - http://www.bohemiancoding.com/sketch -->
    <title>logo white</title>
    <desc>Created with Sketch.</desc>
    <defs></defs>
    <g id="itunes/playmarket/logo" stroke="none" stroke-width="1" fill="none" fill-rule="evenodd">
        <g id="logo-vector" transform="translate(-140.000000, -204.000000)" fill="#FFFFFF">
            <g id="logo-white" transform="translate(140.000000, 204.000000)">
                <path d="M15.0420763,33.6908738 C15.0138518,33.2424017 14.6608286,32.8807724 14.2109738,32.8410235 C13.8757537,32.8112117 13.5361915,32.7792397 13.1918528,32.7455395 C11.769773,32.605554 10.6503465,31.4882622 10.5092241,30.0732852 C9.91347036,24.0949531 9.91433881,19.0818298 10.5126979,13.1000414 C10.6516492,11.706667 11.7589174,10.6014727 13.1592861,10.4632154 C16.2678873,10.156025 19.0043596,10.0186318 21.7100021,10.0186318 C24.4152104,10.0186318 27.1512485,10.156025 30.2589813,10.4627834 C31.65935,10.6010407 32.770092,11.7027785 32.9094775,13.0965849 C32.9555051,13.560611 32.9984932,14.0185883 33.0375732,14.4713809 C33.1791299,16.1175069 34.5603927,17.3752163 36.2204266,17.3752163 L38.6924572,17.3752163 C39.9035047,17.3752163 41.0581032,16.8671207 41.8740079,15.9762252 C42.6894784,15.0857618 43.0946083,13.8932926 42.9812762,12.6934785 C42.8761942,11.5800752 42.7520065,10.4398845 42.6091472,9.26296924 C42.0711451,4.83355101 38.5530717,1.34298625 34.1014192,0.807671264 C25.133415,-0.269871565 18.2726942,-0.269007457 9.3094664,0.808967426 C4.85781389,1.34471446 1.34929339,4.84478441 0.811725516,9.27420265 C-0.271226234,18.1974152 -0.270357789,25.0238693 0.813028185,33.9423293 C1.35103028,38.3721796 4.86866947,41.8627443 9.32075619,42.3976272 C18.2887604,43.4756021 25.1494812,43.474306 34.112709,42.3963311 C38.5643615,41.8610161 42.072882,38.3609462 42.6104499,33.9310959 C42.7528749,32.7585011 42.8761942,31.6217669 42.9808419,30.51182 C43.0941741,29.3111418 42.6933864,28.1186726 41.8770475,27.2277771 C41.0607086,26.3364496 39.9043731,25.8300822 38.6924572,25.8300822 L36.2204266,25.8300822 C34.5634323,25.8300822 33.1791299,27.091248 33.0375732,28.7339176 C32.9984932,29.1871423 32.9555051,29.6451196 32.9094775,30.1091456 C32.7696577,31.5055444 31.6619553,32.6042578 30.2585471,32.7425151 C28.4886548,32.917497 26.8407791,33.0358798 25.2497867,33.1063047 C24.6722703,33.1317959 24.1238469,33.3469588 23.6835449,33.7189573 C20.8419907,36.1207458 18.1298349,37.9034009 16.6261212,38.831453 C16.3712324,38.9887207 16.0520786,39.0012503 15.7850315,38.8647212 C15.5184187,38.7277601 15.3429927,38.4616147 15.3243211,38.1634974 L15.0420763,33.6908738 Z" id="logo"></path>
                <path d="M56.5278594,15.6831552 C53.2174824,19.5022358 53.2174824,25.1691145 56.5278594,28.988195 C58.2020318,30.7068755 60.5289454,31.6338883 62.9281368,31.5379844 C67.1564864,31.5379844 70.3421869,29.1982746 71.1785751,24.9029711 L66.7367454,24.9029711 C66.2275266,26.4417827 64.7557987,27.4548821 63.1343978,27.382734 C60.5808871,27.382734 58.7276324,25.252074 58.7276324,22.3191983 C58.674875,20.988757 59.1101554,19.6848187 59.9517912,18.652074 C60.6922406,17.7105401 61.8304409,17.168169 63.0292047,17.1856361 C64.6816688,17.0994368 66.1868351,18.130119 66.701681,19.7004122 L71.1084463,19.7004122 C70.4484113,15.3690657 67.2658047,13.0643692 62.9291681,13.0643692 C60.5191639,12.9905755 58.1923109,13.9426484 56.5278594,15.6831552 Z M74.7881418,5.66112373 L74.7881418,31.1548981 L79.3001002,31.1548981 L79.3001002,21.7950292 C79.3001002,19.0011768 80.5943877,17.4647124 82.4476424,17.4647124 C84.1266066,17.4647124 84.9650573,18.5120209 84.9650573,20.6426809 L84.9650573,31.1538683 L89.5471445,31.1538683 L89.5471445,19.6643692 C89.5471445,15.5781155 87.5536323,13.0643692 83.8110273,13.0643692 C82.0168299,12.9587411 80.3005489,13.8087759 79.2990689,15.2990392 L79.2990689,5.66009392 L74.7881418,5.66112373 Z M93.6042975,19.2802531 L98.0110628,19.2802531 C98.0258942,18.6083433 98.3215353,17.9732646 98.8263937,17.5288072 C99.3312521,17.0843498 99.9992898,16.8710438 100.668735,16.9405433 C102.312635,16.9405433 103.152117,17.8488285 103.152117,19.6293559 L103.152117,20.2925483 L98.5710613,21.130807 C95.1089712,21.6899894 93.0803947,23.1904107 93.0803947,26.4394355 C93.0803947,29.5473774 95.2461347,31.5379844 98.4658682,31.5379844 C100.4934,31.6654182 102.432047,30.6906174 103.536794,28.988195 L103.816277,31.1507789 L107.698109,31.1507789 L107.698109,19.5253459 C107.695015,15.2990392 105.002278,13.0643692 100.665641,13.0643692 C96.5765179,13.0643692 93.8487167,15.6141585 93.6042975,19.2802531 Z M103.152117,23.8556627 C103.173522,24.6799153 102.954991,25.4926672 102.523021,26.1953724 C101.954204,27.2180916 100.861033,27.8379901 99.690027,27.8018633 C98.3957395,27.8018633 97.6274174,27.1386709 97.6274174,26.0512002 C97.6274174,25.0385617 98.2919215,24.3750261 99.6209296,24.0605932 L103.153148,23.3273743 L103.152117,23.8556627 Z M121.15973,13.0643692 C119.168592,12.9266993 117.285815,13.9832572 116.368288,15.7531818 L116.023832,13.4484852 L112.142001,13.4484852 L112.142001,31.1538683 L116.653959,31.1538683 L116.653959,21.7950292 C116.653959,19.0011768 117.948247,17.4647124 119.801501,17.4647124 C121.480466,17.4647124 122.319948,18.5120209 122.319948,20.6426809 L122.319948,31.1538683 L126.902035,31.1538683 L126.902035,19.6643692 C126.895847,15.5791453 124.902335,13.0643692 121.15973,13.0643692 Z M132.490676,9.15112216 L132.455611,13.4464256 L129.552488,13.4464256 L129.552488,17.565633 L132.455611,17.565633 L132.385482,25.8040477 C132.350418,29.7172947 134.273801,31.3917525 138.225761,31.3917525 C139.196549,31.4244259 140.165965,31.2945929 141.09382,31.0076364 L141.09382,27.0264225 C140.490319,27.1979854 139.864877,27.2802152 139.237471,27.2704856 C137.523443,27.2704856 136.929411,26.5722799 136.929411,24.7206962 L136.99954,17.5615138 L141.091757,17.5615138 L141.091757,13.4423064 L137.034604,13.4423064 L137.069669,9.14700296 L132.490676,9.15112216 Z M155.199846,13 L151.82557,23.7692779 L151.484927,25.2927218 L151.144284,23.7692779 L147.771013,13 L143,13 L149.129566,30.348064 L146.505911,38 L151.1061,38 L160,13 L155.199846,13 Z" id="Combined-Shape"></path>
            </g>
        </g>
    </g>
</svg>