<?xml version="1.0" encoding="utf-8"?>
<!-- Generator: Adobe Illustrator 24.0.3, SVG Export Plug-In . SVG Version: 6.00 Build 0)  -->
<svg version="1.1" id="Layer_1" xmlns="http://www.w3.org/2000/svg" xmlns:xlink="http://www.w3.org/1999/xlink" x="0px" y="0px"
	 viewBox="0 0 95 15" style="enable-background:new 0 0 95 15;" xml:space="preserve">
<style type="text/css">
	.st0{fill:#FED304;}
</style>
<path class="st0" d="M7.6,0.5L5.3,5.3L0,6l3.8,3.7L2.9,15l4.7-2.5l4.7,2.5l-0.9-5.3L15.2,6L10,5.3L7.6,0.5z M47.6,0.5l-2.3,4.8L40,6
	l3.8,3.7L42.9,15l4.7-2.5l4.7,2.5l-0.9-5.3L55.2,6L50,5.3L47.6,0.5z M27.6,0.5l-2.3,4.8L20,6l3.8,3.7L22.9,15l4.7-2.5l4.7,2.5
	l-0.9-5.3L35.2,6L30,5.3C30,5.3,27.6,0.5,27.6,0.5z M67.6,0.5l-2.3,4.8L60,6l3.8,3.7L62.9,15l4.7-2.5l4.7,2.5l-0.9-5.3L75.2,6
	L70,5.3L67.6,0.5z"/>
<polygon class="st0" points="87.4,0.5 85.1,5.3 79.8,6 83.6,9.7 82.7,15 87.4,12.5 92.1,15 91.2,9.7 95,6 89.8,5.3 "/>
</svg>
