<svg viewBox="0 0 145.54 50" xmlns="http://www.w3.org/2000/svg" id="Layer_2">
  <defs>
    <style>
      .cls-1 {
        fill: #fff;
        stroke-width: 0px;
      }
    </style>
  </defs>
  <g id="Navigation">
    <g>
      <g>
        <polygon points="14.05 19.3 14.05 14.01 0 14.01 0 19.3 3.23 19.3 3.23 30.63 0 30.63 0 35.92 14.05 35.92 14.05 30.63 10.84 30.63 10.84 19.3 14.05 19.3" class="cls-1"></polygon>
        <path d="M29.56,22.41c-.86-.25-5.34-1.51-6.11-1.76-.77-.25-1.39-.62-1.39-1.05,0-.46.72-.94,2.14-.94,4.53,0,6.71,2.74,6.71,2.74,0,0,.26.32.33.43h4.37v-7.49h-4.69v1.37c-.35-.25-3-1.94-7.11-1.94-5.41,0-8.43,2.76-8.43,6.89s3.81,5.84,4.85,6.28c1.07.43,5.2,1.58,6.97,2.12,1.76.55,2.41.94,2.41,1.21s-.77,1-2.97,1c-3.85,0-5.83-2.24-6.18-2.67h0c-.12-.14-.23-.32-.28-.39s-.16-.25-.26-.37h-4.37v8.01h4.9v-1.67c.58.37,3.48,2.17,6.99,2.17,3.92,0,8.89-1.67,8.89-6.89s-5.92-6.83-6.78-7.08Z" class="cls-1"></path>
        <path d="M48.81,13.71c-6.52,0-11.87,3.22-11.87,11.39s5.8,11.26,11.91,11.26,11.84-3.04,11.84-11.16-5.78-11.48-11.89-11.48ZM48.85,30.9c-2.23,0-3.67-.5-3.67-5.82s1.07-5.89,3.74-5.89c1.63,0,3.6.11,3.6,5.71s-1.44,6-3.67,6Z" class="cls-1"></path>
        <g>
          <path d="M9.38,11.61c1.46-2.12,3.27-4.02,5.34-5.59.84.62,1.72,1.16,2.67,1.64-1.56,1.71-2.97,3.61-3.2,3.93h.93c.56-.75,1.74-2.26,2.95-3.58,1.35.64,2.76,1.19,4.27,1.58-.39.82-.7,1.55-.88,1.99h.81c.19-.46.46-1.1.81-1.8,1.9.46,3.9.71,5.92.75v1.05h.77v-1.05c2.02-.02,3.99-.25,5.9-.66.33.66.58,1.28.77,1.71h.81c-.16-.43-.44-1.12-.84-1.89,1.51-.39,2.97-.91,4.34-1.55,1.18,1.3,2.3,2.72,2.83,3.45h.93c-.23-.32-1.56-2.1-3.06-3.79,1.04-.53,2.02-1.12,2.95-1.8,2.07,1.58,3.88,3.45,5.34,5.59h.91C46.16,4.76,38.38.26,29.53.26S12.91,4.76,8.43,11.56l.95.05h0ZM22.66,8.92c-1.42-.37-2.79-.87-4.06-1.48.19-.18.35-.34.51-.53,1.76-1.67,4.64-3.49,5.27-3.88.51.27,1.07.5,1.67.71-.46.59-1.37,1.8-2.37,3.36-.35.59-.7,1.23-1.02,1.83ZM29,9.81c-1.93-.05-3.78-.27-5.6-.68.28-.55.6-1.1.93-1.62,1.14-1.78,2.16-3.11,2.51-3.54.67.16,1.39.25,2.14.3l.02,5.55h0ZM29.77,9.81v-5.55c.72-.02,1.44-.09,2.14-.23.39.5,1.37,1.78,2.46,3.45.35.55.67,1.14.98,1.71-1.81.39-3.67.59-5.57.62ZM36.08,9.01c-.33-.64-.7-1.3-1.09-1.92-.93-1.46-1.81-2.63-2.3-3.24.63-.18,1.23-.41,1.79-.68.88.57,3.46,2.24,5.08,3.77.21.21.44.41.65.64-1.3.62-2.69,1.1-4.13,1.44ZM43.77,5.56c-.88.64-1.83,1.19-2.83,1.69-.28-.3-.56-.57-.84-.84-1.51-1.44-3.76-2.95-4.88-3.65.37-.23.72-.5,1.02-.8,2.74.78,5.27,2.01,7.52,3.61ZM29.56,1.04c2,0,3.95.25,5.8.68-1.42,1.12-3.53,1.78-5.8,1.78s-4.39-.66-5.8-1.78c1.86-.46,3.81-.68,5.8-.68ZM22.87,1.95c.26.23.51.46.81.66-1,.64-3.46,2.26-5.08,3.79-.23.23-.46.46-.7.71-.91-.46-1.74-.98-2.55-1.55,2.25-1.6,4.78-2.83,7.52-3.61Z" class="cls-1"></path>
          <path d="M49.76,38.39c-1.44,2.08-3.2,3.93-5.2,5.48-.95-.71-2-1.35-3.06-1.89,1.3-1.46,2.48-3.01,2.93-3.58h-.95c-.58.75-1.6,2.05-2.69,3.24-1.37-.64-2.83-1.16-4.34-1.55.33-.68.58-1.28.74-1.71h-.81c-.16.41-.39.94-.67,1.53-1.9-.43-3.88-.66-5.9-.66v-.84h-.77v.87c-2.04.05-4.04.3-5.92.75-.3-.62-.53-1.16-.72-1.6h-.81c.19.46.44,1.07.79,1.8-1.49.41-2.93.94-4.27,1.58-1.14-1.23-2.21-2.58-2.81-3.38h-.95c.44.62,1.7,2.24,3.06,3.74-.98.53-1.93,1.1-2.79,1.76-2.02-1.55-3.76-3.4-5.2-5.48h-.91c4.48,6.8,12.26,11.3,21.11,11.3s16.62-4.5,21.11-11.3l-.95-.05h0ZM36.08,40.79c1.44.37,2.83.84,4.13,1.44-.21.23-.44.43-.65.64-1.63,1.53-4.18,3.2-5.08,3.77-.56-.27-1.14-.5-1.79-.68.49-.62,1.35-1.78,2.28-3.24.42-.64.79-1.3,1.11-1.92ZM29.77,39.99c1.9.02,3.76.23,5.55.62-.3.57-.63,1.14-.98,1.71-1.07,1.67-2.07,2.95-2.46,3.45-.67-.14-1.39-.21-2.14-.23l.02-5.55h0ZM29,39.99v5.55c-.74.02-1.46.14-2.14.3-.35-.43-1.37-1.76-2.51-3.54-.35-.53-.65-1.07-.93-1.62,1.79-.41,3.67-.64,5.57-.68ZM22.66,40.88c.3.59.65,1.23,1.04,1.83,1,1.53,1.9,2.74,2.37,3.36-.6.18-1.16.41-1.67.71-.63-.39-3.53-2.21-5.27-3.88-.16-.16-.35-.34-.51-.53,1.28-.62,2.62-1.12,4.04-1.48ZM15.21,44.35c.84-.62,1.74-1.16,2.69-1.64.23.25.46.48.7.71,1.63,1.53,4.09,3.15,5.08,3.79-.35.25-.67.53-.98.8-2.72-.8-5.25-2.03-7.5-3.65ZM29.56,48.96c-2.07,0-4.06-.25-5.99-.73,1.39-1.21,3.62-1.94,5.99-1.94s4.6.73,5.99,1.94c-1.93.48-3.92.73-5.99.73ZM36.41,48c-.35-.34-.74-.66-1.18-.94,1.11-.71,3.37-2.21,4.88-3.65.28-.27.56-.55.84-.84,1.04.53,2.04,1.12,2.97,1.78-2.23,1.62-4.78,2.85-7.5,3.65Z" class="cls-1"></path>
        </g>
      </g>
      <rect height="50" width="1.48" x="67.22" class="cls-1"></rect>
      <g>
        <path d="M81.61,21.61v-9.99h2.12v9.99h-2.12Z" class="cls-1"></path>
        <path d="M92.14,18.83c0,.9-.32,1.61-.97,2.13s-1.55.78-2.71.78c-1.07,0-2.01-.2-2.83-.6v-1.97c.67.3,1.25.51,1.71.64s.89.18,1.28.18c.46,0,.82-.09,1.07-.27s.37-.44.37-.79c0-.2-.05-.37-.16-.52-.11-.15-.27-.3-.48-.44s-.64-.37-1.3-.68c-.61-.29-1.07-.56-1.37-.83s-.55-.57-.73-.92-.27-.76-.27-1.23c0-.88.3-1.58.9-2.08s1.43-.76,2.48-.76c.52,0,1.02.06,1.49.18s.96.3,1.48.52l-.68,1.65c-.53-.22-.97-.37-1.32-.46s-.69-.13-1.03-.13c-.4,0-.71.09-.92.28s-.32.43-.32.73c0,.19.04.35.13.49.09.14.22.27.41.4.19.13.64.36,1.34.7.93.45,1.57.89,1.92,1.34.35.45.52,1,.52,1.65Z" class="cls-1"></path>
        <path d="M103.03,16.6c0,1.65-.41,2.93-1.23,3.81s-2,1.33-3.53,1.33-2.71-.44-3.53-1.33-1.23-2.17-1.23-3.83.41-2.93,1.23-3.81c.82-.88,2-1.32,3.54-1.32s2.71.44,3.52,1.33,1.22,2.16,1.22,3.81ZM95.73,16.6c0,1.12.21,1.96.64,2.52s1.06.85,1.9.85c1.69,0,2.54-1.12,2.54-3.37s-.84-3.38-2.52-3.38c-.84,0-1.48.28-1.91.85-.43.57-.64,1.41-.64,2.53Z" class="cls-1"></path>
        <path d="M115.02,21.61h-6.99v-1.47l2.51-2.54c.74-.76,1.23-1.29,1.46-1.58.23-.29.39-.57.49-.82s.15-.51.15-.78c0-.4-.11-.7-.33-.9s-.52-.29-.89-.29c-.39,0-.76.09-1.13.27s-.75.43-1.14.76l-1.15-1.36c.49-.42.9-.72,1.22-.89s.68-.31,1.06-.4c.38-.09.81-.14,1.29-.14.62,0,1.18.11,1.65.34s.85.55,1.11.96.4.88.4,1.41c0,.46-.08.89-.24,1.3-.16.4-.41.82-.75,1.24s-.94,1.03-1.79,1.81l-1.29,1.21v.1h4.35v1.78Z" class="cls-1"></path>
        <path d="M117.02,21.61l3.75-8.2h-4.93v-1.78h7.17v1.33l-3.78,8.65h-2.21Z" class="cls-1"></path>
        <path d="M130.95,16.61c0,1.75-.29,3.04-.86,3.88s-1.45,1.26-2.64,1.26-2.02-.43-2.61-1.3-.88-2.14-.88-3.83.28-3.06.85-3.9c.57-.84,1.45-1.25,2.63-1.25s2.02.44,2.61,1.31.89,2.16.89,3.84ZM126.06,16.61c0,1.23.11,2.1.32,2.64.21.53.57.8,1.07.8s.85-.27,1.07-.81.33-1.41.33-2.62-.11-2.11-.33-2.64c-.22-.54-.58-.8-1.06-.8s-.85.27-1.07.8c-.21.54-.32,1.42-.32,2.64Z" class="cls-1"></path>
        <path d="M138.94,16.61c0,1.75-.29,3.04-.86,3.88s-1.45,1.26-2.64,1.26-2.02-.43-2.61-1.3-.88-2.14-.88-3.83.28-3.06.85-3.9c.57-.84,1.45-1.25,2.63-1.25s2.02.44,2.61,1.31.89,2.16.89,3.84ZM134.06,16.61c0,1.23.11,2.1.32,2.64.21.53.57.8,1.07.8s.85-.27,1.07-.81.33-1.41.33-2.62-.11-2.11-.33-2.64c-.22-.54-.58-.8-1.06-.8s-.85.27-1.07.8c-.21.54-.32,1.42-.32,2.64Z" class="cls-1"></path>
        <path d="M145.23,21.61h-2.11v-5.78l.02-.95.03-1.04c-.35.35-.59.58-.73.69l-1.15.92-1.02-1.27,3.22-2.56h1.74v9.99Z" class="cls-1"></path>
        <path d="M86.01,29.31c-1.1,0-1.97.37-2.6,1.1-.64.73-.95,1.73-.95,3s.31,2.32.92,3.03c.61.71,1.49,1.07,2.62,1.07.7,0,1.49-.12,2.39-.38v1.02c-.69.26-1.55.39-2.56.39-1.47,0-2.61-.45-3.41-1.34s-1.2-2.16-1.2-3.81c0-1.03.19-1.93.58-2.71s.94-1.37,1.67-1.79,1.58-.63,2.57-.63c1.05,0,1.96.19,2.75.57l-.49,1c-.76-.36-1.51-.53-2.27-.53Z" class="cls-1"></path>
        <path d="M96.13,38.41h-5.57v-9.99h5.57v1.03h-4.41v3.22h4.14v1.03h-4.14v3.68h4.41v1.04Z" class="cls-1"></path>
        <path d="M99.51,34.25v4.16h-1.16v-9.99h2.74c1.23,0,2.13.23,2.72.7s.88,1.18.88,2.12c0,1.32-.67,2.21-2.01,2.68l2.71,4.49h-1.37l-2.42-4.16h-2.08ZM99.51,33.25h1.59c.82,0,1.42-.16,1.8-.49.38-.33.57-.82.57-1.47s-.19-1.14-.58-1.43-1.02-.44-1.88-.44h-1.51v3.82Z" class="cls-1"></path>
        <path d="M110.07,38.41h-1.16v-8.96h-3.17v-1.03h7.49v1.03h-3.17v8.96Z" class="cls-1"></path>
        <path d="M114.74,38.41v-9.99h1.16v9.99h-1.16Z" class="cls-1"></path>
        <path d="M119.81,38.41h-1.16v-9.99h5.57v1.03h-4.41v3.66h4.14v1.03h-4.14v4.27Z" class="cls-1"></path>
        <path d="M125.87,38.41v-9.99h1.16v9.99h-1.16Z" class="cls-1"></path>
        <path d="M135.35,38.41h-5.57v-9.99h5.57v1.03h-4.41v3.22h4.14v1.03h-4.14v3.68h4.41v1.04Z" class="cls-1"></path>
        <path d="M145.54,33.31c0,1.65-.45,2.91-1.34,3.78-.9.87-2.18,1.31-3.87,1.31h-2.77v-9.99h3.06c1.55,0,2.76.43,3.62,1.29s1.29,2.06,1.29,3.61ZM144.31,33.36c0-1.3-.33-2.29-.98-2.95s-1.63-.99-2.92-.99h-1.69v7.98h1.42c1.39,0,2.43-.34,3.12-1.02.7-.68,1.05-1.69,1.05-3.02Z" class="cls-1"></path>
      </g>
    </g>
  </g>
</svg>