<svg viewBox="0 0 157.76 50" xmlns="http://www.w3.org/2000/svg" id="Layer_2">
  <defs>
    <style>
      .cls-1 {
        fill: #fff;
        stroke-width: 0px;
      }
    </style>
  </defs>
  <g id="Navigation">
    <g>
      <g>
        <path d="M25.62,0C11.47,0,0,11.19,0,25s11.47,25,25.62,25,25.63-11.19,25.63-25S39.78,0,25.62,0ZM25.62,44.61c-11.09,0-20.1-8.77-20.1-19.61S14.51,5.39,25.62,5.39s20.1,8.77,20.1,19.61c0,10.82-8.99,19.61-20.1,19.61Z" class="cls-1"></path>
        <g>
          <path d="M14.2,14.75l2.76,7.72h-1.1l-.8-2.28h-3.04l-.77,2.28h-1.01l2.67-7.72h1.29ZM13.53,15.64h0l-1.29,3.7h2.55l-1.26-3.7Z" class="cls-1"></path>
          <path d="M19.38,22.47h-1.01v-7.72h1.01v7.72Z" class="cls-1"></path>
          <path d="M20.99,18.72c0-2.6,1.43-4.11,3.67-4.11,1.66,0,2.83.8,2.95,2.58l-.94.09c-.16-1.21-.7-1.83-2.01-1.83-1.64,0-2.64,1.05-2.64,3.17s.91,3.11,2.5,3.11c1.26,0,1.87-.53,2.13-1.62l.91.18c-.28,1.71-1.71,2.28-3.09,2.28-2.5.02-3.49-1.55-3.49-3.86Z" class="cls-1"></path>
          <path d="M30.05,22.47h-1.01v-7.72h2.57c2.01,0,2.64,1.1,2.64,2.31,0,1.83-1.12,2.6-3.02,2.6h-1.19v2.81ZM31.17,18.81c1.15,0,2.06-.27,2.06-1.71,0-1.12-.63-1.53-1.9-1.53h-1.29v3.24h1.12Z" class="cls-1"></path>
          <path d="M38.29,14.75l2.76,7.72h-1.1l-.8-2.28h-3.04l-.77,2.28h-1.01l2.67-7.72h1.29ZM37.63,15.64h0l-1.29,3.7h2.55l-1.26-3.7Z" class="cls-1"></path>
          <path d="M16.12,29.43c0,.94.89,1.21,1.9,1.48,1.17.32,2.41.68,2.41,2.19,0,1.62-1.33,2.26-2.81,2.26-1.66,0-2.67-.64-2.88-2.24l.96-.14c.19.82.59,1.53,1.94,1.53.84,0,1.76-.27,1.76-1.3,0-.96-.89-1.21-1.85-1.48-1.17-.32-2.46-.64-2.46-2.24,0-1.32,1.15-2.12,2.67-2.12,1.38,0,2.43.53,2.6,2.17l-.94.11c-.12-.73-.42-1.46-1.66-1.46-1.19.05-1.64.55-1.64,1.23Z" class="cls-1"></path>
          <path d="M21.44,31.39c0-2.28,1.31-4,3.72-4s3.49,1.71,3.49,3.86c0,2.51-1.24,4.13-3.65,4.13s-3.56-1.67-3.56-4ZM27.61,31.35c0-2.03-.98-3.08-2.48-3.08s-2.64,1.07-2.64,3.13,1.03,3.13,2.55,3.13,2.57-.98,2.57-3.17Z" class="cls-1"></path>
          <path d="M29.72,31.51c0-2.6,1.43-4.11,3.67-4.11,1.66,0,2.83.8,2.95,2.58l-.94.09c-.16-1.21-.7-1.83-2.01-1.83-1.64,0-2.64,1.05-2.64,3.17s.91,3.11,2.5,3.11c1.26,0,1.87-.53,2.13-1.62l.91.18c-.28,1.71-1.71,2.28-3.09,2.28-2.48.02-3.49-1.53-3.49-3.86Z" class="cls-1"></path>
        </g>
      </g>
      <rect height=".91" width="30.31" y="24.54" x="9.95" class="cls-1"></rect>
      <rect height="50" width="1.49" y="0" x="64.15" class="cls-1"></rect>
      <g>
        <path d="M85.02,18.83c0,.9-.32,1.61-.97,2.13s-1.55.78-2.71.78c-1.07,0-2.01-.2-2.83-.6v-1.97c.67.3,1.25.51,1.71.64s.89.18,1.28.18c.46,0,.82-.09,1.07-.27s.37-.44.37-.79c0-.2-.05-.37-.16-.52-.11-.15-.27-.3-.48-.44s-.64-.37-1.3-.68c-.61-.29-1.07-.56-1.37-.83s-.55-.57-.73-.92-.27-.76-.27-1.23c0-.88.3-1.58.9-2.08s1.43-.76,2.48-.76c.52,0,1.02.06,1.49.18s.96.3,1.48.52l-.68,1.65c-.53-.22-.97-.37-1.32-.46s-.69-.13-1.03-.13c-.4,0-.71.09-.92.28s-.32.43-.32.73c0,.19.04.35.13.49.09.14.22.27.41.4.19.13.64.36,1.34.7.93.45,1.57.89,1.92,1.34.35.45.52,1,.52,1.65Z" class="cls-1"></path>
        <path d="M95.91,16.6c0,1.65-.41,2.93-1.23,3.81s-2,1.33-3.53,1.33-2.71-.44-3.53-1.33-1.23-2.17-1.23-3.83.41-2.93,1.23-3.81c.82-.88,2-1.32,3.54-1.32s2.71.44,3.52,1.33,1.22,2.16,1.22,3.81ZM88.61,16.6c0,1.12.21,1.96.64,2.52s1.06.85,1.9.85c1.69,0,2.54-1.12,2.54-3.37s-.84-3.38-2.52-3.38c-.84,0-1.48.28-1.91.85-.43.57-.64,1.41-.64,2.53Z" class="cls-1"></path>
        <path d="M102.22,13.23c-.8,0-1.42.3-1.85.9-.44.6-.66,1.43-.66,2.5,0,2.23.84,3.34,2.51,3.34.7,0,1.55-.18,2.55-.53v1.78c-.82.34-1.74.51-2.75.51-1.45,0-2.57-.44-3.34-1.32-.77-.88-1.16-2.15-1.16-3.8,0-1.04.19-1.95.57-2.73.38-.78.92-1.38,1.63-1.8.71-.42,1.54-.63,2.49-.63s1.95.23,2.93.7l-.68,1.72c-.37-.18-.75-.33-1.13-.46s-.75-.2-1.11-.2Z" class="cls-1"></path>
        <path d="M113.19,21.61h-6.99v-1.47l2.51-2.54c.74-.76,1.23-1.29,1.46-1.58.23-.29.39-.57.49-.82s.15-.51.15-.78c0-.4-.11-.7-.33-.9s-.52-.29-.89-.29c-.39,0-.76.09-1.13.27s-.75.43-1.14.76l-1.15-1.36c.49-.42.9-.72,1.22-.89s.68-.31,1.06-.4c.38-.09.81-.14,1.29-.14.62,0,1.18.11,1.65.34s.85.55,1.11.96.4.88.4,1.41c0,.46-.08.89-.24,1.3-.16.4-.41.82-.75,1.24s-.94,1.03-1.79,1.81l-1.29,1.21v.1h4.35v1.78Z" class="cls-1"></path>
        <path d="M122.38,21.61h-2.12v-8.23h-2.71v-1.76h7.55v1.76h-2.71v8.23Z" class="cls-1"></path>
        <path d="M129.74,15.73l2.08-4.12h2.28l-3.32,6.1v3.89h-2.11v-3.82l-3.32-6.17h2.3l2.07,4.12Z" class="cls-1"></path>
        <path d="M142.27,14.73c0,1.08-.34,1.9-1.01,2.47s-1.63.85-2.87.85h-.91v3.55h-2.12v-9.99h3.19c1.21,0,2.13.26,2.77.78.63.52.95,1.3.95,2.33ZM137.49,16.32h.7c.65,0,1.14-.13,1.46-.39.32-.26.49-.63.49-1.12s-.14-.86-.41-1.1-.7-.36-1.27-.36h-.96v2.97Z" class="cls-1"></path>
        <path d="M149.92,21.61h-5.76v-9.99h5.76v1.74h-3.64v2.19h3.38v1.74h-3.38v2.58h3.64v1.75Z" class="cls-1"></path>
        <path d="M155.64,21.61v-9.99h2.12v9.99h-2.12Z" class="cls-1"></path>
        <path d="M83.52,29.31c-1.1,0-1.97.37-2.6,1.1-.64.73-.95,1.73-.95,3s.31,2.32.92,3.03c.61.71,1.49,1.07,2.62,1.07.7,0,1.49-.12,2.39-.38v1.02c-.69.26-1.55.39-2.56.39-1.47,0-2.61-.45-3.41-1.34s-1.2-2.16-1.2-3.81c0-1.03.19-1.93.58-2.71s.94-1.37,1.67-1.79,1.58-.63,2.57-.63c1.05,0,1.96.19,2.75.57l-.49,1c-.76-.36-1.51-.53-2.27-.53Z" class="cls-1"></path>
        <path d="M93.64,38.41h-5.57v-9.99h5.57v1.03h-4.41v3.22h4.14v1.03h-4.14v3.68h4.41v1.04Z" class="cls-1"></path>
        <path d="M97.02,34.25v4.16h-1.16v-9.99h2.74c1.23,0,2.13.23,2.72.7s.88,1.18.88,2.12c0,1.32-.67,2.21-2.01,2.68l2.71,4.49h-1.37l-2.42-4.16h-2.08ZM97.02,33.25h1.59c.82,0,1.42-.16,1.8-.49.38-.33.57-.82.57-1.47s-.19-1.14-.58-1.43-1.02-.44-1.88-.44h-1.51v3.82Z" class="cls-1"></path>
        <path d="M107.59,38.41h-1.16v-8.96h-3.17v-1.03h7.49v1.03h-3.17v8.96Z" class="cls-1"></path>
        <path d="M112.26,38.41v-9.99h1.16v9.99h-1.16Z" class="cls-1"></path>
        <path d="M117.32,38.41h-1.16v-9.99h5.57v1.03h-4.41v3.66h4.14v1.03h-4.14v4.27Z" class="cls-1"></path>
        <path d="M123.39,38.41v-9.99h1.16v9.99h-1.16Z" class="cls-1"></path>
        <path d="M132.86,38.41h-5.57v-9.99h5.57v1.03h-4.41v3.22h4.14v1.03h-4.14v3.68h4.41v1.04Z" class="cls-1"></path>
        <path d="M143.05,33.31c0,1.65-.45,2.91-1.34,3.78-.9.87-2.18,1.31-3.87,1.31h-2.77v-9.99h3.06c1.55,0,2.76.43,3.62,1.29s1.29,2.06,1.29,3.61ZM141.82,33.36c0-1.3-.33-2.29-.98-2.95s-1.63-.99-2.92-.99h-1.69v7.98h1.42c1.39,0,2.43-.34,3.12-1.02.7-.68,1.05-1.69,1.05-3.02Z" class="cls-1"></path>
      </g>
    </g>
  </g>
</svg>