<svg xmlns="http://www.w3.org/2000/svg" width="120" height="120" viewBox="0 0 120 120">
  <g id="Thumbnail_square" transform="translate(-319 -62)">
    <rect id="Rectangle_1511" data-name="Rectangle 1511" width="120" height="120" transform="translate(319 62)" fill="#e4e4e4"/>
    <g id="Group_2711" data-name="Group 2711" transform="translate(-678 -1063.71)">
      <circle id="Ellipse_9" data-name="Ellipse 9" cx="31.5" cy="31.5" r="31.5" transform="translate(1024.971 1154.71)" fill="#f1f1f1"/>
      <path id="Path_1097" data-name="Path 1097" d="M277.541,31.35l.367-.108.367-.2.245.98c-.182,0-.245.122-.427.182l-.185-.5-.367-.361m-.735,1.042h-.553c.063-.49.245-.857.738-.857.427,0,.672.427.735.795l-.92.063m-.98-14.94h.06v.063m-.122.609L275.582,18c0-.122.06-.245.182-.245a.162.162,0,0,1,.185.182l-.048.137-.137.045m.063-.427-.245.122-.122-.3a.2.2,0,0,0,.182-.185h.063v.122l.122.245m-.612-.3-.06-.063.06-.122.122.122m-.245.553-.245-.122c0-.122.122-.185.245-.185.063,0,.122.063.122.185l-.122.122m.063-.8-.063.185.063.182a.423.423,0,0,0-.308.185v-.063l-.122-.3h.063l.245-.185h.122m-.49,15.063.23-.538a.577.577,0,0,1,.5-.26c.427,0,.487.675.487.92v.06l-1.222-.182M274.6,17.085l-.06-.06.06-.063.063.063m-.185-.308v.245l.063.245-.063-.06-.3.122.06-.122-.122-.185.23-.078m.093.684-.137.069-.185-.185.063-.122h.122c.122,0,.182.063.182.122l-.045.116m-.382-.851-.063-.06.063-.063.06.063m-.278-.122.033.182-.185.063a.377.377,0,0,0,0-.367l.185-.063h.122l-.155.185m-.212,15.857.122-.122.612.122m-.735-15.49.122-.063.122.185-.122.182a.2.2,0,0,1-.185-.182v-.063l.063-.06m0-.8-.063.122-.06-.122.06-.063m1.12,14.483,1.269.152a3.829,3.829,0,0,0,1.959-.427l.367.364a3.145,3.145,0,0,1-1.714.553c-.612,0-2.939-.245-3.124-.917l.063-.063,1.18.338M273.5,31.84l-.122-.06c0-.245.122-.8.49-.8s.49.367.49.675l-.06.367-.367-.063c.06-.182.182-.3.182-.49l-.284.209-.329.158m-.185.92.185-.185a36.672,36.672,0,0,0,4.471.49,1.977,1.977,0,0,0,2.2-1.837,1.3,1.3,0,0,0-.493-1.039,1.69,1.69,0,0,1,.983.245.692.692,0,0,0,.182-.49,1.367,1.367,0,0,0-.367-.857,2.124,2.124,0,0,1,1.165,1.837c0,1.837-1.962,2.449-3.369,2.449a23.534,23.534,0,0,1-3-.43l-.959-.114-1-.069m-.245-16.41h.122c.122,0,.185,0,.185.122a.165.165,0,0,1-.185.185l-.122-.063V16.35l-.06-.98.427.55-.06.308-.132.015m-.6,15.965.427-.55-.06.122.122.245m-.672-15.368.134.281.048.332c0,.122-.063.672-.182.672s-.122-.55-.122-.672l.015-.332.108-.281m-.015,4.943.015.382-.122.612c-.122,0-.122-.553-.122-.675,0-.06,0-.612.122-.612l.108.293m.015-8.68-.009.17-.054.075c-.122.063-.245-.8-.245-.98l.063-.245c.06-.03.122.185.167.421l.078.559m0,6.428.188.078.054.167a.289.289,0,0,1-.3.308.337.337,0,0,1-.245-.308l.108-.167.2-.078m.1-4.719.084.191a.278.278,0,0,1-.3.242.261.261,0,0,1-.245-.242.224.224,0,0,1,.245-.245l.221.054m-.146,8.784.108.224a.326.326,0,0,1-.3.3c-.245,0-.367-.122-.367-.3s.122-.308.367-.308l.2.084m.048-7.309-.287-.26a1.508,1.508,0,0,1-.388-.965,1.731,1.731,0,0,1,.43-1.039,1.31,1.31,0,0,0-.245.917l.128.744.361.6m-.063,2.387-.329.562-.1.6a1.729,1.729,0,0,0,.245,1.1,1.816,1.816,0,0,1-.49-1.1l.176-.627.5-.538m-.98,4.594.131-.176.176-.131-.185.37M271.6,10.29l.221.054.084.191a.28.28,0,0,1-.3.245.263.263,0,0,1-.245-.245l.078-.191.167-.054m0,1.347-.5-.553a1.354,1.354,0,0,1-.23-.735,1.8,1.8,0,0,1,.427-.98,2.053,2.053,0,0,0-.182.92l.128.717.361.63m-.122,5.448-.161.681-.391.544a1.676,1.676,0,0,0,.308-1.225,2.285,2.285,0,0,0-.43-1.225,1.562,1.562,0,0,1,.63.869l.045.355M271.3,30.433l-.03-.382-.215-.293h-.245a3.514,3.514,0,0,1,1.347-2.019,3.6,3.6,0,0,1,1.529,2.145h-.367l-.529-.768-.756-.582a4.18,4.18,0,0,1,.308,1.473,2.265,2.265,0,0,1-.367,1.284l-.269-.475-.406-.382m-.46-7.324.278-.087a.308.308,0,0,1,0,.615c-.245,0-.37-.122-.37-.308l.093-.221m-.03-3.943-.122.49-.063-.43a.579.579,0,0,1,.122-.427l.063.367m.23-6.735.146.32.054.355a1.818,1.818,0,0,1-.493,1.1,2.387,2.387,0,0,0,.248-1.1,1.61,1.61,0,0,0-.43-1.165l.475.49m-.23,4.409.2.1.108.146a.4.4,0,0,1-.308.367c-.185,0-.245-.182-.245-.367l.078-.17.167-.075m-.245,5.756.275-.535.093-.63a1.937,1.937,0,0,0-.308-1.162,1.731,1.731,0,0,1,.553,1.1,1.415,1.415,0,0,1-.191.681l-.421.544m.245-7.288-.048.361-.137.314-.122-.675.122-.732c.093,0,.137.167.161.343l.024.388m-.49,8.145.612-.95a2.184,2.184,0,0,0,.43-.95c0-.672-.49-1.284-.49-2.019,0-.98,1.039-1.47,1.039-2.327,0-.795-.857-1.287-.857-2.145,0-.795.612-1.344.612-2.142,0-1.039-1.347-1.162-1.347-2.631,0-.553.427-.98.3-1.532l.122.49-.182,1.042.06.451c.272.941,1.35,1.162,1.35,2.18,0,.8-.612,1.41-.612,2.142s.857,1.287.857,2.145c0,.917-.98,1.47-.98,2.387,0,.675.427,1.287.427,1.959a1.582,1.582,0,0,1-.49,1.042l-.857.857m-.063-11.207v-.3a.821.821,0,0,1,.122-.55l.063.3-.185.55m.308.553.2.116.108.251a.43.43,0,0,1-.308.245.327.327,0,0,1-.308-.3l.108-.2.2-.108m.43,17.939-.131.591-.361.451h-.245l-.3-1.042M270.376,9l-.1.191-.146.054c-.182,0-.3-.063-.3-.245a.28.28,0,0,1,.3-.245l.146.078.1.167m.122,14.02-.146.254-.281.116a.354.354,0,0,1-.367-.37c0-.245.122-.427.367-.427l.281.122.146.3m2.389,1.347.2-2.357.108-2.357-.06-2.694a.291.291,0,0,0,.367.063l-.063.122a.409.409,0,0,0,.367.427l.308-.06-.06.06a.459.459,0,0,0,.427.43.342.342,0,0,0,.308-.185s.182.427.427.427l.308-.122a.392.392,0,0,0,.364.367c.308,0,.43-.182.43-.367s-.063-.364-.245-.364c.122-.063.245-.245.182-.308h.8l-.122,1.039v.063a2.962,2.962,0,0,1-1.347.735,3.128,3.128,0,0,0,1.284-.367l-.122.367a2.075,2.075,0,0,1-1.1.672,2.037,2.037,0,0,0,.98-.3l-.06.3a2.569,2.569,0,0,1-1.1.675,2.574,2.574,0,0,0,.98-.245l-.122.367a5.677,5.677,0,0,1-1.162.672,2.936,2.936,0,0,0,1.039-.3l-.122.3-.98.553.794-.185-.364.857a9.7,9.7,0,0,1-1.1.615l.917-.248a4.207,4.207,0,0,0-.55,1.532l.122.735a2,2,0,0,1-.8.795,3.217,3.217,0,0,0,.92-.49,6.512,6.512,0,0,0,.732,1.042,2.732,2.732,0,0,1-.854.612,1.552,1.552,0,0,0,.977-.43l.245.248a1.556,1.556,0,0,1-.732.672,1.165,1.165,0,0,0,.854-.43l.245.245a1.286,1.286,0,0,1-.795.612h.06a1.206,1.206,0,0,0,.857-.367l.122.122a1.437,1.437,0,0,1-.794.675,2.035,2.035,0,0,0,.98-.43l.367.675s-.367.612-.735.672a1.544,1.544,0,0,0,.92-.367l.06.063c-.245.3-.49.612-.8.675a1.707,1.707,0,0,0,.92-.37l.122.37a3.068,3.068,0,0,1-1.837.487,4.807,4.807,0,0,1-2.2-.487,1.267,1.267,0,0,0-.185-.8h.308l.735-.063a1.481,1.481,0,0,1-1.532-.857l.49.063.553-.063a2.34,2.34,0,0,1-1.652-.55l.55.06.612-.06a2.69,2.69,0,0,1-1.959-.8,2.722,2.722,0,0,0,.98.185l.612-.06h-.245c-2.019,0-2.939-1.962-3.551-3.614l1.738.427,1.691.612m-3.919-6.918-.182-.06.245-.122.122.122m-.293,2.494-.137-.108c0-.245.367-.308.49-.308.185,0,.427.063.427.185,0,.245-.427.245-.55.245l-.23-.015m.17-1.455-.185.06a.274.274,0,0,1-.182-.245l.06-.06.176.078.131.167m.122.182.227.024.137.161c0,.182-.364.3-.487.3s-.367-.06-.367-.245c0-.09.093-.152.2-.191l.29-.054m.122,1.717.227.051.137.194c0,.182-.427.245-.55.245V21c0,.063,0,.427-.245.427-.122,0-.182-.364-.182-.427,0-.323.1-.541.335-.627l.278-.045m-.735-5.084.06-.152a.746.746,0,0,1,.49-.152c.122,0,.367,0,.367.182s-.367.3-.55.3l-.23-.045-.137-.137m.427,7.1.284.093.146.275c0,.182-.245.367-.43.367a.409.409,0,0,1-.427-.367l.122-.275.3-.093m-.49,9.612,1.714.063a1.458,1.458,0,0,1-.735.182l-.49-.075-.49-.17m.49-17.877.26.045.17.137c0,.245-.43.308-.553.308s-.427-.063-.427-.245c0-.093.093-.155.206-.191l.344-.054m-.49,2.449h-.06c0-.185.122-.185.245-.245l-.122-.122c0-.185.427-.308.55-.308s.367.06.367.182c0,.308-.55.308-.735.308l-.054.137-.191.048m.185,2.691v.063l-.191-.045-.054-.14v-.06l.167.045M268.419,31.6l.26-.5a.749.749,0,0,1,.535-.23c.49,0,.612.43.612.8v.06l-1.407-.122m.075-17.984-.137-.137c0-.185.43-.308.553-.308s.367.063.367.245-.43.245-.553.245l-.23-.045m.23-4.731-.176.167-.314.078c-.122,0-.367-.063-.367-.245s.43-.245.553-.245l.2.054.108.191m-1.042,7.1V15.86c0-.122.063-.245.185-.245l.063.063-.078.2-.17.108m.125,3.8-.063.122-.122-.245.06-.122m.125.735.14.051a.526.526,0,0,1,.1.379c0,.122,0,.487-.245.487-.125,0-.185-.364-.185-.487l.045-.263.14-.167m.182,1.774.284.116.146.251a.405.405,0,0,1-.43.367.325.325,0,0,1-.367-.367l.093-.251.275-.116m-.054-7.721.116.254a.373.373,0,0,1-.37.427c-.3,0-.49-.122-.49-.427,0-.185.185-.367.49-.367l.254.114m.176-6.482-.182.388a.487.487,0,0,1-.37.161c-.367,0-.612-.182-.612-.55l.122-.367,1.042.367M267.676,29l-.851-.469a14.251,14.251,0,0,0,1.532-3.611,1.4,1.4,0,0,0-.182-.675l1.344-.06.49,1.039-.3.063a1.95,1.95,0,0,1-.917-.367,1.712,1.712,0,0,0,1.407.55,5.588,5.588,0,0,0,1.042,1.41h-.245a3.636,3.636,0,0,1-1.959-.553,3.784,3.784,0,0,0,2.449.8l.427.427-.3.245a4.25,4.25,0,0,1-2.449-.55,4.617,4.617,0,0,0,2.2.857l-.367.427h-.122a5.233,5.233,0,0,1-2.267-.612,4.942,4.942,0,0,0,2.267.92l-.248.367H270.5a3.963,3.963,0,0,1-2.324-.675,3.763,3.763,0,0,0,2.324.98l-.06.245a6.512,6.512,0,0,1-1.876-.382L267.676,29m-.851-13.632.122.182c0,.125-.06.125-.122.185-.06-.06-.122-.06-.122-.185l.122-.182m.006,4.836.117-.06c.122,0,.185.367.185.49,0,.063-.063.43-.185.43-.182,0-.245-.367-.245-.43l.054-.293.075-.137m-.006-.427.063.122-.185.245-.06-.245.045-.063m-.045,4.1.122-1.042,2.634.43.119.8-1.461-.048m-1.478,7.21.308-.606c.137-.206.3-.373.49-.373.49,0,.675.735.675,1.1v.122l-1.473-.245m.308-9.37.281.1a.409.409,0,0,1,.146.329c0,.182-.245.367-.427.367a.412.412,0,0,1-.43-.367l.122-.329.308-.1m-.122-7.407-.048.239-.137.191c-.182,0-.242-.367-.242-.43,0-.122.06-.49.242-.49l.137.2.048.29m-.672,14.633v-.06a.636.636,0,0,1,.245-.49,7.735,7.735,0,0,0,4.591,1.47v.185l-.06.242h-.553a8.692,8.692,0,0,1-3.375-.774l-.848-.573m.732-12.428.361.084a1.1,1.1,0,0,1,.621.959,1.067,1.067,0,0,1-.983,1.039,1.018,1.018,0,0,1-.977-1.039,1.06,1.06,0,0,1,.591-.959l.385-.084m-.941-1.048.024.191v.122l-.182-.245v-.122m.06,4.286h-.06v-.122a.274.274,0,0,1,.182-.245l.063.06-.048.2-.137.108m.069.3.116-.06c.182,0,.245.308.245.49,0,.063-.063.367-.245.367s-.245-.3-.245-.367l.054-.293.075-.137m-.191,3.677.137-.553.048-.553.55.063-.122,1.1m-.218-14.394.164-.218.176-.084c.55,0,.857,1.837.857,2.267,0,.55-.245.977-.857.977s-.857-.427-.857-.977l.245-1.272.272-.693M265.8,26.5l-.137.075-.122-.245h.308m.221-4.385.146.284c0,.182-.245.367-.43.367a.354.354,0,0,1-.367-.367.405.405,0,0,1,.367-.43l.284.146m-.4-11.786-.314,1.6A1.032,1.032,0,0,0,266.4,12.8c.735,0,.98-.49.98-1.1,0-.49-.43-2.817-.98-2.817-.137,0-.272.152-.394.388l-.332.89m.3,19.663.176.188a1.714,1.714,0,0,1,.128.792v.427l-.642-.236c-.245-.1-.46-.221-.46-.376s.152-.32.329-.466l.469-.329m-.735-15.553.3-.122c.245,0,.367.185.367.43s-.122.427-.367.427a.416.416,0,0,1-.427-.427l.122-.308m.236,3.545.218.075.1.116c0,.119-.367.427-.49.487l.553-.122.122.122-.185.553a1.087,1.087,0,0,1,.49-.308c.182,0,.182.553.122.675.06-.063.3-.553.427-.553s.308.43.367.49v-.122s0-.49.122-.49a1.45,1.45,0,0,1,.553.367l-.185-.612c0-.06,0-.122.125-.122l.55.122c-.122-.06-.49-.3-.49-.487s.553-.245.612-.245c-.06,0-.612-.063-.612-.245s.367-.43.49-.49l-.55.06-.125-.06a1.175,1.175,0,0,1,.185-.612.82.82,0,0,1-.553.367c-.182,0-.122-.553-.122-.675-.06.122-.245.553-.367.553-.182,0-.3-.43-.367-.553v.245c0,.185,0,.43-.182.43s-.367-.185-.49-.308a.824.824,0,0,1,.185.49c0,.122-.063.122-.185.122l-.55-.06c.122.06.55.3.55.49s-.612.245-.672.245l.358.054m-.481-1.523h.06c.122-.063.185.06.185.182h-.063l-.182-.182m.158,2.861-.158.075h-.063l-.06-.06c0-.122.182-.185.3-.185l-.024.17m.1,1.284.045.263c0,.122-.06.427-.182.427-.245,0-.245-.3-.245-.427s0-.43.245-.43l.137.167m-.382,5.036v-.06h.3l-.3-.122v-.063l.367.063-.308-.185.063-.06h.245l-.245-.122.06-.063.308.063h.122c-.122,0-.308-.063-.308-.185v-.06l.43.06-.308-.182.367-.063c.612,0,.794.49.917.98a2.4,2.4,0,0,1-.854.308l-.451-.108-.406-.2m-.122-7.712.373-.2.421-.108c-.122-.122-.672-.367-.672-.55,0-.122.122-.122.182-.122l.8.182a1.372,1.372,0,0,1-.367-.735l.06-.06v-.063c.185,0,.553.308.735.49l-.06-.49.06-.367c.3,0,.49.553.55.675.063-.063.308-.735.49-.735.122,0,.063.735.063.917.182-.182.43-.49.675-.49l.06.185a1.5,1.5,0,0,1-.245.672,1.187,1.187,0,0,1,.612-.182c.185,0,.245,0,.245.122a.817.817,0,0,1,.49-.185c.122,0,.367,0,.367.245,0,.122-.427.245-.49.245-.122,0-.427-.06-.427-.182a1.121,1.121,0,0,1-.612.427,1.526,1.526,0,0,1,.795.185l.43-.122c.122,0,.364.06.364.245s-.427.245-.55.245-.3,0-.367-.122a1.754,1.754,0,0,1-.612.182c.122.06.612.367.612.55,0,0,0,.122-.245.122a1.388,1.388,0,0,1-.672-.182,1.4,1.4,0,0,1,.367.735l-.122.122c-.245,0-.553-.308-.675-.49v.427c0,.063,0,.43-.063.43-.245,0-.427-.553-.49-.675-.06.122-.245.675-.487.675-.185,0-.063-.675-.063-.8a1.3,1.3,0,0,1-.735.43l-.06-.122c0-.185.245-.49.367-.735l-.8.182-.122-.06h-.06c0-.185.55-.553.672-.612l-.442-.108-.352-.2m-.063,7.9.063-.063a1.486,1.486,0,0,0,1.956,0h.063v.063c0,.3-.857.55-1.039.55a1.725,1.725,0,0,1-.98-.367l.245.063-.308-.245m.49-18.555.391.161.161.391a.549.549,0,0,1-.553.553.605.605,0,0,1-.612-.553.527.527,0,0,1,.191-.391l.421-.161m-.236,14.872.113.254c0,.182-.182.427-.367.427a.52.52,0,0,1-.43-.427c0-.185.245-.367.43-.367l.254.114m-.009-3.85-.051.143a.541.541,0,0,1-.379.1c-.122,0-.49-.06-.49-.245s.308-.242.43-.242l.29.075.2.167m-.06-3.548-.161.108-.209.015a.662.662,0,0,1-.49-.122l-.06-.122.06-.122.308-.122a.724.724,0,0,1,.493.206l.06.161m0,1.774-.161.137-.209.048a.7.7,0,0,1-.49-.185v.308l-.06-.43.06-.06c.063-.125.245-.125.367-.125a.666.666,0,0,1,.433.158l.06.149m0,2.754-.161.14-.209.045-.49-.122-.06-.122.06-.122.308-.063a.809.809,0,0,1,.493.1l.06.14m-.86-3.8.152-.108.155-.015c.182,0,.553.063.553.245s-.37.185-.43.185l-.43-.063-.122-.182.122-.063m0-3.548.293-.17.382-.075a1.281,1.281,0,0,1,.612.245v-.367l-.367-.122-.49.122c-.245,0-.43-.122-.43-.367a.482.482,0,0,1,.49-.49,1.015,1.015,0,0,1,.92.49l.063-.43c-.245-.612-.983-.06-.983-.672,0-.122.185-.245.37-.245a.812.812,0,0,1,.672.49l.122-.245c-.122-.553-.735-.122-.735-.675A.263.263,0,0,1,265.173,9c.308,0,.49.245.675.49l.06-.245c-.122-.367-.49-.245-.49-.55l.122-.185c.308,0,.43.308.553.49.06-.122.122-.122.182-.122l-.06-.49c0-.122.06-.245.182-.245s.182.063.182.245l-.122.43c.122.06.185.06.245.182.063-.182.245-.49.43-.49l.122.063.06.182c0,.182-.367.122-.427.49l.06.308A.71.71,0,0,1,267.559,9c.122,0,.248.182.248.308,0,.3-.553.122-.738.55l.122.308c.185-.245.49-.553.8-.553a.4.4,0,0,1,.308.308c0,.427-.8.122-.983.612l.063.367a1.059,1.059,0,0,1,.735-.367.554.554,0,0,1,.612.49.343.343,0,0,1-.3.367l-.738-.122-.245.06.063.43a1.293,1.293,0,0,1,.612-.245.734.734,0,0,1,.735.672c0,.245-.122.367-.3.367-.308,0-.49-.367-.86-.367h-.3l-.063.245c.367,0,.92.245.92.55,0,.248-.427.615-.675.615s-.3-.615-.672-.8l-.308.122a.583.583,0,0,1,.308.49.549.549,0,0,1-.55.553.5.5,0,0,1-.49-.553.512.512,0,0,1,.367-.553l-.308-.06c-.49.122-.427.8-.735.8-.245,0-.675-.367-.675-.553,0-.367.675-.612.983-.612l-.122-.245h-.245c-.493,0-.553.367-.92.367l-.185-.122a.339.339,0,0,1-.182-.308l.182-.364m0,7.957h.185c.182,0,.553,0,.553.245,0,.125-.248.248-.37.248l-.367-.122a.277.277,0,0,1-.245-.185l.245-.185m0-6.365.29.084c.108.054.2.128.2.221,0,.185-.367.185-.49.185-.182,0-.427-.063-.427-.308l.167-.137.26-.045m0-3.614.167.069.078.116c0,.122-.182.182-.245.245h-.182c-.122,0-.49-.063-.49-.245,0-.155.122-.215.269-.23l.4.045m0-.917.084.069L264.13,9l-.122.245h-.245c-.122,0-.487-.063-.487-.308,0-.119.242-.182.364-.182l.367.063m0-.857.122.182-.122.063-.3.06c-.185,0-.55-.06-.55-.245s.242-.182.364-.182l.245.015.245.108m-.06,14.265-.122.284-.308.143c-.182,0-.364-.245-.364-.427a.392.392,0,0,1,.364-.367l.308.114.122.254m0-15.063-.137.191-.23.054c-.185,0-.55-.063-.55-.308,0-.122.3-.182.364-.182a.9.9,0,0,1,.493.128l.06.116m-1.039,12.673-.015.361-.108.314c-.063,0-.063-.612-.063-.675s0-.672.063-.672l.108.314.015.358m.1-2.279.084.2a.288.288,0,0,1-.3.3.28.28,0,0,1-.245-.3c0-.122.122-.308.245-.308l.221.108m1,.078.122.06h-.122c-.182.063-.3.122-.3.308a.624.624,0,0,0,.3.487l.122.063h-.122c-.182.06-.367.182-.367.3a.71.71,0,0,0,.367.553l.063.06h-.063c-.182.063-.49.063-.49.367,0,.185.245.37.367.43-.182.122-.427.245-.427.43a.372.372,0,0,0,.182.367.962.962,0,0,1,.367-.49l.245-.063.245.122c0,.245-.367.49-.49.612v.122l.185.06c.3,0,.367-.245.427-.427a.6.6,0,0,0,.493.427c.245,0,.367-.182.427-.427,0,.245.185.49.367.49.308,0,.43-.245.49-.49.122.182.245.49.55.49.185,0,.367-.308.367-.49a.721.721,0,0,0,.615.55.633.633,0,0,0,.427-.3c.063.182.185.55.43.55a.454.454,0,0,0,.427-.367c.063.185.185.367.367.367a.4.4,0,0,0,.367-.427c0-.3-.367-.367-.612-.3.122-.245.672-.245.672-.553,0-.427-.367-.367-.672-.367.182-.245.672-.245.672-.612,0-.308-.55-.308-.732-.308.182,0,.672-.3.672-.55,0-.185-.49-.367-.672-.367.182-.122.672-.3.672-.55,0-.308-.185-.367-.43-.367a.593.593,0,0,0,.43-.553c0-.245-.308-.367-.49-.367.122-.122.427-.3.427-.553s-.245-.3-.427-.3a.779.779,0,0,0,.427-.612c0-.182-.427-.3-.55-.367.182-.06.49-.245.49-.49s-.367-.367-.49-.367c.122-.122.49-.3.49-.612,0-.185-.367-.308-.49-.308a.7.7,0,0,0,.367-.55c0-.245-.427-.367-.612-.367a.811.811,0,0,0,.367-.55c0-.245-.367-.308-.49-.367a.6.6,0,0,0,.43-.49c0-.308-.43-.367-.675-.367.185-.122.43-.308.43-.553,0-.182-.43-.3-.612-.367.182-.063.49-.367.49-.55s-.245-.308-.367-.308l.182-.3.49.122a63.179,63.179,0,0,1,.98,9.489c0,1.529,0,3.184-.122,4.713a19.573,19.573,0,0,0-5.021-.735h-1.165l-.977.122a25.287,25.287,0,0,0,.364-4.283v-.43a60.721,60.721,0,0,0-1.039-10.472l.857.063-.343.143-.146.122-.06.161c0,.37.3.43.55.493-.182.06-.49.245-.49.427,0,.245.43.49.672.49-.182.063-.55.245-.55.427,0,.308.43.43.612.493-.122.06-.427.182-.427.367s.364.49.55.49a.675.675,0,0,0-.427.49c0,.245.364.367.55.427-.185.063-.55.185-.55.49,0,.185.364.367.609.427-.182.063-.487.245-.487.43,0,.245.364.49.487.553-.122.06-.367.245-.367.427s.367.367.49.43c-.122.122-.49.3-.49.49s.367.427.553.49c-.185,0-.43.182-.43.364,0,.245.245.43.49.49l.063.063h-.063c-.245.06-.427.122-.427.367l.122.314.3.176h.063l-.063.063c-.182,0-.427.182-.427.3l.146.3.281.254-.06-.49.06-.063.367-.06c.122,0,.493.06.493.245s-.308.182-.37.182a.511.511,0,0,1-.49-.182v.367m-1.652,14.2.024-.191-.024-.236a7.472,7.472,0,0,1,1.652-.063l2.022.308,1.529.367a5.951,5.951,0,0,0,1.777.49h.122a1.57,1.57,0,0,0,1.777-1.714,1.887,1.887,0,0,1,.367.857l-.063.612a3.217,3.217,0,0,0,1.162-2.757,1.946,1.946,0,0,1,.49,1.225,2.357,2.357,0,0,1-.795,1.592l.917-.182.063.06-.541.52a3.231,3.231,0,0,1-2.031.645,13.493,13.493,0,0,1-3.737-.98,12.98,12.98,0,0,0-3.062-.675l-.3-.06-.72.045-.627.137m.553-15.182-.361.556-.128.606a2.068,2.068,0,0,0,.3,1.039,1.388,1.388,0,0,1-.427-1.1,1.262,1.262,0,0,1,.335-.887l.278-.215m.06-3.492-.078.221-.167.087-.3-.122a2.335,2.335,0,0,0,.55,1.1,1.5,1.5,0,0,1-.735-1.287,1.215,1.215,0,0,1,.43-.98,1.585,1.585,0,0,0-.245.92c0-.125.122-.185.3-.185l.146.078.1.167m-.8,8.9.254-.084a.306.306,0,0,1,0,.612.342.342,0,0,1-.367-.308l.113-.221m.069-13.922.167.084.078.224a.263.263,0,0,1-.245.245.28.28,0,0,1-.3-.245l.084-.224.221-.084m-.06,13.408.191.078.054.167v.063l-.063-.063c-.182,0-.367.122-.367.245l-.122-.245.084-.167.224-.078m.042-.771.385-.146a2.173,2.173,0,0,0-.917,1.652l-.063-.55a1.04,1.04,0,0,1,.284-.711l.311-.245m-.164,7.661-.43.275a1.187,1.187,0,0,1,1.165-1.042,1.553,1.553,0,0,1,1.222.735,1.312,1.312,0,0,1,.185.735,1.8,1.8,0,0,1-.185.86,3.949,3.949,0,0,1-.795,1.162l-.857.182a.747.747,0,0,0-.367-.612c.675-.182,1.47-.487,1.47-1.225a1.053,1.053,0,0,0-.98-1.162l-.427.093m.182-18.889L261.7,9a1.406,1.406,0,0,1-.206-.735,1.362,1.362,0,0,1,.367-.92,1.388,1.388,0,0,1-.182-.672V6.491a1.455,1.455,0,0,1,.3.8l-.06.185-.063-.063a1.457,1.457,0,0,0-.182.735,2.214,2.214,0,0,0,.308,1.129l.242.281m-.122,5.753-.128.568-.361.475a1.606,1.606,0,0,0,.308-1.042,1.937,1.937,0,0,0-.43-1.162l.445.49.167.672m-.412-4.651.167.672a1.528,1.528,0,0,1-.49,1.1,1.774,1.774,0,0,0,.308-1.1,1.621,1.621,0,0,0-.43-1.162l.445.49M261.5,15l.167.084.078.221c0,.122-.122.308-.245.308-.185,0-.245-.185-.245-.308l.054-.2L261.5,15m-.185,1.165.108.29.015.382c0,.063,0,.612-.122.612l-.122-.612.122-.672m.063,6.12.275.078.093.167c0,.245-.122.308-.367.308a.288.288,0,0,1-.308-.308l.108-.167.2-.078m-.308,9.919.161-.511a.445.445,0,0,1,.391-.284.518.518,0,0,1,.43.245.985.985,0,0,1-.445.343l-.538.206m.245-18.734-.039.358-.084.314c-.122,0-.182-.612-.182-.672s.06-.675.182-.675l.084.314.039.361m.161,5.385.146.675a1.674,1.674,0,0,1-.43,1.1,1.891,1.891,0,0,0,.308-1.1,1.683,1.683,0,0,0-.49-1.165l.275.218.191.272m0-7.73.084.2a.329.329,0,0,1-.3.308.4.4,0,0,1-.308-.308.393.393,0,0,1,.308-.3l.221.1m-.161,8.405-.054.2-.191.1c-.122,0-.245-.182-.245-.3a.281.281,0,0,1,.245-.308l.191.087.054.221m.46-9.719.484.55a1.27,1.27,0,0,1,.221.72c0,.8-.55,1.407-.55,2.082,0,.8.795,1.347.795,2.2,0,.98-.98,1.47-.98,2.39,0,.672.553,1.222.553,1.956,0,.8-.92,1.35-1.35,1.959.245-.55,1.042-1.407,1.042-1.9,0-.735-.49-1.287-.49-2.019,0-1.042.92-1.532.92-2.39,0-.795-.8-1.284-.8-2.2,0-.735.553-1.284.553-2.019,0-1.1-1.41-1.165-1.41-2.694,0-.553.427-.98.3-1.473a.558.558,0,0,1,.185.43c0,.367-.185.675-.185,1.042a1.443,1.443,0,0,0,.221.789l.484.573m-1.195,15.657.063-.182a1.688,1.688,0,0,0,.98-1.837,9.713,9.713,0,0,0,2.387.612l1.532.122v.122a1.18,1.18,0,0,0-.857,1.1.326.326,0,0,0-.185.245c0,.367.675.672.92.672,0,.185.063.367.245.367.245,0,.308-.182.308-.367.3,0,.977-.3.977-.672a.263.263,0,0,0-.245-.245,1.17,1.17,0,0,0-.917-1.1v-.063a13.676,13.676,0,0,0,2.267,0v.122l-.167.968c-.311,1.013-.968,2.127-1.243,3.136l-.245-.122c-.367,0-.612.49-.612.795l.185.367c-.49.122-1.1.615-1.1,1.165,0,.3.245.427.427.55l-1.287-.06H263.4l.612-.675a2.125,2.125,0,0,0,.49-1.347,1.7,1.7,0,0,0-.49-1.284,1.806,1.806,0,0,0-1.222-.49c-.92,0-1.228.672-1.228,1.47v.3a.987.987,0,0,1,.86-.49.709.709,0,0,1,.735.735c0,.615-.735,1.042-1.165,1.225v-.06c0-.367-.735-.55-1.042-.612a6.44,6.44,0,0,1-.427-2.634l-.015-.917.075-.92m0-17.877-.06.245a1.341,1.341,0,0,1-.245-.8V6.858l.221.367.084.37m0,13.713.063.185c0,.182-.122.98-.308.98-.119,0-.119-.122-.119-.185a2.605,2.605,0,0,1,.23-.851l.134-.128m.069,1.332.116.2a.346.346,0,0,1-.367.308.291.291,0,0,1-.3-.308.329.329,0,0,1,.3-.308l.251.108m-1.108,9.934.215-.343a.561.561,0,0,1,.4-.206,2.11,2.11,0,0,1,.672.3l-1.284.245M258.8,13.106l-.03-.2-.215-.108-.063.06.125.43-.125.553.224-.323m.451-6.293-.3-.122-.615-1.039.37.182M258.129,31.9h-.182l.06-.49c.983,0,2.572-.122,3.062-1.162.185.06.553.182.553.364,0,.783-1.583,1.114-2.661,1.231l-.83.057m.063-19.594L258.138,12c-.039-.1-.1-.176-.191-.176l-.122.063-.063.06c0,.122.245.245.245.49a4.993,4.993,0,0,1-.245.92l.308-.475.122-.568m-.17,20.374-.32-.108c.122-.367.245-.367.672-.367a.719.719,0,0,1,.675.49h-.612l-.415-.015m.352-25.639-.49-.122-.794-.98.672.06m-1.3-.884.1.2-.018.2-.122.06a.506.506,0,0,1-.43-.612l.122-.06.188.063.164.152m-.475.947.675-.122.732.917-.609.063m-.857.182-.8-.735.49-.245.8.857m-1.962-.245.367-.245.738.8-.37.185M254.8,4.648l.269-.054a.8.8,0,0,1,.8.675.749.749,0,0,1-.8.672.692.692,0,0,1-.735-.672.648.648,0,0,1,.23-.475l.236-.146m.373,12.1.654-.4a3.929,3.929,0,0,0,.959-1.156,5.229,5.229,0,0,0-.675.553,6.2,6.2,0,0,1-1.777.98l-.06-.3.122-.43c.857-.43,1.47-1.9,1.9-1.837h.122a3.7,3.7,0,0,1,1.652,2.082c.367-.735,1.1-.92,1.347-1.774a12.707,12.707,0,0,0,.553-2.634l.854-1.225.122,3.429v.308l-.792,1.213a11.887,11.887,0,0,1-3.065,3.193,5.22,5.22,0,0,1-2.267.92c-.245,0-.55-.063-.55-.367a.9.9,0,0,1,.245-.49,3.312,3.312,0,0,0,3.184-2.264,4.68,4.68,0,0,1-3.184,1.956h-.063v-.122a.745.745,0,0,1,.185-.55c1.287-.122,2.327-.427,2.817-1.652-.367.735-2.2,1.284-3,1.47a.411.411,0,0,1-.245-.308.62.62,0,0,1,.245-.427l.717-.158M254.518,7.9l-.612-.675.245-.245.735.675m-.245-3.244-.146.191-.284.054c-.119,0-.427-.063-.427-.245s.308-.248.427-.248l.284.054.146.194m-.98,3.062.672.672c-.182.122-.3.308-.487.367l-.49-.735.3-.3m-.06-1.837.475.137a.5.5,0,0,1,.2.412.622.622,0,0,1-.672.55.6.6,0,0,1-.612-.55.506.506,0,0,1,.191-.412l.421-.137m-.063,3.184-.49.3-.3-.98a.413.413,0,0,0,.3-.182l.49.857m-.857,23.142.048-.421-.048-.373a3.742,3.742,0,0,0,2.572,1.284c.553,0,1.47-.182,1.47-.98a1.168,1.168,0,0,0-.245-.735c.553,0,1.225.245,1.225.92,0,1.1-1.284,1.592-2.2,1.592a3.279,3.279,0,0,1-2.168-.777l-.648-.511m.245-25.126.134.131.051.2a.557.557,0,0,1-1.105,0c0-.308.308-.43.553-.43l.367.1m-.182,2.41-.43.245-.367-.98.427-.182m-.367-3.919.344.048c.355.09.7.32.7.687,0,.49-.612.732-1.042.732-.367,0-.977-.242-.977-.732a.748.748,0,0,1,.669-.7l.308-.039m0,5.143-.672.06-.3-.98.609-.122m.245-.672-.042.194a.477.477,0,0,1-.448.233.415.415,0,0,1-.427-.427c0-.185.245-.367.427-.367l.338.114.152.254m-.206,21.078-.711-.2a.748.748,0,0,1,1.47.182v.122l-.759-.1M250.83,4.4l-.167-.17c0-.185.3-.308.427-.308s.367.122.367.308c0,.122-.245.245-.367.245l-.26-.075m-.167,24.627.854.2.857.108c.308,0,.738-.063.738-.43a2.319,2.319,0,0,0-.245-.795.414.414,0,0,0,.245-.43,1.3,1.3,0,0,0-.185-.732H252.5l.14-.568c.442-1.153,1.628-1.18,2.858-1.395l.735-.182c.308,1.529.063,4.468.8,5.756h-.185a2.317,2.317,0,0,0-.917.122c.367.122.672.3.672.672,0,.612-.917.8-1.347.8-1.225,0-1.9-.857-2.754-1.592a2.422,2.422,0,0,0-1.532-1.347l-.3-.185m.06-17.939-.122-.06.122-.122.185.122m-.675,21.918.538-.275a.6.6,0,0,0,.26-.46.562.562,0,0,0-.245-.49,1.123,1.123,0,0,0,.794-1.162,1.419,1.419,0,0,0-.245-.857,2.267,2.267,0,0,1,1.1,1.959c0,.872-.726,1.123-1.473,1.222l-.732.063m.735-23.265h-.612l-.245-.857.553-.122m-.675,2.327.137-.215a2.28,2.28,0,0,1,.842-.215l-.98.43m.612-5.388v.182c-.06.367.367.672.735.672a1.1,1.1,0,0,0,.55-.245c.063.49-.55.857-.977.857s-.98-.3-.98-.735a.7.7,0,0,1,.2-.481l.475-.251m-.122,2.631-.137.191-.23.054c-.182,0-.427-.06-.427-.245s.245-.3.427-.3l.23.084.137.221m.081-3.572.042.206a.472.472,0,0,1-.49.427c-.245,0-.55-.182-.55-.427a.534.534,0,0,1,.55-.49l.338.131.111.152m.164,6.756.269-.122.039-.3c.364-.122.672-.367.609-.735v-.063c-.182.308-.609.185-.917.185-.49,0-1.162.367-1.162.98l.182-.122.308.122.245-.063.427.122m-.917-2.572.182.857-.55.063-.248-.86m0,11.335-.06-.373.308.612m-.37,7.652.125-.23a.822.822,0,0,1,.672-.26.648.648,0,0,1,.735.735v.245l-1.532-.49m-.122-2.631.275-.624c1.544-2.927,5.412-3,5.3-5.009l.49.06a5.437,5.437,0,0,0,2.694-1.225,10.664,10.664,0,0,0,3.244-4.346,32.592,32.592,0,0,1-1.467,9.37,9.606,9.606,0,0,1,4.528-1.042h.49l1.042.06L265.3,23.82l-1.287-.06-2.387-.367-.063-.245v.3c0,.43-.55,1.592-1.162,1.652l-.063.122a3.011,3.011,0,0,1-1.1.49,6.319,6.319,0,0,0,1.039-.182l-.06.55-1.1.367,1.1-.122-.063.367a2.226,2.226,0,0,1-.98.43l1.042-.06v.3a4.662,4.662,0,0,1-1.042.427l1.042-.122v.308a2.052,2.052,0,0,1-1.042.49h.185a2.452,2.452,0,0,0,.917-.185l.06.245a2.536,2.536,0,0,1-1.162.553,2.757,2.757,0,0,0,1.225-.245,9.982,9.982,0,0,0,.55,1.165c-.612.917-2.079,1.1-3.062,1.1a.939.939,0,0,0-.794-.55c-.735-2.145-.06-4.471-.857-6.858A11.215,11.215,0,0,1,255.5,21v.182a10.3,10.3,0,0,0,.553,3l-.122.06a1.44,1.44,0,0,1-.43-.854v.122a1.6,1.6,0,0,0,.308,1.039l-.245.182a1.746,1.746,0,0,1-.675-1.222v.3a1.9,1.9,0,0,0,.367.98h-.245l-.34-.236a1.553,1.553,0,0,1-.517-1.111v.185a1.763,1.763,0,0,0,.427,1.222,2.551,2.551,0,0,0-1.162.308,1.5,1.5,0,0,1-.735-1.284l-.06.245a1.748,1.748,0,0,0,.55,1.162l-.182.122c-.553-.122-.8-.8-.92-1.284a1.854,1.854,0,0,0,.675,1.467,2.041,2.041,0,0,0-.37,1.35,6.173,6.173,0,0,1-2.73-.768l-.7-.642m-.093-20.114.338-.093a.367.367,0,1,1,0,.735c-.245,0-.49-.122-.49-.367l.152-.275m.093,2.787.191.084.054.221c0,.063-.06.185-.245.185a.272.272,0,0,1-.245-.185l.078-.221.167-.084m.245-1.41-.06.182c0,.43.367.553.735.553l.367-.06c-.06.367-.49.49-.794.49s-.86-.122-.86-.553a.5.5,0,0,1,.191-.376l.421-.236m-.215,19.233.436.332a5.829,5.829,0,0,0,3.333.887l.06.367c0,.245-.122.245-.367.245-1.1,0-3.674-.735-3.982-1.9,0-.122.063-.3.185-.3l.335.373M248.822,9l.245.857-.612.122-.182-.8m.55-2.631-.093.221-.275.084c-.122,0-.367-.122-.367-.3s.245-.308.367-.308l.275.084.093.224m-1.016,2.013.221-.054a.225.225,0,0,1,.245.245.263.263,0,0,1-.245.245.28.28,0,0,1-.3-.245l.084-.191m-.146,8.151h-.06l.182-.06M247.6,27.249l.23-.323.32-.23a.935.935,0,0,1,.612.8l-.122.49-.568-.323-.472-.412m.245-20.269.167.078.075.167a.224.224,0,0,1-.242.248c-.122,0-.308-.063-.308-.248l.108-.167.2-.078m-.122,3.8-.185-.122a.2.2,0,0,1,.185-.185c.06,0,.122.063.122.185l-.122.122m.182-1.532.182.8-.487.182-.185-.735m-.054-1.768.054.116c0,.182-.06.3-.245.3a.28.28,0,0,1-.245-.3.272.272,0,0,1,.245-.185l.191.069m-.03,1.15.084.188c0,.185-.122.248-.3.248a.226.226,0,0,1-.245-.248.223.223,0,0,1,.245-.242l.221.054m-.039,1.476-.427.185-.185-.675.367-.245M246.5,8.33l.221.045.084.137a.289.289,0,0,1-.3.308.283.283,0,0,1-.248-.308l.078-.137.17-.045m-.018,2.8.078.14c0,.122-.122.122-.245.122-.063,0-.122,0-.122-.122s.06-.185.122-.185l.167.045m.078-.412-.3.131-.254.176-.06-.735.43-.308m.06-.427-.078.167-.167.078a.281.281,0,0,1-.308-.245.29.29,0,0,1,.308-.308l.167.084.078.224m-.92,1.837-.182-.185c.06-.3.06-.49.3-.612l.063.612-.185.185m-.3,18.973.116-.3.367-.182a6.539,6.539,0,0,1,3.184-1.042c.98,0,2.387.367,2.387,1.592a1.1,1.1,0,0,1-1.1,1.1,3.3,3.3,0,0,1-.983-.245.989.989,0,0,0,.92-.92c0-.735-.857-.857-1.41-.857a5.4,5.4,0,0,0-3,.92l-.612.367-.122-.185.251-.251m-.069-17.874-.487-.06a2.3,2.3,0,0,1,.55-.857l-.063.917m-.122,2.572-.672-.06a20.644,20.644,0,0,0,.857-2.082l.182.06a.284.284,0,0,0,.308-.182v-.735l-.185-.612.185-.06.427-.308-.06.308c0,.182.245.367.43.367a.4.4,0,0,0,.06-.8l.98-.427-.06.122a.407.407,0,0,0,.367.427c.242,0,.364-.182.364-.427l-.242-.308c1.652-.49,3.611-.245,4.9-.857,1.956-.917,1.652-2.145,4.468-2.39l.06.185a.284.284,0,0,1-.182.308,4.8,4.8,0,0,1,1.347-.122,2.136,2.136,0,0,1,2.082,2.019l-.063.675a1.544,1.544,0,0,0-.795-.612c-.06-.8-.55-1.777-1.47-1.777-1.774,0-.675,1.9-2.142,3,.49-.122.857-.92.98-1.41a1.427,1.427,0,0,1,.917.857,1.45,1.45,0,0,0-.8-1.225l.122-.3a3.925,3.925,0,0,1,1.042.98,4.328,4.328,0,0,0-.735-1.225l.3-.185a3.079,3.079,0,0,1,.8.98,5.157,5.157,0,0,0-.43-1.039s1.228.732,1.228,1.529a.917.917,0,0,1,.854.612,3.259,3.259,0,0,1-.794,1.347v.063a10.176,10.176,0,0,1-.49,2.449c-.245.735-.857,1.162-1.042,1.834-.612-2.446-2.569-1.774-2.569-4.468a4.65,4.65,0,0,1,.182-1.284,4.241,4.241,0,0,0-.49,1.711,2.679,2.679,0,0,0,.43,1.35,3,3,0,0,1-.675,1.711l.06-.487v-.308l-.245,1.039c-.182.122-.3.308-.55.37l.182-.735-.427.854-.367.185.122-.675a1.8,1.8,0,0,1-.367.675l-.3.06.06-.427v-.245a1.25,1.25,0,0,1-.245.672l-.367.063.122-.735-.308.735-.3-.063.182-.735-.367.735-.367-.06a3.093,3.093,0,0,0,.185-.8,1.932,1.932,0,0,1-.367.8h-.49a2.937,2.937,0,0,0,.3-1.039,1.908,1.908,0,0,1-.55,1.039h-.182a3.245,3.245,0,0,0-2.085,1.165c0-.43,1.228-1.655,1.228-2.939l-.063-.367A8.571,8.571,0,0,1,245.7,15l-.675.06m-1.162,1.105.917.26.92.167,1.714.122v.122l-.795,1.042a1.36,1.36,0,0,1-.675-.308,1.233,1.233,0,0,0,.553.43l-.185.3a1.032,1.032,0,0,1-.612-.185l.49.367-.185.245-.3-.122-.367-.122.367.245.245.122-.122.367H245.7a.806.806,0,0,1-.612-.182,1.287,1.287,0,0,0,.612.367h.06l-.06.3v-.182l-.063.245a1.092,1.092,0,0,1-.612-.245,1.4,1.4,0,0,0,.612.427v.185a1.441,1.441,0,0,1-.732,0,1.2,1.2,0,0,0,.672.122v.245l.06.49a2.11,2.11,0,0,1-.672.182h.245a.534.534,0,0,0,.427-.06l.063.122.122.182-.49.49c.122-.06.3-.122.367-.245l.245-.122.3.122a1.348,1.348,0,0,1-.427.553,1.1,1.1,0,0,0,.553-.49l.245.06.55-.122a.411.411,0,0,1,.245.308l-.06-.367.122-.063.245.245-.122-.367.122-.06.122.3-.063-.3.672-.55a.336.336,0,0,0,.185.245l-.185-.43c0-.182.122-.98.308-1.042l.182.185c.063.612.367,1.1,1.042,1.1.122,0,.553,0,.553.122-.063.672-1.717,1.039-2.267,1.162h.49a3.021,3.021,0,0,1-2.449,1.41l-.612-.122c-1.9-.43-2.449-2.267-2.449-4.1l.191-1.613.421-1.568m-.167-1.033.648.161.744.075h.612a9.431,9.431,0,0,0,3.121-.795l.185.427c0,.49-.553.98-.735,1.347h-.427l-.122-.308v.308h-.367l-.122-.367-.063.367h-.612l-.122-.367-.06.367h-.37l-.122-.43v.37H245.7l-.308-.063a.74.74,0,0,1-.122-.49.692.692,0,0,0,0,.49l-.364-.122a.7.7,0,0,1-.185-.49.526.526,0,0,0,0,.427c-.427-.06-1.959-.672-2.022-1.1l.46.039.538.152m.406,16.058.251-.2.122-.251a8.23,8.23,0,0,1-2.694.92h.245a6.275,6.275,0,0,0,1.338-.185l.738-.281m-.759.771-.582.063a3.847,3.847,0,0,1-1.837-.43,5.008,5.008,0,0,0,3.674-2.327,1.026,1.026,0,0,1,.55.8.763.763,0,0,1-.242.49c-.063-.122-.245-.185-.367-.245a.676.676,0,0,1,.3.612c0,.4-.367.672-.812.848l-.687.191m.337-3.244-.738.842a3.654,3.654,0,0,1-2.324,1.362l.182.06a3.84,3.84,0,0,0,2.778-1.867l.1-.4m-3.429,2.817v-.308a2.05,2.05,0,0,0,.367-.612,3.821,3.821,0,0,0,2.569-3.671c.248.182.738.854.675,1.222a3.07,3.07,0,0,0,1.042-.612,4.088,4.088,0,0,1-2.145,3.124l-1.234.475-1.275.382m.3-9.86-.783.436-.687.484a1.032,1.032,0,0,0-.245-.675,4.33,4.33,0,0,1,1.225-.245h.49m-.508-1.3-.5.424a3.042,3.042,0,0,0-.7,1.057l-.367-.43a9.345,9.345,0,0,1,1.1-1.1,6.662,6.662,0,0,0-1.225.977l.245-.672a2.747,2.747,0,0,1,1.655-.612h.367l-.57.355m-.117-2.858-.7,1.171a21.94,21.94,0,0,0-1.063,2.494L237.863,21a15.649,15.649,0,0,1,.857-2.022,11.51,11.51,0,0,0-1.039,1.9l-.308-.122.8-2.082s1.529-1.959,2.631-2.2l-.869,1.048m-2.99,5.627.263.329.352.284.245-.245-.454-.14m-.651-1.269.8.245-.245.245M236.639,9.86l.06-.182.308.182M236.991,23.7l-.352-.251c.06.245.367.43.612.612l.185-.245-.445-.116m-.352,1.891.8-.857a7.178,7.178,0,0,1,1.652-.182,2.586,2.586,0,0,1,1.532.367h-.245a4.657,4.657,0,0,0-2.939,1.039l-.4-.227-.4-.14m-.122,5.574.122-.675a3.425,3.425,0,0,0,1.41.43c1.039,0,1.589-.917,2.019-1.714a1.645,1.645,0,0,1,.185.92,1.222,1.222,0,0,1-.43.977,1.4,1.4,0,0,1,.182.675l-.06.535-.191.346-.078-.424a1.638,1.638,0,0,0-1.171-.741l-1.989-.329m.974-10.018.618.373a1.561,1.561,0,0,1,.675,1.072.472.472,0,0,1-.49.427,1.74,1.74,0,0,1-.735-.245l.672-.795h-.367a1.4,1.4,0,0,1-1.41-.735c.063-.245.245-.245.43-.245l.606.146M236.943,10.9l-.329-.048-.284-.137.063-.182a.852.852,0,0,1,.92-.245l.182-.308-.43-.55a1.409,1.409,0,0,1,.738-.37,1.516,1.516,0,0,1,.245.738,1.1,1.1,0,0,1-.672,1.016l-.433.087m-.612,7.59V16.473a27,27,0,0,1,2.757-4.591,31.52,31.52,0,0,0-2.757,4.038V14.758c1.042-1.652,2.572-3.856,4.471-4.531a25.782,25.782,0,0,0-3.677,5.959l-.795,2.306m0,1.84V19.289a21.394,21.394,0,0,1,1.655-3.369,7.458,7.458,0,0,1,3-3,33.687,33.687,0,0,0-3.8,7.778l-.248-.063-.49.122a43.968,43.968,0,0,1,2.757-5.633L237.7,17.682l-1.371,2.649m.735,3.856-.735-.367.553.612m-.568-15.475.627-.26L236.7,8.39a1.407,1.407,0,0,0-.735,1.1l.134-.314.218-.221m-.352,15.17.239.329.373.281.245-.245-.451-.158m.206-16.066-.245-.3a1.563,1.563,0,0,0-.732,1.1.965.965,0,0,1,.35-.511l.627-.284m-.367-.427-.182-.308a1.364,1.364,0,0,0-.735,1.1.768.768,0,0,1,.323-.511l.594-.284m-.941-.122.573-.308-.182-.245a1.407,1.407,0,0,0-.735,1.042l.344-.49m.209-.738-.185-.245a1.408,1.408,0,0,0-.735,1.105A1.133,1.133,0,0,1,234.9,7.3l.576-.317m-.308-.427-.245-.185a1.228,1.228,0,0,0-.735,1.042,1,1,0,0,1,.352-.52l.627-.338m-1.1,21.8-.173-.415a1.178,1.178,0,0,0-.992-.747l-.182.06c.045.137.574.412.989.75l.358.352m-.308-5.627L233.4,23l-.254.335-.672.063a4.31,4.31,0,0,0,.794-1.042l.612-.122.675.122-.8.373m-1.225,5.353.379.281.355.361c-.06-.367-.427-1.1-.854-1.1h-.43l.55.46m-1.162-10.624.529-.078.574.018a.531.531,0,0,0,.427,0l.063.122-1.592-.063m1.1-11.267-.122-.122-1.284.98.122.122M230.883,24.8l.726-.538.684-.624.854-.063a2.871,2.871,0,0,1,2.085.672l-.92-.119a7.35,7.35,0,0,0-1.738.245l-1.691.427m1.392-19.982-.167-.1a20.788,20.788,0,0,0-1.592,1.652l.06.122c.122-.122,1.777-1.284,1.777-1.529l-.078-.143m-2.067,23.716h-.06c0,.245.55.43.735.553l.49.55a1.246,1.246,0,0,0-.75-1.033l-.415-.069m.43-16.715.182-.588a.609.609,0,0,1,.553-.269l.245.063a2.026,2.026,0,0,0-.49,1.222,1.278,1.278,0,0,0-.98.675.7.7,0,0,1-.185-.49.473.473,0,0,1,.245-.4l.43-.215m-.675,6.735.063-.122.3.06a.683.683,0,0,0,.612-.732c.063-.122.185-.122.37-.122h1.652v.487l-.98.063.917.182v.185h-2.939m.92-13.961-.185-.06-.917,1.039.182.122m.367,5.574-.093.281-.275.146c-.182,0-.364-.245-.364-.427a.41.41,0,0,1,.364-.43l.275.122.093.308m.185,18.674-.122-.379a1.209,1.209,0,0,0-.98-.723h-.182l.55.457.735.645m.92-28.1-.048-.146-.137-.1a28.9,28.9,0,0,0-2.2,3.551l.122.06,1.156-1.682,1.111-1.685m-3.124,18,.063-.182a3.274,3.274,0,0,0,1.407-.92H232.9l-.122.49-1.039.122,1.039.122-.119.367h-4.349m.675-16.41-.122-.122-.675,1.287.245.122m2.279,27.429.845-.119a3.4,3.4,0,0,0-1.717-.43l-.977.063c.06.672-.612,1.1-1.105,1.407l1.924-.636,1.03-.284M228.924,24l-.917.125.612.06-.553.245a2.88,2.88,0,0,0-.43-.735h2.022l-.735.3m-1.47-19.591V4.349l.675-1.532c0-.182-.185-.242-.308-.242-.185,0-.367.977-.367,1.1l-.185.675.185.063M227.087,21v-.427c.06-.185.122-.308.367-.308l.122.063c.122-.43.612-.185.675-.37H232.6l-.122.308-1.1.185,1.042.122L232.17,21h-5.084m-.063,4.958h-.06a1,1,0,0,0,.122-.612l-.063-.367.43-.06a7.33,7.33,0,0,0,5.815-7.04c0-1.287-.854-4.654-2.572-4.654l-.367.122a1.18,1.18,0,0,1,1.105-.86c0-.732.122-1.284.98-1.589l-.063.49c0,2.2,1.837,3.184,1.837,6.491a8.094,8.094,0,0,1-6.735,8.02l-.43.06m5.084-4.836-.245.427-1.165.122.983.122-.308.43h-4.409l-.063-.185c0-.122.245-.245.245-.55v-.367h4.961m-4.839,8.342-.188-.272-.3-.111a2.774,2.774,0,0,1,.49,1.837,1.809,1.809,0,0,0,.122-.795l-.122-.66m-.367-4.791-.182-.185.182-.55.245-.427.308.3a1.234,1.234,0,0,1,.367.672l-.367.063-.553.122m-.182-21.921h-.245L226.352,4.1l.185.06m.242,21.186-.191.544a.579.579,0,0,1-.418.314c-.122,0-.122-.122-.185-.182a1.355,1.355,0,0,0,.308-.735,1.581,1.581,0,0,0-.245-.612h.182a.5.5,0,0,1,.412.221l.137.451M225.862,0l-.191.084-.054.224.122,3.919h.245l.063-3.859-.024-.251m-.03,13.065.054.108c0,.122-.063.185-.308.185a.162.162,0,0,1-.182-.185c0-.122.122-.122.245-.122l.191.015m-.117,16.4-.137-.43a2.173,2.173,0,0,0-.182.86,8.317,8.317,0,0,0,.182,1.284,7.957,7.957,0,0,0,.185-1.284l-.048-.43m.206-15.989.146.191c-.06.185-.182.185-.49.185-.367,0-.427-.122-.367-.245.063-.185.185-.185.43-.185l.281.054m-.29,12.246-.2.221-.224.093-.245-.122a.92.92,0,0,0,.245-.675l-.06-.427c0-.122.122-.185.245-.185.245,0,.427.367.427.553l-.191.544m-.848-11.565.173-.158a3.608,3.608,0,0,1,.989-.024c.185,0,.43.06.49.182,0,.245-.06.245-.245.245a4.137,4.137,0,0,1-1.2-.078l-.2-.167m0-11.511H224.7l.248,1.407.182-.06m.612,10.532.857-.06a.453.453,0,0,1,.367.367.324.324,0,0,1-.367.364h-1.652c-.185,0-.308,0-.308-.3,0-.245.122-.427.367-.427l.735.06M225,24.678l-.675-.122h.92m-1.165,5.574.122.795v-.063a2.509,2.509,0,0,1,.43-1.774c-.215,0-.352.167-.439.382l-.113.66m.242-14.477.493-.221a10.134,10.134,0,0,0,1.959,0,1.014,1.014,0,0,1,.675.43,1.531,1.531,0,0,1,.182.8l-.182.98a4.68,4.68,0,0,1-.917,1.222c-.49.612-.49,1.777-.857,2.085a1.4,1.4,0,0,1-.185-.675c0-1.225.92-1.837.92-2.631,0-.122,0-.43-.185-.43a.162.162,0,0,0-.182.185l.06.427c0,.795-1.039,1.714-.735,3.124a1.153,1.153,0,0,1-.427-.675c-.185-.49-.125-1.165-.37-1.532a3.5,3.5,0,0,1-.917-1.834,1.421,1.421,0,0,1,.3-.944l.364-.308m-.218-.057-.4.329a1.707,1.707,0,0,0-.3,1.1c0,1.222.917,1.467,1.1,2.324.122.553.245,1.473.857,1.655l.245.3c.735-.487.675-1.592,1.47-2.449l.367-.55a2.486,2.486,0,0,0,.367-1.529,1.665,1.665,0,0,0-.367-1.165,1.484,1.484,0,0,0-.553-.245.478.478,0,0,0,.185-.427c0-.245-.245-.367-.43-.43l.063-.245c0-.182-.3-.3-.49-.3l.122-.185a.263.263,0,0,0-.245-.245l.063-.182a.412.412,0,0,0-.43-.37c-.245,0-.427.185-.3.553-.122,0-.185.122-.185.245l.063.185c-.185.06-.367.06-.43.245v.06l.063.245c-.308.063-.43.185-.43.49a.372.372,0,0,0,.182.367l-.588.224m-.152-12.178-.2-.582-.224-.26c-.122,0-.182.122-.182.242l.672,1.595.122-.063-.191-.932m-1.4-.111-.122.122.553,1.287.182-.122m.03,5.714.818-.227a8.687,8.687,0,0,1,1.723-.158,15.622,15.622,0,0,1,1.714,0,6.87,6.87,0,0,1,2.145.735.751.751,0,0,0-.308.612l.063.3a5.206,5.206,0,0,0-1.9-.55l-1.714-.185a6.456,6.456,0,0,0-3.062.735l.063-.3a.751.751,0,0,0-.308-.612l.765-.349m-.335,13.635-.43-.245h2.694a.518.518,0,0,0,.43.122c.49,0,.06-.55.857-.427,0-.983.672-.185.609-.983h4.167l-.37.367L229.6,22.9l.977.185-.672.43h-2.449v-.063l-.43-.3-.55,1.222c-.794.063-1.777,0-2.572,0l-.49-.182.672-.06-1.222-.185m-.43-12.673-.113.281-.254.146a.4.4,0,0,1-.367-.427c0-.245.122-.43.367-.43l.254.122.113.308M221.146,7.9,222,6.8a5.2,5.2,0,0,1,3.737-1.652,5.359,5.359,0,0,1,1.714.3,5.853,5.853,0,0,1,2.876,2.694,21.194,21.194,0,0,1-2.876.367H225.74a16.786,16.786,0,0,1-3.471-.311l-1.123-.3m.553,21.4.553-.457h-.185a1.3,1.3,0,0,0-1.1,1.1l.735-.645m-.43-6.52-.236-.158-.191-.209h3.489c.063.122.308.367.308.553a.534.534,0,0,0,.308.553h-2.817l-.615-.43.86-.122-1.105-.185m-.55-18.244-.185.06.92,1.1.182-.122m-.3,6.246.514.215a.467.467,0,0,1,.284.4.759.759,0,0,1-.245.49,1.288,1.288,0,0,0-.983-.675,2.006,2.006,0,0,0-.487-1.222l.242-.063a.605.605,0,0,1,.648.544l.027.314m0,16.715h-.063a1.254,1.254,0,0,0-1.222,1.1c.182-.182.3-.427.55-.55l.645-.379.09-.173M221.316,3.3,220.6,2.124l-.43-.529a.326.326,0,0,0-.185.245c0,.182,2.082,3.062,2.267,3.366l.123-.06L221.316,3.3M223.6,21.126l.122.245v.122l-.122.06.675.675h-3.551l-.367-.43.98-.122-1.162-.122c-.063-.182-.185-.245-.185-.427H223.6m-1.774,11.3,1.9.636c-.487-.3-1.162-.735-1.1-1.407l-.983-.063a3.223,3.223,0,0,0-1.711.43l.851.119,1.045.284m1.484-11.945.23.52h-3.674l-.245-.427.917-.122-.977-.185-.122-.308h3.551m-3.737-3.793.308-.75c.385-.851.995-1.885,1.774-1.885.3,0,.49.245.8.367l-.122-.672a.959.959,0,0,0,.427-.8l-.122-.308a6.209,6.209,0,0,1,3.429-.977l1.714.182a7.532,7.532,0,0,1,2.264.735l-.119.367a.959.959,0,0,0,.427.8l-.063.672c.245-.122.43-.367.735-.367,1.287,0,2.082,2.634,2.2,3.614l-.122.06a.409.409,0,0,1-.364-.245v.245l-.612.063-.367-.063-.185.245h-.122a.559.559,0,0,0-.49.245l.06.122a.533.533,0,0,1-.367.427l-.3-.06-.735.672a4.5,4.5,0,0,1-1.039.612c-.122.063-.122.185-.185.367-.245.063-.49.063-.612.248-.367-.063-.49.182-.675.49a2.225,2.225,0,0,1,.185.917c0,.182-.245.245-.245.55V22.6l-.367.161a.529.529,0,0,0-.182.391c-.49,0-.367.182-.553.427l-.06.063a.9.9,0,0,1-.43-.185.559.559,0,0,1-.245-.49c0-.367-.675-1.165-.98-1.41l.06-.182c0-.367-.609-1.162-.795-1.47v-.245c0-.43-.3-.92-.3-1.41,0-.122.182-.182.245-.242-.185-.245-.185-.92-.367-.92s-.185.308-.245.367c0,.245-.367.308-.553.308a1.057,1.057,0,0,1-.92-.553c.245,0,.675,0,.675-.3a.164.164,0,0,0-.185-.185l-.367.122a.518.518,0,0,1-.3-.182c-.427-.43-.55-.185-.857-.367l-.06.06h-.185l-.49-.182m0,.367v-.122l.308.122M222.8,18.8l.185.857V19.9h-3.614l-.122-.43,1.042-.182-1.1-.122-.063-.367m.122-14.083-.06.063-.122.182c0,.245,1.652,1.407,1.774,1.529l.122-.122-.812-.848-.532-.535-.37-.269m-.182,13.348v-.3h1.956v-.122h-1.956l.06-.308,1.1-.182-1.1-.063.063-.367H220.6l.245.245h-.122c.245.612.55,1.042,1.225,1.042a.955.955,0,0,0,.735-.367l.122.3-.122.3.063.367h-3.614l-.06-.3.98-.185-.98-.06m1.162-10.9.122-.122-1.284-.98-.122.122m.55,21.431h-.427c-.43,0-.86.735-.86,1.1l.323-.361.965-.741m-.367-14.143.284-.618a3.471,3.471,0,0,0,.206-1.953,1.455,1.455,0,0,1,.98,1.589,1.315,1.315,0,0,1,1.162.86l-.427-.122c-1.715,0-2.572,3.366-2.572,4.654a7.34,7.34,0,0,0,6.186,7.1l.122.367a1.755,1.755,0,0,1-.185.612,8.227,8.227,0,0,1-7.1-8.08,7.1,7.1,0,0,1,.747-3.351l.6-1.057m-.5,9.522-.358-.272-.8-.373.612-.122.675.122a4.324,4.324,0,0,0,.8,1.042l-.675-.063L218.628,23m.131,4.253-.185-.06c-.612,0-.98.609-1.1,1.162a2.694,2.694,0,0,1,.714-.666l.574-.436M217.618,6.891l.209.23.134.29a1.352,1.352,0,0,0-.732-1.042l-.185.185.574.338M216.8,24.248l.454-.338a3.431,3.431,0,0,1,1.628-.335l.857.063a8.55,8.55,0,0,0,1.407,1.162,16.134,16.134,0,0,0-3.429-.672l-.917.119M217.251,7.3l.209.245.134.3a1.562,1.562,0,0,0-.732-1.105l-.185.245.573.317m-.021.911-.063-.311a1.8,1.8,0,0,0-.672-.732l-.185.245.573.308.346.49m.487,16.1,2.067.338,1.974.52a11.248,11.248,0,0,0,3.124,1.1l.49.182.367-.122.43.185c.245,0,.367-.185.55-.245h.367l.367-.063a16.135,16.135,0,0,0,2.876-1.039,19.9,19.9,0,0,1,3.982-.857,2.45,2.45,0,0,1,1.47.427,2.449,2.449,0,0,0-2.327-1.344,2.327,2.327,0,0,1,1.532-.983,1.378,1.378,0,0,0-1.042-.367h-.49a8.133,8.133,0,0,0,1.1-4.161,8.262,8.262,0,0,0-1.41-4.594,4,4,0,0,1-.487-1.9l.119-.98-.854.367a.914.914,0,0,0-.553-.122c-.3,0-.612.06-.735.367-.308-.735-2.509-1.287-3.184-1.41a16.4,16.4,0,0,0-1.714,0,6.068,6.068,0,0,0-3.734.92.807.807,0,0,0-.615.49.869.869,0,0,0-.735-.367.91.91,0,0,0-.55.122l-.857-.367.122.98a3.964,3.964,0,0,1-.49,1.9,8.269,8.269,0,0,0-1.41,4.594,8.134,8.134,0,0,0,1.1,4.161h-.49a1.507,1.507,0,0,0-1.1.367,2.31,2.31,0,0,1,1.589.983,2.6,2.6,0,0,0-2.387,1.344l.765-.3.765-.122M216.546,8.124l.233.224.143.287a1.6,1.6,0,0,0-.795-1.1l-.185.308.6.284m-.343.427.215.224.137.287a1.407,1.407,0,0,0-.735-1.1l-.245.3.627.284m.048,15.577-.439.206-.481.158.245.245.382-.281m.23-14.964-.063-.343a1.708,1.708,0,0,0-.672-.759l-.245.308a1.387,1.387,0,0,1,.842.508l.137.287m-1.042.367.245-.182.122.182m-.1,17.01.326-.134.69-.1.43-.308-.43-.06a1.551,1.551,0,0,0-1.287.8l.272-.2m-.149-2.437.553-.612a2.383,2.383,0,0,1-.8.367l.245.245M214.9,22.6l-.245-.245.735-.245m.185,1.347-.415.251-.5.116.308.245m.245-.917-.406.227-.451.14.3.245m.789-13.417.317.191v.182l-.257.137-.3.048a1.046,1.046,0,0,1-1.039-1.1,1.469,1.469,0,0,1,.182-.738,1.411,1.411,0,0,1,.735.37l-.43.55.185.308h.245l.358.054m-1.765,12.987h.182c.857,0,2.327-1.1,2.145-2.082h.06V10.717a2.017,2.017,0,0,0-1.47-1.9,21.538,21.538,0,0,1,2.2-2.452l.367-.122a1.512,1.512,0,0,1,.98.49c1.9,1.84,5.815,2.145,8.268,2.145l1.039-.06c1.959-.122,5.021-.612,6.55-2.085a1.381,1.381,0,0,1,.92-.49l.367.122a29.3,29.3,0,0,1,2.267,2.452,2.074,2.074,0,0,0-1.532,1.9v8.817l.06,1.837a2.694,2.694,0,0,0,2.207,1.959l-1.777,2.264a3.226,3.226,0,0,0-1.284-.245c-2.452,0-4.779,2.39-7.778,2.757l-1.592.06c-3.856,0-6.123-2.754-8.94-2.754l-1.1.122-2.142-2.2M215.268,21l.26.03.17.215c-.367.735-1.042.795-1.774.735a3.865,3.865,0,0,0,.672.795,1.74,1.74,0,0,1-.735.245.436.436,0,0,1-.49-.427c0-.55.654-1.171,1.29-1.446l.606-.146m-2.387,7.1.364-.565a5.934,5.934,0,0,1,4.289-1.947,4.352,4.352,0,0,1,2.449.98,11.8,11.8,0,0,0,6.431,1.9h1.039a11.674,11.674,0,0,0,4.839-2.022,4.288,4.288,0,0,1,2.264-.857c1.529,0,3.737.735,3.982,2.512a6.744,6.744,0,0,0-1.1-.185,1.665,1.665,0,0,0-1.287.553,3.562,3.562,0,0,0-2.694-1.592,4.42,4.42,0,0,1,3,4.041l-.55-.063-1.47.063a2.192,2.192,0,0,1-1.1-.185c-.43-1.592-1.284-2.631-3-2.631h-.06a4.01,4.01,0,0,1,2.817,3.674,5.848,5.848,0,0,0-3-.857,3.572,3.572,0,0,0-1.407.245v-.245a3.132,3.132,0,0,0-.857-2.082,3.3,3.3,0,0,1,.612,1.837,1.954,1.954,0,0,1-.98,1.714c-.735.55-1.225.55-1.714,1.407-.735-1.407-2.694-1.1-2.694-3.121a3.809,3.809,0,0,1,.55-1.837,3.49,3.49,0,0,0-.794,2.327,3.764,3.764,0,0,0-1.41-.245,5.686,5.686,0,0,0-3,.857,4.1,4.1,0,0,1,2.817-3.674h-.122c-1.592,0-2.512,1.039-2.879,2.631a2.557,2.557,0,0,1-1.162.185l-1.41-.063-.612.063a4.427,4.427,0,0,1,3-4.041,3.673,3.673,0,0,0-2.694,1.592,1.668,1.668,0,0,0-1.284-.553l-1.165.185m.185-5.511-.684-.484-.726-.436h.427a2.506,2.506,0,0,1,1.165.245l-.182.675m-.051-1.3-.4-.5a4.879,4.879,0,0,0-1.019-.78h.308a2.492,2.492,0,0,1,1.655.612l.245.672-1.165-.977a8.367,8.367,0,0,1,.98,1.1l-.3.43-.3-.562m.078,3.892-.815-.2-.806-.069a3.109,3.109,0,0,1,1.655-.367,6.506,6.506,0,0,1,1.529.182l.735.857-.451.161-.406.206-.666-.445-.774-.326m.783-13.065,1.039,1.32.845,1.311V15.92a26.037,26.037,0,0,0-2.694-4.038,23.31,23.31,0,0,1,2.694,4.591v2.019L215,16.213a25.194,25.194,0,0,0-3.653-5.986,5,5,0,0,1,1.326.762l1.2,1.138m-.4,5.854.445.7.854,2.082-.3.122a11.511,11.511,0,0,0-1.039-1.9A15.649,15.649,0,0,1,214.291,21l-.367.182a11.885,11.885,0,0,0-2.575-4.713,3.333,3.333,0,0,1,1.541.848l.588.66m.09-2.942.6.881a21.193,21.193,0,0,1,1.592,3.369v1.042l-1.311-2.649L213,15.126c.92,1.837,1.959,3.734,2.694,5.633a.882.882,0,0,0-.675-.06,37.013,37.013,0,0,0-3.916-7.778,5.141,5.141,0,0,1,1.759,1.269l.7.848m1.395,16.066-1.078.284-1.126.146c-1.1,0-3.429-.308-3.429-1.777a1.639,1.639,0,0,1,.308-.917l.06.3c.063-1.407.735-1.47,1.774-1.837a2.176,2.176,0,0,0-.854,1.532c0,1.225,1.407,2.082,2.509,2.082l.448-.051.433-.134.833-.367.122.735.06.185v-.185h.185l.857.122a8.662,8.662,0,0,1-3.859,1.225l-2.142-.182-.46.045-.46.137V32.33c.185-.49.8-.735,1.228-.917a8.986,8.986,0,0,0,2.509.427,3.393,3.393,0,0,0,1.619-.385l.463-.349M208.3,24.418l.3.015-.427-.367-.122.245m.487-1.532-.245-.182-.3.8m.55,1.407-.487-.43-.122.185.281.191m.084.176-.427-.245-.06.122c.06.122.3.122.427.122h.06m-.732-2.512-.194.523-.236.52.675-.92m-.735-1.774.108-.221.015-.269-.063-.367.185.06.367-.06a1.4,1.4,0,0,1-.37.741l-.242.116m.122,5.2.559.538a1.8,1.8,0,0,0,.786.26.41.41,0,0,1-.245.367h-.06a1.431,1.431,0,0,1-1.162-1.1l.122-.063m.122-17.694V8.145l-.49.122m0,10.1.075-.245-.015-.242H207l.308-.122.182.487c0,.122,0,.245-.122.308l-.55-.185m.55,6.246.245.281c.224.385.442,1.007,1.039,1.007a.694.694,0,0,0,.49-.185l.185-.122a.637.637,0,0,1,.245.49.52.52,0,0,1-.43.49l-.245.063a2.347,2.347,0,0,1-2.079-1.47l.206-.367.344-.185M206.7,3.674l.06-.612-.06-.427a.994.994,0,0,1,.612.98v.3l-.612-.245m0,4.167.114-.275.254-.093.182.06m-.735,23.083.7-.275.7-.09a3.936,3.936,0,0,1,1.222.182v.06a1.577,1.577,0,0,0,.553.553l-.553-.063h-.122a3.555,3.555,0,0,0-1.589.367l-.92-.735m.574-12.865-.206.069a.769.769,0,0,0-.43-.612.653.653,0,0,0,.37-.427l.427.857-.161.114m.039,8.211-.293.048-.2.137c-.122-.122-.185-.185-.185-.308s.37-.245.37-.245l.3.367m0-5.571-.051.161a.578.578,0,0,1-.439.206.387.387,0,0,1-.43-.427,1.36,1.36,0,0,1,.308-.675.989.989,0,0,1,.559.481l.054.254m-.66-13.4.263-.137L207,6.8a.691.691,0,0,1,.49.182c-.06-.245-.367-.245-.612-.245a.918.918,0,0,0-.857.675l.442-.421m.714,1.078.376.078-.122-.367.122-.367-.185.063-.3-.063a.527.527,0,0,0-.553.43.812.812,0,0,1-.49.182l.765.039.391.006m-.911,5.711.137.167.045.263h-.06l-.553-.122-.06-.308.3-.06m.376,9.4.606-.887-.245-.122a6.909,6.909,0,0,1-1.105,1.714l.744-.7m-.254-9.519h-.122l-.367.122-.06-.185.367-.245m-.245.92.358.2.131.293c0,.182-.122.245-.185.245-.245,0-.367-.308-.49-.43l.185-.3m-.024,3.4.391-.152a.527.527,0,1,1,0,1.039.549.549,0,0,1-.553-.55l.161-.338m.024,1.508.245-.376h.122a1.084,1.084,0,0,0,.612-.245,1.2,1.2,0,0,1,.8.98c0,.185-.122.245-.308.245a.855.855,0,0,1-.8-.735v.367c-.122.245-.3.612-.672.612-.308,0-.43-.06-.43-.427v-.185l.242-.087.188-.149m-.245-5.639-.245-.063.367-.553.182.248m.308-8.82-.92.983a.224.224,0,0,1-.242-.245c0-.215.2-.4.442-.529l.72-.209m-.185,14.391-.29.338-.382.152a.4.4,0,0,1-.367-.367.884.884,0,0,1,.3-.675l.185-.119.161.427.388.245m-.3-4.713-.146.275-.284.093a.351.351,0,0,1-.364-.367.392.392,0,0,1,.364-.367l.284.114.146.254m.06,3.366-.221.26-.084.352-.367.122a.352.352,0,0,1-.367-.367,1.184,1.184,0,0,1,.185-.612l.4.236.451.009m1.105,4.223.517.224a8.72,8.72,0,0,0,1.807.266c.43.063,1.105.245,1.105.735,0,1.042-1.042,1.105-1.105,2.512-.06.245-.367.367-.672.367-.427,0-.735-.553-.857-.92a1.421,1.421,0,0,0,.367-.672l.245-.245h.367l-.857-.122a28.081,28.081,0,0,0-2.754.612c-.245,0-.308-.122-.308-.3l1.162-1.135.983-1.317m-2.2-6.491-.185-.119c0-.245.245-.43.308-.553l.367.185a.863.863,0,0,1-.32.436l-.17.051M204.76,4.2l.4-.2.373-.075-.98,1.105c-.182,0-.245-.063-.245-.185l.131-.349.32-.293M204.6,9.869l-.167-.069c-.122,0-.122.122-.122.182,0,.122,0,.185.122.185s.245-.063.245-.185l-.078-.114m.078,4.217v.182c-.06.185-.182.185-.367.185-.122,0-.367,0-.367-.185s.308-.245.43-.245l.3.063m.152,1.025.215-.167.06.251.125.06-.072-.114-.051-.26v-.06l.119-.245h.308l.122.182-.084.343-.093.137.143-.075.093-.284.367.122a.289.289,0,0,0,.308-.3.781.781,0,0,0-.245-.43h.3v.308a4.109,4.109,0,0,1-.612,1.959,3.057,3.057,0,0,1-1.9-2.145c.063.185.367.185.553.185a.334.334,0,0,0-.185.3.393.393,0,0,0,.308.3l.212-.075m-.137,15.377.394-.248.326-.3a.463.463,0,0,1,.367.427c0,.612-1.1.612-1.592.612h-.245l-.06-.182.809-.314M204.8,3.674l-.352.376-.26.421c-.06.122-.06.245-.245.245l-.122-.245a.689.689,0,0,1,.352-.535l.627-.263m-.122,10.167v.122l-.367-.063c-.122,0-.427.122-.427.367l-.122-.735.917.308m-.421-1.219-.8-.681a1.693,1.693,0,0,0,.8-.427.572.572,0,0,0,.55.3c.185,0,.308-.245.308-.427a1.116,1.116,0,0,1,.795.672,6.359,6.359,0,0,1-.795,1.1l-.851-.544m.681,3.692.448.3.517.224a3.879,3.879,0,0,0,.92-2.387,1.6,1.6,0,0,1,.245.917c0,.857-.43,1.9-1.41,1.9a1.4,1.4,0,0,1-.735-.367c-1.1-.8-1.47-2.39-1.592-3.674l.367.3a3.673,3.673,0,0,0,.86,2.416l.379.364m-.108-7.464.266.23.254.1a.494.494,0,0,0,.49-.245L205.656,9a.449.449,0,0,1-.49-.49l.122-.795c0-.308-.245-.615-.245-.86l.3-.612c.185-.3.675-.367.92-.55a4.526,4.526,0,0,0,1.042-.857h.49l.2.346.107.388a.458.458,0,0,0-.3.49.819.819,0,0,0,.182.49v.122a3.945,3.945,0,0,0,.917,1.9c-.122.182-.427.182-.49.364L208.227,9c-.3,0-.06-.182-.245-.245l-.06.122c0,.245.3.182.487.122l-.06.367a1.12,1.12,0,0,1-.917.308c.06.245.427.427.612.55a.286.286,0,0,0-.185.308c0,.245.245.427.245.612,0,.55-1.655.55-1.959.55l-.308-.06v-.122c0-.612-.245-1.225-.977-1.225h-.185a1.236,1.236,0,0,1,.98,1.039h-.122c-.245.063-.427-.367-.427-.672-.245.182-.063.98-.367.98s-.553-.612-.553-.857a.587.587,0,0,0-.06.55l-.553.367-.06-.245a1.231,1.231,0,0,1,.98-1.162A1.381,1.381,0,0,1,203.266,9c0-.427.37-.49.675-.49l.529.1.358.233m-1.867,3.581.367-.43a13.831,13.831,0,0,0,1.714,1.41.821.821,0,0,0-.367.308l-.926-.576-.789-.711m.3,8.268-.078.281c-.137.254-.412.436-.412.759l-.06-.185.057-.245.254-.424.057-.248a1.294,1.294,0,0,0-.245-.675l.329.278.1.46m.346,8.985.52-.215a1.6,1.6,0,0,0,.729-.75h.122c.3,0,.609.06.609.427,0,.8-1.712,1.47-2.387,1.47-.367,0-.612-.122-.612-.487l.122-.43.367.06.529-.075m-.974-26.192.5-.553-.06.367a1.929,1.929,0,0,0,.367,1.042c0,.367-.43.49-.675.553a.771.771,0,0,1-.367-.675l.063-.373.167-.361m-.108,8.572-.185-.2a1.945,1.945,0,0,1-.182-.905V9.37l.206,1.347.161,1.347M201.8,7.533l.2-.248c.571-.481,1.762-.32,2.673-1.284-.093,1.01-1.183,1.057-2.085,1.249l-.792.284m0,.98.7-.412a4.865,4.865,0,0,0,2.24-1.12c-.048.965-1.162,1.069-2.1,1.266l-.836.266m.672-1.921-.55.084h-.245c.795-.43,1.589-.612,2.387-.98a3.728,3.728,0,0,1-1,.675l-.588.221m-.857-.529.338-.287a6.164,6.164,0,0,1,1.377-.508l-.789.511-.926.284m.063,11.084.06.49-.122.977a1.678,1.678,0,0,0,.55,1.287c-.609-.245-.732-.675-.732-1.347l.245-1.407m.009-5.1.3.732a2.761,2.761,0,0,1,.427,1.3l-.06.245c-.185-1.1-1.162-1.84-1.162-3.184a4.585,4.585,0,0,1,.3-1.532,5.329,5.329,0,0,1,.063,1.41l.131,1.027m-.4,19.277-.161-.529-.06.245a1.173,1.173,0,0,0,.427.857l.185-.185-.391-.388m.786-16.458.2.493.078.5v.122l-.5-1.03c-.63-1.048-1.526-2.139-1.526-3.193a3.118,3.118,0,0,1,.37-1.655l-.122.92a5.235,5.235,0,0,0,.887,2.808l.609,1.039m-.335,17.7.7-.122.7-.3a2.5,2.5,0,0,1-1.162.245,1.1,1.1,0,0,1-1.225-1.225,1.008,1.008,0,0,1,.553-.917,1.707,1.707,0,0,0,1.712,1.407,1.74,1.74,0,0,0,.92-.245,1.392,1.392,0,0,0,1.1.98,2.863,2.863,0,0,1-1.714.55l-1.225-.06a2.214,2.214,0,0,0-1.592.55,1.1,1.1,0,0,1-.245-.55.863.863,0,0,1,.49-.735.832.832,0,0,0,.421.329l.559.1M200.453,8.023l.3.084L201,8.33l.122.49V8.94l-.735-.06a.905.905,0,0,1-.49-.735l.553-.122m-.43,11.634v.367c0,.612.612.308.675.857-.308-.3-.86-.182-.86-.795l.045-.239.14-.191m.048-6.335.257.52c.43.735,1.532,1.9,1.532,2.754a11.087,11.087,0,0,0-.917-1.41c-.675-.854-1.287-1.344-1.287-2.631a3.465,3.465,0,0,1,.182-1.1l.084,1.263.149.606m-.17-3.584-.308-.06A1.629,1.629,0,0,1,200.942,9a1.036,1.036,0,0,1-.69.681l-.352.054m-.308,7.348-.23-.108-.137-.2v.06c0,.245.122.43.308.43.122,0,.3-.185.427-.308l-.367.122M200.2,8.94l-.329.087-.284.221a1.141,1.141,0,0,1-.49-.427.81.81,0,0,1,.553-.367l.251.29.3.2m-1.589,6.368-.263-.1-.167-.2v.06c0,.245.063.49.308.49a.694.694,0,0,0,.49-.3l-.367.06m.427,12.8.526.084a2.387,2.387,0,0,1,1.189.956,3.2,3.2,0,0,0-1.1-.182c-.735,0-1.714.49-1.714,1.347v.122a1.583,1.583,0,0,1,.735-.92c.185.063.672.245.672.43,0,.367-.917.55-.917,1.225,0,.857,1.284.917,1.959.857-.185.182-.367.367-.367.55h-.245a2.4,2.4,0,0,1-2.634-2.324,2.235,2.235,0,0,1,1.52-2.1l.379-.048m-.164-15.672-.263.3-.735.436-1.717-.735h.063c.612,0,2.022-.367,2.267-.98l.49-.122c-.122.245,0,.43,0,.735l-.1.37m7.267,8.142h.06l.308.427-.553.122.49.06-.06.185a1.791,1.791,0,0,1-.8,0,.884.884,0,0,0,.675.3l-.063.063-.427.06-.43-.06a1.28,1.28,0,0,0,.735.3l-.06.063h-.245a1.715,1.715,0,0,1-.553,0l.612.3-.122.122h-.182l-.49-.06a1.558,1.558,0,0,0,.55.3l-.245.245a1.218,1.218,0,0,1-.672,0l.49.248-.245.245h-.612c.063.122.245.182.367.245-.182.122-.795.609-1.039.609l-.493-.06-.49-1.039-.122-.185v.185l-.367-.063a.816.816,0,0,0-.487.185l.182-.063.735.122.06.245a3.678,3.678,0,0,0-.854.122h.182l.735.063.06.182-.794.122h.182l.735.122v.122a1.225,1.225,0,0,0-.672.182l.3-.06.367.06.063.185-.675.182.308-.06.49.06c.122.367.612.8.612,1.225l-.245.49a6.511,6.511,0,0,0,1.1,2.022,1.347,1.347,0,0,1-1.1.795c-.43,0-.553-.245-.612-.612a1.118,1.118,0,0,0,.427-.367l-.49.245-.06-.182.49-.43-.553.245-.06-.245a.813.813,0,0,0,.427-.367l-.49.245-.06-.122.427-.427a.789.789,0,0,1-.612.245c-.122-.245-.427-.43-.609-.672a.85.85,0,0,0,.487-.37,1.008,1.008,0,0,1-.672.248c-.735,0-.427-.8-.672-1.287-.122-.367-1.105-1.652-1.473-1.652-.3,0-.364-.063-.487-.308v-.245a2.784,2.784,0,0,0-.49-1.41,3,3,0,0,1,.245,1.473v.122l-.308.06a.846.846,0,0,1-.427-.735v.185a.964.964,0,0,0,.182.55l-.182.185a1.872,1.872,0,0,1-.43-.553l.245.675-.367-.49.245.55-.06.063-.308-.49a.963.963,0,0,0,.185.55h-.063l-.308-.427.185.487-.122.122-.308-.55.185.612-.553.122c-.427-.245-.917-.612-.917-1.1l.122-.43.98-.786.8-.929h.182c.612,0,1.287-.732,1.652-1.1l.553.612c.182.06.675.182.675.364s-.8.245-.8.857c0,.367.49.675.857.735a.714.714,0,0,1-.367-.612c0-.49,1.165-.06,1.165-.795,0-.55-.857-.795-.857-1.225a1.315,1.315,0,0,1,.612-.92c0,1.165,1.529.983,1.529,1.6,0,.3-.55.609-.55,1.1,0,.98,1.774.8,1.774,1.9l-.122.427a.777.777,0,0,0,.308-.672c0-.92-1.105-.857-1.105-1.532,0-.367.8-.672.8-1.344,0-1.105-1.47-.8-1.47-1.9,0-1.039.795-1.162.795-2.387a3.559,3.559,0,0,0-.367-1.592c.185,0,.245-.245.245-.367a2.248,2.248,0,0,0-.427-1.042,3.138,3.138,0,0,1,.427-.92,1.5,1.5,0,0,0,.367.675v.367a4.976,4.976,0,0,0,1.042,3.184,1.25,1.25,0,0,0-.367.857,1.285,1.285,0,0,0,.43.857l-.063.49a.853.853,0,0,0,.612.735l-.06.245a.591.591,0,0,0,.457.568l.827.108-.72-.179c-.245-.1-.442-.251-.442-.5l.06-.367c-.182,0-.612-.308-.612-.553a.935.935,0,0,1,.245-.612.845.845,0,0,1-.427-.732,1.133,1.133,0,0,1,.3-.735l.122.122-.06.612c0,.3.06.487.427.487a1.408,1.408,0,0,0-.367.735.556.556,0,0,0,.612.49l-.122.308a.563.563,0,0,0,.612.553l.3-.063.063.43m-11.326-8.695.612-.122a.836.836,0,0,0,.3.487l-.917-.364M194.7,27.677l-.063-.06-.06-.185h.182m-.245-5.2V20.636h.308v1.407m1.652-8.692-.436.314-.481.176a.414.414,0,0,1-.367-.553l-.185.063c-.367,0-.8-.185-.8-.553l.063-.367,2.2.92.642.221.645.269a1.515,1.515,0,0,0-.493.98,2.13,2.13,0,0,0,1.228,1.714c.06.672-.185,1.589.854,1.589h.245c-1.344-.427-.367-1.284-.977-1.9A1.084,1.084,0,0,1,197.573,15a2.721,2.721,0,0,1,.308-1.162c1.162.49,2.446,1.529,2.446,2.939a4.477,4.477,0,0,1-.857,2.264,3.568,3.568,0,0,0,.92-2.327,2.768,2.768,0,0,0-.43-1.532c.675.308,1.35.735,1.35,1.532a4.529,4.529,0,0,1-.185.98c-.427.857-2.509,3.429-3.489,3.429-.308,0-.37-.427-.37-.612l.063-.3a.6.6,0,0,0,.553-.248l.49.185a.715.715,0,0,0,.672-.553.7.7,0,0,1-.55.367.556.556,0,0,1-.43-.182,1.213,1.213,0,0,1-.735.367.6.6,0,0,1-.612-.553l.122-.367a.968.968,0,0,0,.735-.3.648.648,0,0,0,.553.3,1.012,1.012,0,0,0,.735-.49,1.174,1.174,0,0,1-.612.308.92.92,0,0,1-.553-.245l.122-.185a1.663,1.663,0,0,1-.98.49c-.367,0-.735-.182-.735-.612l.06-.367a1.4,1.4,0,0,0,.675.185.709.709,0,0,0,.8-.857V17.33c0,.367-.185.795-.615.795a1.372,1.372,0,0,1-.795-.364l.245-.245a1.079,1.079,0,0,1-.672.367,1.833,1.833,0,0,1-.612-.857,2.178,2.178,0,0,1,.245-.675l.367.063c0,.245.122.612.427.612a1.731,1.731,0,0,0,1.039-.43,1.989,1.989,0,0,1-.795.245c-.367,0-.43-.122-.367-.427V16.35c.367-.122.427-.553.98-.553H196.9c-.427,0-.367.493-1.039.493A.979.979,0,0,1,195,15.8c-.3-.06-.612-.245-.612-.49a1.145,1.145,0,0,1,.185-.487l.3.06a.923.923,0,0,0,.92.672,1.605,1.605,0,0,0,1.1-.55,1.768,1.768,0,0,1-1.1.3.663.663,0,0,1-.612-.427l.795-.3-.735.06c-.367,0-.795-.06-.795-.49a1.037,1.037,0,0,1,.182-.612H195a.489.489,0,0,0,.553.43.9.9,0,0,0,.526-.215l.391-.4m-1.837,10.1.43-.122a1.5,1.5,0,0,0,.795,1.284l-.735.063-.49-1.225m0,0,.122.636.308.588h-.553l-.23-.538-.137-.624m-.308,3.059v-.06h.245l-.245-.185h.367l-.176-.045-.128-.137h.367l-.308-.122.063-.063h.367l-.308-.122.122-.122.43.122-.3-.182.367-.063c.49,0,.735.49.795.98a1.807,1.807,0,0,1-.795.308l-.454-.108-.406-.2m-.182-4.164V20.577l.367.06v1.774m.128,4.54.547.116a1.727,1.727,0,0,0,.98-.37h.06l.063.063c0,.308-.857.55-1.1.55a1.754,1.754,0,0,1-.983-.364l.245.06-.3-.308.5.254m-.108-2.832.224.559-.43-.063a3.269,3.269,0,0,1-.245-1.1c.122.06.245,0,.367,0l.084.6m-.756-.6h.245l.122,1.1h-.367c-.122-.06-.122-.3-.122-.427l.122-.672m-.2-6.924-.108.188c0,.427.675.55.98.612,0-.185-.672-.367-.672-.612,0-.122.857-.308.98-.367h-.43l-.5.069-.251.111m-.167,5.574V20.392l.367.063v1.9m-.427-10.777.427.063.735-.185c.122.245.308.308.553.43a2.227,2.227,0,0,1,.857.427l1.9.857,1.837.675a.821.821,0,0,0,0,.55,4.84,4.84,0,0,0-1.407-.857l-4.9-1.959m.3,3.551-.4.1a.374.374,0,0,0-.215.329c0,.308.367.615.612.8,0-.182-.367-.49-.367-.735,0-.367.672-.43.857-.43l-.49-.06m-.406,15.568.329-.358.445-.821h.122c.245,0,.367.063.367.308,0,.367-.98,1.47-1.347,1.47-.182,0-.245-.185-.3-.367l.388-.23m-.511-8.895V20.087l.3.182v1.714m-.245-8.351-.173.134-.072.2c0,.367.43.672.675.795a1.558,1.558,0,0,1-.49-.795c0-.245.672-.367.854-.367l-.364-.063-.43.1m-.06-1.75-.254.054-.113.188c0,.43.672.675.98.735-.122-.122-.735-.55-.735-.735l.49-.122-.367-.119M191.513,21V19.657l.367.245v1.529M192,9.678l.457.1.46-.039.612.49a6.692,6.692,0,0,1-1.592.367.857.857,0,0,1-.857-.735l.92-.182m-.9,10.753-.143-.161V19.227l.245.245v1.165m.8,4.776.182-.245-1.287-.185-.857-.06.857.182m-.49-16.347.2.167L190.9,9l.553.06a.678.678,0,0,0,.43.553l-.983.063c-.612,0-1.344-.063-1.344-.8V8.7l.854.06m.86,17.39.245-.245-.615-.063-1.407-.182,1.407.367m-.427.672.182-.182-1.344-.185m.672-10.592.373.161.544.021a1.469,1.469,0,0,0,.738-.182,1.143,1.143,0,0,0,.857.3l.122-.06c-.43,0-.98-.185-.98-.735a.744.744,0,0,1,.182-.55c-.182-.122-.49-.367-.49-.553,0-.427.612-.735.612-.98,0-.367-.857-.735-.857-1.407l.122-.49,2.631,1.039-.06.427a.762.762,0,0,0,.3.615l-.06.49a1,1,0,0,0,.308.795,1.156,1.156,0,0,0-.185.612c0,.43.43.672.8.795l.182.185a1.356,1.356,0,0,0-.3.675c0,.427.612,1.162,1.1,1.1l-.122.427a.757.757,0,0,0,.732.795l-.06.308a.817.817,0,0,0,.49.675v.06l.06.185-.98.122c-.487,0-1.1-.122-1.1-.738l.122-.49h-.49c-.493,0-.92-.06-.92-.612a1.439,1.439,0,0,1-.735.122c-.122,0-1.039-.245-1.039-.49s.672-.487.857-.55c.182.55.854.672,1.284.672v-.245h-.245c-.612,0-1.039-.122-.917-.795a.648.648,0,0,1-.553-.3,1.576,1.576,0,0,1-1.165.367l-.245-.063a.639.639,0,0,1-.245-.672l-.612.182a.79.79,0,0,1-.854-.98l.4-.078.4-.167m-.063-.06-.55.2-.55.108a.516.516,0,0,1-.553-.553v-.122h.122a5.648,5.648,0,0,0,1.347-.364l-.06.242.051.293.191.2M188.4,7.121l.352.29v.063c0,.49.367.735.857.735l.55-.063.122.43c-.732-.122-2.264-.43-2.264-1.473l.122-.367.26.385m.783,6.721.167.185a1.146,1.146,0,0,0,.687.182h.857l.37-.063.3.43-.06.609.06.493-.675-.063c-.367,0-1.1-.122-1.1-.612l.119-.245h-.06a5.832,5.832,0,0,1-1.225.245c-.3,0-.675,0-.675-.367l.063-.367,1.165-.427m-.92,4.223-.045.114-.14.069a.194.194,0,0,1-.182-.182.16.16,0,0,1,.182-.182l.14.045.045.137m0,8.51h-.245a1.728,1.728,0,0,1-.43.8l.451-.352.224-.445m.024-.818.039-.833h.06c.185.245,0,.917.553.917.49,0,.427-.857.427-1.162l.612-.43h.245l.672.063,1.287.3c.49.122.98.122,1.1.675a10.62,10.62,0,0,1-1.774,1.529l-.615.553h-.735l.675.182.122.245H190.9a1.458,1.458,0,0,1-.735,0,.946.946,0,0,0,.675.185h.245l.43.427a1.294,1.294,0,0,0-.245.675,1.348,1.348,0,0,1,.427-.553l.122.122a1.293,1.293,0,0,0-.245.675l.43-.49h.182a1.644,1.644,0,0,0-.3.672l.427-.49.98.367v.122l-.084.346c-.161.4-.529.878-.9.878a1.2,1.2,0,0,1-.49-.182l-.245.3h-.06c-.185-.609-.063-.977-.615-1.529a7.986,7.986,0,0,0-2.264-1.47c-.3-.122-1.165-.122-1.165-.49a7.95,7.95,0,0,1,.367-1.1.389.389,0,0,0,.329-.149l.125-.364m.275,5.3.777.257.762.1a1.694,1.694,0,0,0,.795-.185.977.977,0,0,0,.308-.49c.063.245.122.367.367.367.122,0,.308-.122.308-.182a1.018,1.018,0,0,0,.427,0v.06a.388.388,0,0,0,.43.43,1.715,1.715,0,0,0,1.284-.857l.43-.063.182.122s-.98,1.1-1.347,1.1a.411.411,0,0,1-.308-.245,1.121,1.121,0,0,0,.308.735,6.5,6.5,0,0,0-2.39-.55h-.182a4.923,4.923,0,0,0-2.449.672v-.122a1.139,1.139,0,0,1,.43-.735,3.579,3.579,0,0,0-1.473-.612l-.06-.609.657.439.744.37m6.744-20.281.245.06a3.056,3.056,0,0,0,2.142-.98,3.647,3.647,0,0,1-1.9.735,1.367,1.367,0,0,1-1.042-.55,4.082,4.082,0,0,0,1.347-.92,3.821,3.821,0,0,1-1.837.8c-.308,0-.735.06-.92-.308a9.259,9.259,0,0,0,1.6-.735,6.3,6.3,0,0,1-2.327.612c-.308,0-.735-.122-.735-.49a7.212,7.212,0,0,0,1.774-.735,7.749,7.749,0,0,1-2.2.553A.829.829,0,0,1,190.9,8.7a.959.959,0,0,1-.367-.735l.367-.122.738-.367-.738.245a3.461,3.461,0,0,1-1.1.182c-.245,0-.612-.06-.612-.367v-.06h.182a4.826,4.826,0,0,0,1.529-.43l.245-.185-.245.122a4.611,4.611,0,0,1-1.529.367,1.064,1.064,0,0,1-1.039-.795h.367a3.115,3.115,0,0,0,1.344-.245l-.854.06c-.735,0-2.449-.3-2.449-1.344l.09-.358.275-.317,1.852,1.171L190.9,6.553l3.184,1.592c1.41.553,4.716,1.41,5.574,2.572a1.343,1.343,0,0,0-.612.553l-.612.122c-.182.55-1.592.795-2.082.795a.512.512,0,0,1-.55-.55l.3-.245h.182c.98,0,1.9-.122,2.33-1.1a2.058,2.058,0,0,1-1.962.917l-.55-.06a1.991,1.991,0,0,1-1.162.49.714.714,0,0,1-.612-.245l.98-.612-.989.421a3.383,3.383,0,0,1-1.033.191.754.754,0,0,1-.795-.735,4.09,4.09,0,0,0,1.1-.43l.308.063.43-.063.466.343.514.209m-8.268,7.712-.185.185c-.182,0-.242-.122-.242-.185,0-.182.06-.245.242-.245l.116.054.069.191m.49-5.326.17.287a1.449,1.449,0,0,0,.932.388l.49-.063v.063l-.842.251-.935.116c-.245,0-1.222,0-1.222-.49a1.159,1.159,0,0,1,.3-.612l1.1.06m-.367,17.817.427.122a1.871,1.871,0,0,0-1.1.735l.427.122c.122.063.245.122.245.245a.344.344,0,0,1-.367.308.68.68,0,0,1-.672-.675.83.83,0,0,1,.645-.8l.394-.057m-1.652-12-.054.194-.191.051c-.122,0-.185-.06-.185-.245a.162.162,0,0,1,.185-.182l.191.045.054.137m-.063-.3-.415.137-.137.412c0,.245.185.43.553.43a.474.474,0,0,0,.49-.43.577.577,0,0,0-.152-.412l-.337-.137m.5-2.614.6-.021-.735-.122c-.55,0-1.41.43-1.532.92a1.713,1.713,0,0,1,1.042-.675l.627-.1m-1.789.042.741-.367a3.687,3.687,0,0,1,1.646-.185,1.2,1.2,0,0,0-.795-.182,2.749,2.749,0,0,0-2.267,1.287l.675-.553m-.248,3-.078.17-.164.075a.255.255,0,0,1,0-.49l.164.078.078.167m.245,3.184-.182-.06-.063.06c0,.185-.3.49-.55.612l.466-.236.329-.376m-.367-3.489-.335.122-.152.3a.54.54,0,0,0,.487.553.594.594,0,0,0,.553-.553.389.389,0,0,0-.185-.3l-.367-.122m-.344,3.752.185-.287.1-.343-.182-.06a2.923,2.923,0,0,1-.612,1.039l.511-.349M183.2,16.1l.726-.5a5.44,5.44,0,0,1,1.4-.657,4.573,4.573,0,0,1,1.592-.308l.672.122a.852.852,0,0,0,.43.49v.122a.651.651,0,0,0,.553.612l.857,1.592c.55,1.039.794,2.2,1.467,3.247a3.627,3.627,0,0,0,2.757,1.834c1.347,0,2.509-1.162,3.366-2.079a.762.762,0,0,0,.37.672,8.837,8.837,0,0,1-1.592,1.407,3.939,3.939,0,0,1-2.145.615,3.429,3.429,0,0,1-2.757-1.41,22.262,22.262,0,0,1-1.652-3.429c-.3-.612-.917-1.774-1.655-2.019a2.116,2.116,0,0,1,.553.49h-.122c-1.347,0-2.572.857-3.919.857a1.565,1.565,0,0,1-1.529-.92l.182-.3.445-.439m-.093,1.6.463.185.532.06c1.347,0,2.754-.857,4.1-.98l.427.675-.367-.063c-1.41,0-2.694,1.039-4.1,1.039a2,2,0,0,1-1.834-1.222l.245-.49.188.472.346.323m.134-8.22.493.137a2.135,2.135,0,0,0,1.837,1.042,1.727,1.727,0,0,1-1.225.367,2.128,2.128,0,0,1-2.389-2.145l.063-.3a2.858,2.858,0,0,0,.765.681l.457.221M183,14.7v.122l-.266.191-.406.051c-.185,0-.8-.119-.8-.427l.245-.06.451.06L183,14.7m-.108,1.422-.382.215a2.187,2.187,0,0,1-.857.2c-.122,0-.367,0-.367-.185s1.532-.367,1.837-.553l.063.063-.293.26m.108-.872-.125.152a1.637,1.637,0,0,1-.732.152c-.185,0-.98-.06-.98-.367,0-.122.06-.242.182-.242l.612.182.5.108.544.015m0,.3.063.125a5.055,5.055,0,0,1-1.6.364c-.3,0-.367-.06-.367-.364l.122-.125a1.474,1.474,0,0,0,.735.063L183,15.553m7.775-3.611-.711.17-.756.075a1.546,1.546,0,0,1-1.287-.49l1.042-.427a3.432,3.432,0,0,1-1.41.3A2.092,2.092,0,0,1,186,10.657a4,4,0,0,0,1.467-.367,4.982,4.982,0,0,1-1.284.182,2.117,2.117,0,0,1-2.022-.857h.063a2.472,2.472,0,0,0,1.47-.3,3.568,3.568,0,0,1-1.165.182,2.849,2.849,0,0,1-2.2-.98H184.1L183.063,8.4c-1.3-.149-3.124-.472-3.124-1.481l.185-.553,5.341,2.4,5.433,2.312v.185l-.108.335-.015.338.382.544.355.314.206.137.161.23c0,.245-.738.553-.612.92l-.37.06h-.367a1.222,1.222,0,0,1-1.162-.49l.857-.3a3.607,3.607,0,0,1-1.407.245c-.43,0-.86-.122-.983-.553l.738-.367a2.274,2.274,0,0,1-1.105.245,1.4,1.4,0,0,1-1.284-.612l.672-.367a5.632,5.632,0,0,1-1.407.245,1.05,1.05,0,0,1-1.042-.795,1.989,1.989,0,0,0,1.228-.735,2.329,2.329,0,0,0,2.079,1.1,1.547,1.547,0,0,0,1.41.609,1.95,1.95,0,0,0,1.47.675l.633-.131.287-.114-.615.06a1.745,1.745,0,0,1-1.344-.49l.633-.167.588-.26m-9.734,2.267-.191.137-.054.23c-.672-.063-1.9-.8-1.9-1.595,0-.245.308-.367.553-.245l1.592,1.473m-.55.735-.185.364c-.612-.06-2.572-1.1-2.572-1.774a.457.457,0,0,1,.735-.367c.367.308.49.735.98,1.1l1.042.675m-2.879-4.654.424.176a5.7,5.7,0,0,1,.86,1.293h-.245a.511.511,0,0,0-.49.182,2.11,2.11,0,0,1-.732-1.284l.021-.23.161-.137m0-.43-.078.17-.167.075a.263.263,0,0,1-.245-.245.225.225,0,0,1,.245-.245l.167.054.078.191m.962,4.961L178.9,15a5.4,5.4,0,0,0,1.35.612.382.382,0,0,0,0,.367c-.553,0-3.124-.8-3.124-1.407,0-.122.122-.675.308-.675l1.144.92m-.588.657,1.281.565.98.248.182.3h-.367c-.672,0-3.366-.245-3.366-1.225,0-.122.122-.367.245-.367l1.045.475m-.923-5.863-.116.275-.251.093a.352.352,0,0,1-.367-.367.4.4,0,0,1,.367-.367l.251.116.116.251m-.8.553.451.152.406.338c.43.367.367.917.612,1.407-.245,0-.49.3-.672.427-.49-.427-1.228-1.162-1.228-1.834l.122-.385.308-.1m.122,3.8-.06-.122a.8.8,0,0,1,.735-.8.794.794,0,0,1,.977-.675.591.591,0,0,1,.612-.427,1.192,1.192,0,0,1,.86.55l-.367.063-.308-.122c-.245,0-.43.3-.49.427h-.185c-.49,0-.609.37-.672.8,0,0-.672.675-.612,1.1-.245.063-.55.185-.55.49a.759.759,0,0,0,.245.49c-.185.122-.122.245-.122.43-.245-.125-.615-.185-.615-.49a.441.441,0,0,1,.185-.37.728.728,0,0,1-.185-.609.8.8,0,0,1,.311-.639l.242-.1m-.182-4.409-.045.206a.537.537,0,0,1-.508.284.491.491,0,0,1,0-.983.534.534,0,0,1,.508.287l.045.206m-.956,1.177.251.206a20.1,20.1,0,0,1,1.44,1.861c-.308,0-.49.245-.553.553-.612-.43-1.959-1.287-1.959-2.022a.628.628,0,0,1,.612-.672l.209.075M174,31.718l1.141-.588a7.575,7.575,0,0,1,3.2-.7,6.206,6.206,0,0,1,4.041,1.47,3.762,3.762,0,0,0-1.655-.245,7.784,7.784,0,0,0-2.019.55l.98-.857h-.55a8.315,8.315,0,0,0-2.879.735l.735-.857a4.611,4.611,0,0,0-1.41.108L174,31.718M175.163,9.86l-.057.3a.7.7,0,0,1-.678.439.735.735,0,0,1,0-1.47.7.7,0,0,1,.678.439l.057.3m.98,3.859-.239.137-.191.23c-.49-.245-2.019-.92-2.019-1.532,0-.122.245-.795.49-.795.122,0,.535.427.956.887l1,1.072m-2.449-.553,1.9,1.1a.882.882,0,0,0-.06.675c-.675-.063-2.019-.612-2.019-1.41l.045-.23.137-.137m0-2.694.358.137.131.415a.435.435,0,0,1-.49.427c-.3,0-.55-.182-.55-.427a.537.537,0,0,1,.161-.415l.388-.137m.039,1.147.084.2c0,.245-.122.427-.367.427a.369.369,0,0,1,.063-.732l.221.1m-.1.935-.078.17-.167.075a.281.281,0,0,1-.245-.308l.182-.182.224.078.084.167m12.184.98-.579-.125a1.315,1.315,0,0,1-1.135-1.284l.122-.487a1.252,1.252,0,0,0,.983.747l.427.048.227.269.323.221-.206.284-.161.329v.122c0,.735,1.284.857,1.774.735v.245a6.514,6.514,0,0,0-1.9-.3,13.494,13.494,0,0,0-2.2.245l-.122.3a1.174,1.174,0,0,0,.308.612l-.122.122c-.245,0-.43-.367-.43-.612l.185-.427-.185.06a2.694,2.694,0,0,1-1.347-.427l-.122.245a.342.342,0,0,0-.367.3.371.371,0,0,0-.245.55.342.342,0,0,0-.185.308.45.45,0,0,0,.122.367c-.122,0-.182.122-.182.245a.411.411,0,0,0,.245.308v.182l-.063.063a.371.371,0,0,1-.364-.43.436.436,0,0,1-.185-.367.334.334,0,0,1,.185-.3l-.122-.248a.381.381,0,0,1,.242-.367l-.06-.119c0-.122.122-.308.245-.308v-.06a.234.234,0,0,1,.3-.185c.063-.182.185-.182.308-.182a8.12,8.12,0,0,1-3.306-3.982c-.122-.245-.43-.98-.795-.98h-.122a1.1,1.1,0,0,0-.98-.245,1.026,1.026,0,0,0-.738-.3c-.182,0-.427.06-.49.182l-.732-.182a1,1,0,0,0-1.042,1.039v.43a.663.663,0,0,0-.427.612l.122.612c-.063,0-.185.122-.185.3l.122.367-.06.367.182.735c.98,2.754,4.1,3.8,6.735,3.8a10.439,10.439,0,0,0,2.817-.367,13.225,13.225,0,0,0-1.287,3A3.381,3.381,0,0,1,180,21.861a6.039,6.039,0,0,1-2.757.55c-1.039.122-2.389.738-2.389,1.959,0,.857.612,1.042.612,1.532,0,.612-1.407.917-1.407,1.959,0,.735.917,1.407,1.47,1.652a1.379,1.379,0,0,1-.612-.917c0-1.1,2.634-.553,2.634-2.082,0-.98-1.225-1.592-1.225-2.572l.06-.245c.857-.55,2.694-.182,3.982-.735a3.5,3.5,0,0,0,1.807-1.774l.275-.857.108-.553.015-.553c-.615,2.817-1.717,3.859-4.471,3.922l-1.225.06a1.24,1.24,0,0,0-.98,1.225l.308-.612v.122c0,.98,1.162,1.652,1.162,2.572,0,1.225-1.9.917-2.449,1.592.367-1.225,2.267-.553,2.267-1.777a.562.562,0,0,0-.245-.49l.06.245a.619.619,0,0,1-.55.675l.06-.367c0-.92-.857-1.41-.857-2.022a.8.8,0,0,1,.182-.487.92.92,0,0,0-.427.672c0,.55.49.857.49,1.347,0,.55-.675.672-1.042.917.308-.3.8-.49.8-.917,0-.612-.612-.675-.612-1.347,0-1.162,1.225-1.837,2.2-1.959.98-.185,2.022.122,2.879-.553,1.344-.917,1.529-3.062,2.142-4.591a1.919,1.919,0,0,0,2.019,1.347,6.91,6.91,0,0,0,2.452-.612.406.406,0,0,0-.245.427.472.472,0,0,0,.427.49.484.484,0,0,0,.49-.49.5.5,0,0,0-.553-.49l1.165-.364a.62.62,0,0,0-.245.427c0,.245.182.367.43.367a.4.4,0,0,0,.427-.367.513.513,0,0,0-.427-.427h.427c.8,1.467,1.042,3.366,2.264,4.651a3.624,3.624,0,0,0,1.962,1.042l-.063.553.063.55a8.439,8.439,0,0,1-1.962-.55.851.851,0,0,1-.367-.675,1.468,1.468,0,0,1-.917.98l-.49.3.063.43c0,.182,0,.49-.185.55-.49,0-.122-.857-.612-.857s-.06,1.287-.49,1.287c-.367,0-.308-1.1-.553-1.1-.367,0-.06,1.347-.49,1.347-.487,0-.242-1.1-.672-1.1s-.245.98-.612.98c-.3,0-.245-.92-.3-1.165l-.553.063a6.063,6.063,0,0,0,3.244-2.267h.122a.951.951,0,0,0,.8-.49,1.084,1.084,0,0,1-.612.245h-.245l.122-.182a1.078,1.078,0,0,0,.8-.735.831.831,0,0,1-.675.427l.185-.795a5.729,5.729,0,0,1-3.8,3.611,4.385,4.385,0,0,0-1.222.553,1.593,1.593,0,0,0-.553.98,1.627,1.627,0,0,1-.857.3h.8v.185a2.046,2.046,0,0,1-.92.308,2.067,2.067,0,0,0,.857,0v.242a1.356,1.356,0,0,1-.857.185,2.1,2.1,0,0,0,.857.06,2.467,2.467,0,0,0,.185.92v.06l.3-.06a.394.394,0,0,1,.367.3c0,.612-1.592,1.41-2.082,1.41-.245,0-.308-.06-.308-.245l.063-.308a2.369,2.369,0,0,0,1.455-.654l.2-.448-.233.367a2.854,2.854,0,0,1-1.422.553c-.063-.43-.308-.367-.612-.367-.182,0-.427-.063-.427-.308,0-.49,1.407-2.694,1.407-3.856,0-.43-.43-.553-.43-.857,0-.612,1.717-.612,1.717-2.327a2.665,2.665,0,0,0-.26-1.18l-.23-.349.275.627.093.717c0,1.9-1.84,1.532-1.84,2.512,0,.367.43.55.43.857,0,1.1-1.407,3.184-1.407,3.856,0,.612.49.553.917.553l.06.06c.122,0,.122.122.185.245l-.063.37.1.311.332.176.564-.119a3.5,3.5,0,0,0,1.458-.92.4.4,0,0,1,.242.308c0,.427-1.529,1.162-2.019,1.162l-.185-.063-.06-.182v-.185l-.048.215.048.215a6.516,6.516,0,0,0-3.184-.857,8.09,8.09,0,0,0-5.388,2.142,12.143,12.143,0,0,1,3.551-.917,7.06,7.06,0,0,0-.857,1.162,8.8,8.8,0,0,1,2.876-.917l.553-.122-1.774,1.529a9.615,9.615,0,0,1,3.611-1.162,16.242,16.242,0,0,1,1.777.182l-.245-.427a4.456,4.456,0,0,0,1.834.3.688.688,0,0,0,.367,0,4.669,4.669,0,0,1-.672-.98l.122-.245c.245,0,.49,1.1,1.225,1.1l.308-.06-1.41-1.959a.651.651,0,0,0-.55-.308l.119-.49a.5.5,0,0,0-.487-.55l-.367.06v-.795c0-1.347.245-2.145,1.529-2.572h.675c0,.3-.063,1.162.427,1.162.553,0,.43-.857.612-1.039l.063.06c.06.367.122,1.042.609,1.042.367,0,.49-.675.49-.98.063.245.185.735.43.857a2.67,2.67,0,0,0-.553,1.1v.122c0,.367.43.427.735.49A6.222,6.222,0,0,1,190.9,29.7a1.581,1.581,0,0,1,.245.917c0,.122-.122.308-.245.308a1.388,1.388,0,0,1-.672.182,4.554,4.554,0,0,1-3.551-1.837,4.926,4.926,0,0,0,.3,1.592h-.122a.963.963,0,0,0-1.1.98,1.031,1.031,0,0,0,1.039,1.042.686.686,0,0,0,.735-.612,1.041,1.041,0,0,0-.367-.612.914.914,0,0,1,.612-.185l.49.063a.743.743,0,0,0-.367.735l.122.55A5.2,5.2,0,0,1,190.9,31.9h.245a5.836,5.836,0,0,1,2.327.427,2.839,2.839,0,0,0,1.228.185l1.284-.122-1.162-.857.122-.122c.427,0,.795.612,1.162.735l.122-.185c0-.612-1.347-1.774-1.959-1.774l.063-.43c0-.367-.248-.55-.615-.55l-.427.122c-.367-.185-2.145-1.47-2.145-1.9l.92-.735a4.638,4.638,0,0,0,1.774-1.837l.615.063v.49a1.2,1.2,0,0,0-.8,1.1l-.245.245c0,.308.672.612.92.672a.352.352,0,0,0,.367.367c.182,0,.245-.182.3-.367.245-.06.92-.364.92-.672a.263.263,0,0,0-.245-.245,1.122,1.122,0,0,0-.92-1.1v-.49c.857,0,2.817-.185,3.247-.98h.612a.7.7,0,0,0,.672.367,3.748,3.748,0,0,1,1.287,1.47c.245.612-.063,1.41.917,1.347a5.159,5.159,0,0,1,1.225,2.449v.06a.789.789,0,0,0-.245.615.712.712,0,0,0,.794.672l.43-.063.185.245v.122l-.738.122c-.612,0-1.344-.3-1.344-.98a.817.817,0,0,1,.122-.487h-.245a1.161,1.161,0,0,0-1.287,1.284l.185.735h-.493c-.367,0-1.344-.122-1.344-.612,0-.553.917-.675.917-1.284,0-.308-.308-.493-.612-.615a1.535,1.535,0,0,1,.98-.3,1.685,1.685,0,0,1,1.1.427,2.3,2.3,0,0,0-2.142-1.592,2.47,2.47,0,0,0-2.267,2.449,2.352,2.352,0,0,0,2.631,2.39h.612v.06a1.4,1.4,0,0,0,.738,1.1c.612-.857,1.956-.735,2.876-.735a2.716,2.716,0,0,0,1.837-.672l1.225.122.553-.063a4.39,4.39,0,0,1-.675-.917l.185-.245a6.007,6.007,0,0,1,.857.98.289.289,0,0,0,.3-.308.629.629,0,0,0-.3-.49,2.916,2.916,0,0,1,1.589-.367l.92.122-.92.367a2.156,2.156,0,0,0-.55,1.41v.49a4.124,4.124,0,0,1,.55-.857,2.479,2.479,0,0,1,.92-.185l2.082.185L213.4,32.6l1.255-.335a1.894,1.894,0,0,0,1.042.245,3.963,3.963,0,0,0,1.165-.245H216.8c-.367,0-.917-.245-.917-.612a.41.41,0,0,1,.245-.367l.672.06a2.859,2.859,0,0,0,1.284-.3L217.9,32.82a5.006,5.006,0,0,1,3.674-1.529,2.827,2.827,0,0,1,1.287.245c.55,1.714,2.387,1.529,2.876,2.449.308-.553,1.162-.735,1.714-1.1a2.389,2.389,0,0,0,1.1-1.347,3.473,3.473,0,0,1,1.347-.245,4.764,4.764,0,0,1,3.611,1.529,8.96,8.96,0,0,0-.122-1.774,3.047,3.047,0,0,0,1.228.3,4.759,4.759,0,0,0,1.284-.245,1.079,1.079,0,0,1,.245.735.876.876,0,0,1-1.039.92l.795.06c.735,0,1.837-.122,1.777-1.1.735,0,1.711.245,1.711,1.1a2.574,2.574,0,0,1-.245.92,2.114,2.114,0,0,0,1.105-2.082l.55-.063a4.825,4.825,0,0,0,2.264.612c.675,0,1.84-.245,2.022-1.039l.612-.122h.122a.668.668,0,0,1,.8.795,1.133,1.133,0,0,0,.3-.735.871.871,0,0,0-.55-.795,6.183,6.183,0,0,1,2.387-.49c.427,0,.98.063.98.612,0,.612-1.1.55-1.532.49a2.256,2.256,0,0,0,2.39.857l.122.427c0,.553-.98.675-1.41.735a4.186,4.186,0,0,0,1.228.122c.609,0,1.959-.182,2.142-.98a3.382,3.382,0,0,0,2.879,1.47,2.046,2.046,0,0,0,1.9-.795,2.147,2.147,0,0,0,1.225.3c.735,0,3.184-.427,3.614-1.1l1.711.063a10.16,10.16,0,0,1,2.572.55,13.061,13.061,0,0,0,4.289,1.1,3.226,3.226,0,0,0,2.324-.857,35.906,35.906,0,0,0,5.024.857c1.652,0,3.734-.735,3.734-2.754,0-1.41-1.039-2.022-2.327-2.2a1.38,1.38,0,0,1,.92,1.287,4.39,4.39,0,0,0-1.287-.122H278.4c.672.182,1.407.609,1.407,1.407,0,1.039-.795,1.47-1.712,1.47l-1.165-.063c.612,0,1.959-.122,1.959-.98a1.553,1.553,0,0,0-.367-.857l.063-.245a1.2,1.2,0,0,0-.612-.795l-.122.063-.185-.43a6.085,6.085,0,0,0-.8-1.714c-.55-.92-1.712-2.022-1.712-3.062,0-.917,1.039-2.634,1.407-3.674l.367-1.47a9.241,9.241,0,0,0,.185-1.774l-.063-.675v.245a6.9,6.9,0,0,1-4.041-2.145l-.185-1.344c.857.857,2.452,2.817,3.737,2.817h.182c-1.284-.367-3-2.022-3.979-2.939-.122-1.35-.427-2.694-.612-4.1a11.99,11.99,0,0,1,4.468,4.1,13.463,13.463,0,0,1,2.145,7.53v.857c0,1.042.857,1.592.857,2.449,0,.245-.122.3-.308.3-.367-1.162-.854-1.1-.917-2.631l-.06.427c0,1.287.795,1.9.795,2.449,0,.185-.063.245-.245.245-.49-1.1-1.039-1.1-1.039-2.572,0-.857.182-1.711.182-2.569a5.663,5.663,0,0,0-.517-2.473l-.463-.651.382.684a5.733,5.733,0,0,1,.415,2.255c0,.92-.245,1.714-.245,2.631,0,1.714,1.284,2.512,1.284,3.614a1.867,1.867,0,0,1-.3.8l.182.06a3.061,3.061,0,0,0,1.347-2.267c0-.977-.675-1.284-1.042-2.082a6.252,6.252,0,0,1-.06-2.142,7.061,7.061,0,0,0-.185-1.592,13.493,13.493,0,0,0-2.572-6.368c-2.939-3.492-7.835-5.388-12.246-6a35.453,35.453,0,0,0-5.081-.367,4.114,4.114,0,0,0-1.714-.612,3.2,3.2,0,0,0-2.757-1.777,3.033,3.033,0,0,0-1.284.308,4.165,4.165,0,0,0-1.959-.43,3.479,3.479,0,0,0-2.757,1.84c-.917,1.344-2.079,1.837-2.754,3.426a8.362,8.362,0,0,0-.43,2.085c-.3.245-1.039.917-1.039,1.344,0,.308.43.308.612.367a6.9,6.9,0,0,0-.672,2.085c-.49,0-1.042-.367-1.532-.367-.185,0-.367.06-.367.3,0,.49,1.042,1.039,1.41,1.162a10.739,10.739,0,0,0-.738,3.369c0,1.959.615,3.919,2.757,4.409l.612.063a3.339,3.339,0,0,0,2.694-1.532c.553-.308,1.837-.553,1.837-1.347,0-.49-.672-.427-.98-.427h-.3c-.063-.308-.37-1.287-.738-1.287-.55,0-.612.98-.612,1.347a2.918,2.918,0,0,1-1.589.857c-.615,0-.738-.49-.738-.98,0-1.47,1.165-2.876,2.2-3.8l-.12.735.12.308c.245,0,1.35-1.532,2.452-1.532.672,0,1.284.185,1.959.185a4.149,4.149,0,0,0,1.47-.245v.182a.691.691,0,0,0,.182.49.92.92,0,0,0-.245.553c0,.122.122.245.245.367l-.122.364a.486.486,0,0,0,.182.43,1.422,1.422,0,0,0-.182.672.638.638,0,0,0,.427.612c-.609,2.2-5.081,2.2-5.633,5.574l-.06-.185c-.308.063-.612.245-.612.612l.122.43c-.367.122-.917.427-.917.92,0,.732,1.467,1.222,2.019,1.407l-.49-.063A4.871,4.871,0,0,0,245.7,29.7l-.308.245v-.06a.868.868,0,0,0-.609-.86,4.489,4.489,0,0,0,.427-1.774l-.063-.43a2.674,2.674,0,0,1-1.1.92,5.323,5.323,0,0,0-1.228-1.837l.063.735a3.756,3.756,0,0,1-1.162,2.939,4.813,4.813,0,0,1-1.1.857v-.182a3.448,3.448,0,0,0-.615-1.84c-.3,1.1-.98,2.2-2.264,2.2a2.222,2.222,0,0,1-1.1-.245v-.119a3.6,3.6,0,0,0-.308-1.41,2.835,2.835,0,0,1,1.655-.675,1.219,1.219,0,0,1,.675.122l.06-.427a2.265,2.265,0,0,0-1.039-1.777,5.481,5.481,0,0,1,2.939-.672l1.529.06a4.205,4.205,0,0,0-3.062-1.1,6.041,6.041,0,0,0-1.47.185l.98-1.284c.245-.063.245-.185.427-.37a5.226,5.226,0,0,1,1.9-1.039h.49a3.366,3.366,0,0,0-1.347-.367l-.857.122a3.648,3.648,0,0,1,1.959-1.592,2.225,2.225,0,0,0-.917-.185,2.426,2.426,0,0,0-1.47.43,9.676,9.676,0,0,1,2.572-4.041h-.308a3.8,3.8,0,0,0-2.509,1.532,33.578,33.578,0,0,1,3-5.206c-2.327.612-3.734,2.939-4.654,4.961a24.616,24.616,0,0,1,4.471-7.655c-2.267.553-3.8,2.572-5.024,4.471V11.084l.612.122a1.337,1.337,0,0,0,1.35-1.407,1.852,1.852,0,0,0-.612-1.347c-.675-.735-1.35-1.595-2.082-2.267a1.284,1.284,0,0,0-.675-.245,1.681,1.681,0,0,0-1.1.612,7.8,7.8,0,0,1-2.2,1.225l-.92.245a6.093,6.093,0,0,0-3.244-2.939,5.359,5.359,0,0,0-1.714-.3,5.85,5.85,0,0,0-5.021,3.062l-.185-.063a7.094,7.094,0,0,1-2.2-1.225,1.671,1.671,0,0,0-1.162-.612,1.1,1.1,0,0,0-.55.245c-.8.672-1.41,1.532-2.145,2.267a1.852,1.852,0,0,0-.612,1.347,1.335,1.335,0,0,0,1.347,1.407l.553-.122v3.247c-1.165-1.9-2.694-3.919-5.021-4.471a22.6,22.6,0,0,1,4.528,7.655c-.977-2.022-2.387-4.349-4.651-4.961a29.251,29.251,0,0,1,2.939,5.206,3.163,3.163,0,0,0-2.757-1.532,9.149,9.149,0,0,1,2.572,4.041,2.432,2.432,0,0,0-1.47-.43,2.225,2.225,0,0,0-.917.185A4.3,4.3,0,0,1,213,21.616l-.92-.122a3.366,3.366,0,0,0-1.344.367,3.556,3.556,0,0,1,2.387,1.039.654.654,0,0,0,.43.37l.977,1.284A6.13,6.13,0,0,0,213,24.37a4.448,4.448,0,0,0-3.121,1.1l1.407-.122a6.346,6.346,0,0,1,3,.675,3.071,3.071,0,0,0-1.47,2.264,1.2,1.2,0,0,1,.672-.122,2.819,2.819,0,0,1,1.652.675l-.3,1.347a3.738,3.738,0,0,1-1.47.367c-.98,0-2.509-.49-2.509-1.714a2.289,2.289,0,0,1,.977-1.774L211.229,27a1.594,1.594,0,0,0-1.592,1.652l-.493.675-.122.553.063.427a2.548,2.548,0,0,0-1.162-.3,6.9,6.9,0,0,0-1.595.364,1.882,1.882,0,0,0-.795-.487,1.2,1.2,0,0,0,.245-.738c0-.55-.612-.612-1.039-.55l-.92-1.9a.579.579,0,0,0,.122-.427c0-.675-.49-.98-.675-1.532l.675.063c1.407,0,2.572-.98,4.041-.98v.185l-.612.55h-.06a.784.784,0,0,0-.612.672l.122.185c-.245,0-.615.122-.615.367,0,.182.245.245.308.427a1.528,1.528,0,0,0-.8,1.347,2.505,2.505,0,0,0,.245,1.165,2.9,2.9,0,0,0,1.287-.98,7.683,7.683,0,0,1-.3,1.1,2.149,2.149,0,0,0,1.407-1.714.492.492,0,0,0,.3-.308h.308l.182-.06a.673.673,0,0,0,.615-.675.853.853,0,0,0-.43-.735v-.06c0-.612,1.225-1.407,1.225-2.512,0-.795-.794-.917-1.41-1.039a16.539,16.539,0,0,1-2.324-.367l.245-.3a1.362,1.362,0,0,0,.795-1.165,2.338,2.338,0,0,0-.367-1.1,1.158,1.158,0,0,0,.185-.49,1.164,1.164,0,0,0-.308-.612,1.131,1.131,0,0,0-.55-1.039,2.854,2.854,0,0,0,.367-1.41,3.454,3.454,0,0,0-1.473-2.694l.735-.795c.37-.063,1.777.06,1.777-.675l-.182-.612c.487-.06.487-.3.487-.735l.122-.182-.06-.245V9.247c0-.367.49-.308.49-.612a6.4,6.4,0,0,0-.8-1.347,3.68,3.68,0,0,1-.06-1.41,1.364,1.364,0,0,0-.367-1.039V4.594a.629.629,0,0,0-.3-.49c0-.735-.122-1.529-1.042-1.652l.063.245-.185.854a4.254,4.254,0,0,0-1.47-.3,4.322,4.322,0,0,0-1.532.3l-.06-.367a1.208,1.208,0,0,1,.122-.672,2.062,2.062,0,0,0-1.287,1.837,3.736,3.736,0,0,0-1.344,3.492c-.063-.122-.308-.185-.43-.185a1.383,1.383,0,0,0-.857.367l.122.245a1.106,1.106,0,0,0-.98.553,1.148,1.148,0,0,0,.735.49l-.245.55.98.245-.308.553h-.06C198.616,9.37,196.594,8.82,195,8.208a23.491,23.491,0,0,1-4.1-2.085L187.041,3.8a1.783,1.783,0,0,0-.672,1.228c0,.795.917,1.344,1.589,1.467l-.182.8c0,.857.8,1.225,1.47,1.347V8.82c0,.857.795,1.1,1.529,1.039a.586.586,0,0,0,.122.43,1.351,1.351,0,0,0,1.287.427c0,.308.063.553.308.675l-1.6-.675c-3.551-1.532-7.222-2.939-10.774-4.594a1.914,1.914,0,0,0-.367.98c0,1.042,1.467,1.287,2.2,1.41l-.06.735a1.994,1.994,0,0,0,2.142,2.145,1.625,1.625,0,0,0-.182.732c0,.783.654,1.183,1.317,1.335l.642.075" transform="translate(829.164 1169.298)" fill="#858585"/>
    </g>
  </g>
</svg>
