<svg xmlns="http://www.w3.org/2000/svg" width="604" height="351" viewBox="0 0 604 351">
  <g id="Thumbnail_Rectangle_Big" transform="translate(-970 -1135)">
    <rect id="Rectangle_1510" data-name="Rectangle 1510" width="604" height="351" transform="translate(970 1135)" fill="#e4e4e4"/>
    <g id="Group_2710" data-name="Group 2710" transform="translate(1090.385 1207.216)">
      <ellipse id="Ellipse_9" data-name="Ellipse 9" cx="104" cy="104.5" rx="104" ry="104.5" transform="translate(78.615 -0.216)" fill="#f1f1f1"/>
      <path id="Path_1097" data-name="Path 1097" d="M520.567,104.116l1.22-.357,1.22-.655.813,3.254c-.605,0-.813.407-1.419.605l-.615-1.647-1.22-1.2m-2.44,3.462h-1.835c.208-1.627.813-2.847,2.45-2.847,1.418,0,2.232,1.419,2.44,2.639l-3.055.208M514.873,57.96h.2v.208m-.407,2.024-.605-.4c0-.407.2-.813.605-.813a.539.539,0,0,1,.615.605l-.159.456-.456.149m.208-1.418-.813.407-.407-1.012a.647.647,0,0,0,.605-.615h.208v.407l.407.813m-2.033-1.012-.2-.208.2-.407.407.407m-.813,1.835-.813-.407c0-.407.407-.615.813-.615.208,0,.407.208.407.615l-.407.407m.208-2.649-.208.615.208.605a1.4,1.4,0,0,0-1.022.615v-.208l-.407-1.012h.208l.813-.615h.407m-1.627,50.024.764-1.786a1.915,1.915,0,0,1,1.676-.863c1.419,0,1.617,2.242,1.617,3.055v.2l-4.057-.605m-.208-50.024-.2-.2.2-.208.208.208M510.4,55.52v.813l.208.813-.208-.2-1.012.407.2-.407-.407-.615.764-.258m.307,2.272-.456.228-.615-.615.208-.407h.407c.407,0,.605.208.605.407l-.149.387m-1.27-2.827-.208-.2.208-.208.2.208m-.922-.407.109.605-.615.208a1.254,1.254,0,0,0,0-1.22l.615-.208h.407l-.516.615m-.7,52.663.406-.407,2.034.407m-2.44-51.443.406-.208.407.615-.407.605a.654.654,0,0,1-.615-.605v-.208l.208-.2m0-2.649-.208.407-.2-.407.2-.208m3.72,48.1,4.216.506a12.716,12.716,0,0,0,6.507-1.418l1.22,1.21a10.443,10.443,0,0,1-5.694,1.835c-2.033,0-9.761-.813-10.376-3.045l.208-.208,3.918,1.121m-3.918,4.365-.407-.2c0-.813.407-2.649,1.627-2.649s1.627,1.22,1.627,2.242l-.2,1.22-1.22-.208c.2-.605.605-1.012.605-1.627l-.942.694-1.091.526m-.615,3.055.615-.615c4.682.615,10.168,1.627,14.85,1.627,3.651,0,7.321-2.034,7.321-6.1a4.32,4.32,0,0,0-1.637-3.452c1.022,0,2.648.208,3.264.813a2.3,2.3,0,0,0,.605-1.627,4.539,4.539,0,0,0-1.22-2.847c2.242.813,3.869,3.869,3.869,6.1,0,6.1-6.517,8.134-11.189,8.134-3.452,0-6.716-1.022-9.959-1.428l-3.184-.377-3.333-.228m-.813-54.5h.407c.407,0,.615,0,.615.407a.546.546,0,0,1-.615.615l-.407-.208V54.3l-.2-3.254,1.419,1.825-.2,1.022-.437.05m-2,53.02,1.418-1.825-.2.407.407.813m-2.232-51.036.446.932.159,1.1c0,.407-.208,2.232-.605,2.232s-.407-1.825-.407-2.232l.05-1.1.357-.932m-.049,16.417.049,1.27-.407,2.034c-.407,0-.407-1.835-.407-2.242,0-.2,0-2.034.407-2.034l.357.972m.049-28.826-.03.565-.179.248c-.407.208-.813-2.649-.813-3.254l.208-.813c.2-.1.407.615.556,1.4l.258,1.855m0,21.347.625.258.179.556a.961.961,0,0,1-1.012,1.022,1.121,1.121,0,0,1-.813-1.022l.357-.556.665-.258m.327-15.673.278.635a.922.922,0,0,1-1.012.8.865.865,0,0,1-.813-.8.742.742,0,0,1,.813-.813l.734.179m-.486,29.174.357.744a1.084,1.084,0,0,1-1.012,1.012c-.813,0-1.22-.407-1.22-1.012s.407-1.022,1.22-1.022l.655.278m.159-24.273-.952-.863a5.008,5.008,0,0,1-1.29-3.2,5.75,5.75,0,0,1,1.428-3.452,4.352,4.352,0,0,0-.813,3.045l.427,2.47,1.2,2m-.208,7.926-1.091,1.865-.327,2a5.742,5.742,0,0,0,.813,3.66,6.032,6.032,0,0,1-1.627-3.66l.585-2.083,1.647-1.786m-3.254,15.256.436-.585.585-.436-.615,1.23m.208-42.7.734.179.278.635a.928.928,0,0,1-1.012.813.875.875,0,0,1-.813-.813l.258-.635.556-.179m0,4.474-1.676-1.835a4.5,4.5,0,0,1-.764-2.44,5.986,5.986,0,0,1,1.418-3.254,6.816,6.816,0,0,0-.605,3.055l.427,2.381,1.2,2.093M500.44,56.74,499.9,59l-1.3,1.805c1.022-1.012,1.022-2.639,1.022-4.067a7.59,7.59,0,0,0-1.428-4.067,5.187,5.187,0,0,1,2.093,2.887l.149,1.18m-.615,44.331-.1-1.27-.714-.972H498.2c.407-2.639,2.44-5.079,4.474-6.706,2.44,2.034,4.474,3.859,5.079,7.122h-1.22L504.775,96.7l-2.51-1.934a13.883,13.883,0,0,1,1.022,4.89,7.524,7.524,0,0,1-1.22,4.265l-.893-1.577-1.349-1.27M498.3,76.748l.923-.288a1.022,1.022,0,0,1,0,2.043c-.813,0-1.23-.407-1.23-1.022l.307-.734m-.1-13.094-.407,1.627-.208-1.428a1.924,1.924,0,0,1,.407-1.418l.208,1.22m.764-22.369.486,1.061.179,1.18a6.037,6.037,0,0,1-1.637,3.66,7.928,7.928,0,0,0,.823-3.66,5.347,5.347,0,0,0-1.428-3.869l1.577,1.627M498.2,55.927l.664.327.357.486a1.318,1.318,0,0,1-1.022,1.22c-.615,0-.813-.605-.813-1.22l.258-.565.556-.248m-.813,19.115.912-1.776.308-2.093a6.432,6.432,0,0,0-1.022-3.859,5.75,5.75,0,0,1,1.835,3.66,4.7,4.7,0,0,1-.635,2.262l-1.4,1.805m.813-24.2-.159,1.2-.456,1.042-.407-2.242.407-2.43c.307,0,.456.555.536,1.141l.079,1.29m-1.627,27.051,2.033-3.154a7.254,7.254,0,0,0,1.429-3.154c0-2.232-1.627-4.265-1.627-6.706,0-3.254,3.452-4.88,3.452-7.727,0-2.639-2.847-4.275-2.847-7.122,0-2.639,2.034-4.464,2.034-7.112,0-3.452-4.474-3.859-4.474-8.739,0-1.835,1.419-3.254,1.012-5.089l.407,1.627-.605,3.462.2,1.5c.9,3.125,4.484,3.859,4.484,7.241,0,2.649-2.033,4.682-2.033,7.112s2.847,4.275,2.847,7.122c0,3.045-3.254,4.88-3.254,7.926,0,2.242,1.419,4.275,1.419,6.507a5.253,5.253,0,0,1-1.627,3.462l-2.847,2.847m-.208-37.218V39.659a2.726,2.726,0,0,1,.407-1.825l.208,1.012-.615,1.825m1.022,1.835.664.387.357.833a1.429,1.429,0,0,1-1.022.813,1.086,1.086,0,0,1-1.022-1.012l.357-.665.665-.357m1.428,59.577-.436,1.964-1.2,1.5h-.814l-1.012-3.462M496.77,29.9l-.327.635-.486.179c-.6,0-1.012-.208-1.012-.813a.929.929,0,0,1,1.012-.813l.486.258.327.555m.407,46.563-.486.843-.932.387a1.177,1.177,0,0,1-1.22-1.23c0-.813.407-1.418,1.22-1.418l.932.407.486,1.012m7.936,4.474.655-7.827.357-7.827-.2-8.947a.965.965,0,0,0,1.22.208l-.208.407a1.358,1.358,0,0,0,1.22,1.418l1.022-.2-.2.2A1.524,1.524,0,0,0,510.4,59.8a1.136,1.136,0,0,0,1.022-.615s.605,1.419,1.419,1.419l1.022-.407a1.3,1.3,0,0,0,1.21,1.22c1.022,0,1.428-.605,1.428-1.22s-.208-1.21-.813-1.21c.407-.208.813-.813.605-1.022h2.648l-.407,3.452v.208c-1.428,1.012-2.648,2.232-4.474,2.44a10.387,10.387,0,0,0,4.266-1.22l-.407,1.22a6.893,6.893,0,0,1-3.66,2.232,6.764,6.764,0,0,0,3.254-1.012l-.2,1.012a8.529,8.529,0,0,1-3.66,2.242,8.548,8.548,0,0,0,3.254-.813l-.407,1.22a18.858,18.858,0,0,1-3.859,2.232,9.75,9.75,0,0,0,3.452-1.012l-.407,1.012-3.254,1.835,2.639-.615-1.21,2.847a32.23,32.23,0,0,1-3.66,2.043l3.045-.823c-.605,1.428-1.825,3.264-1.825,5.089l.407,2.44a6.643,6.643,0,0,1-2.648,2.639A10.685,10.685,0,0,0,512.235,85a21.632,21.632,0,0,0,2.43,3.462,9.069,9.069,0,0,1-2.837,2.034,5.153,5.153,0,0,0,3.244-1.428l.813.823a5.168,5.168,0,0,1-2.43,2.232,3.869,3.869,0,0,0,2.837-1.428l.813.813a4.271,4.271,0,0,1-2.639,2.034h.2a4.006,4.006,0,0,0,2.847-1.22l.407.407a4.772,4.772,0,0,1-2.639,2.242,6.758,6.758,0,0,0,3.254-1.428l1.22,2.242s-1.22,2.034-2.44,2.232a5.127,5.127,0,0,0,3.055-1.22l.2.208c-.813,1.012-1.627,2.034-2.648,2.242a5.667,5.667,0,0,0,3.055-1.23l.407,1.23a10.19,10.19,0,0,1-6.1,1.617,15.967,15.967,0,0,1-7.321-1.617,4.207,4.207,0,0,0-.615-2.649h1.022l2.44-.208c-2.44,0-3.869-.605-5.089-2.847l1.627.208,1.835-.208c-2.034-.2-3.869-.2-5.486-1.825l1.825.2,2.034-.2c-2.847-.208-4.266-.615-6.507-2.649a9.041,9.041,0,0,0,3.254.615l2.034-.2h-.814c-6.706,0-9.761-6.517-11.794-12L499.5,78.9l5.614,2.034M492.1,57.96l-.605-.2.813-.407.407.407m-.972,8.283-.456-.357c0-.813,1.22-1.022,1.627-1.022.615,0,1.419.208,1.419.615,0,.813-1.419.813-1.825.813l-.764-.05m.565-4.831-.615.2a.911.911,0,0,1-.605-.813l.2-.2.585.258.436.556m.407.605.754.079.456.536c0,.605-1.21,1.012-1.617,1.012s-1.22-.2-1.22-.813c0-.3.308-.506.665-.635l.962-.179m.407,5.7.754.169.456.645c0,.605-1.419.813-1.825.813v.605c0,.208,0,1.419-.813,1.419-.407,0-.605-1.21-.605-1.419,0-1.071.337-1.8,1.111-2.083l.922-.149m-2.44-16.883.2-.506a2.479,2.479,0,0,1,1.627-.506c.407,0,1.22,0,1.22.605s-1.22,1.012-1.825,1.012l-.764-.149-.456-.456M492.1,74.228l.942.308.486.913c0,.605-.813,1.22-1.428,1.22a1.358,1.358,0,0,1-1.419-1.22l.407-.913,1.012-.308m-1.627,31.921,5.694.208a4.841,4.841,0,0,1-2.44.605l-1.627-.248-1.627-.565M492.1,46.781l.863.149.565.456c0,.813-1.428,1.022-1.835,1.022s-1.419-.208-1.419-.813c0-.308.307-.516.685-.635l1.141-.179m-1.627,8.134h-.2c0-.615.407-.615.813-.813l-.407-.407c0-.615,1.419-1.022,1.825-1.022s1.22.2,1.22.605c0,1.022-1.825,1.022-2.44,1.022l-.179.456-.635.159m.615,8.938v.208l-.635-.149-.179-.466v-.2l.555.149m-.555,41.533.863-1.676a2.486,2.486,0,0,1,1.775-.764c1.627,0,2.034,1.428,2.034,2.649v.2l-4.672-.407m.248-59.726-.456-.456c0-.615,1.428-1.022,1.835-1.022s1.22.208,1.22.813-1.428.813-1.835.813l-.764-.149m.764-15.713-.585.555-1.042.258c-.407,0-1.22-.208-1.22-.813s1.429-.813,1.835-.813l.655.179.357.635M487.823,53.08v-.407c0-.407.208-.813.615-.813l.208.208-.258.655-.565.357m.417,12.608-.208.407-.407-.813.2-.407m.417,2.44.466.169a1.747,1.747,0,0,1,.347,1.26c0,.407,0,1.617-.813,1.617-.417,0-.615-1.21-.615-1.617l.149-.873.466-.556m.6,5.892.942.387.486.833a1.346,1.346,0,0,1-1.428,1.22,1.078,1.078,0,0,1-1.22-1.22l.308-.833.912-.387m-.178-25.642.387.843a1.239,1.239,0,0,1-1.23,1.419c-1.012,0-1.627-.407-1.627-1.419,0-.615.615-1.22,1.627-1.22l.843.377m.585-21.526-.605,1.29a1.616,1.616,0,0,1-1.23.536c-1.22,0-2.033-.605-2.033-1.825l.407-1.22,3.462,1.22M487.8,96.319l-2.827-1.557c1.22-1.627,5.089-10.168,5.089-11.993a4.645,4.645,0,0,0-.605-2.242l4.464-.2,1.627,3.452-1.012.208a6.476,6.476,0,0,1-3.045-1.22,5.687,5.687,0,0,0,4.672,1.825,18.559,18.559,0,0,0,3.462,4.682h-.813a12.077,12.077,0,0,1-6.507-1.835,12.568,12.568,0,0,0,8.134,2.649l1.418,1.419-1.012.813c-2.648,0-5.9-.2-8.134-1.825,1.617,1.627,5.079,2.44,7.321,2.847l-1.22,1.419h-.407a17.38,17.38,0,0,1-7.529-2.034,16.413,16.413,0,0,0,7.529,3.055L497.583,97h-.407c-2.232,0-5.892-.615-7.718-2.242,1.627,2.034,5.486,3.055,7.718,3.254l-.2.813a21.627,21.627,0,0,1-6.23-1.27l-2.946-1.24m-2.827-45.273.407.605c0,.417-.2.417-.407.615-.2-.2-.407-.2-.407-.615l.407-.605m.02,16.06.387-.2c.407,0,.615,1.22.615,1.627,0,.208-.208,1.428-.615,1.428-.605,0-.814-1.22-.814-1.428l.179-.972.248-.456m-.02-1.419.208.407-.615.813-.2-.813.149-.208m-.149,13.63.407-3.462,8.749,1.428.4,2.649-4.851-.159m-4.91,23.946,1.022-2.014c.456-.684,1.012-1.24,1.627-1.24,1.627,0,2.242,2.44,2.242,3.66v.407l-4.89-.813M485.184,72.8l.932.337a1.356,1.356,0,0,1,.486,1.091c0,.605-.813,1.22-1.418,1.22a1.368,1.368,0,0,1-1.428-1.22l.407-1.091,1.022-.337m-.407-24.6-.159.794-.456.635c-.605,0-.8-1.22-.8-1.428,0-.407.2-1.627.8-1.627l.456.665.159.962m-2.232,48.6v-.2a2.113,2.113,0,0,1,.813-1.627c4.464,3.66,9.761,4.474,15.246,4.88v.615l-.2.8h-1.835A28.867,28.867,0,0,1,485.362,98.7l-2.817-1.9m2.43-41.275,1.2.278a3.666,3.666,0,0,1,2.063,3.184,3.542,3.542,0,0,1-3.264,3.452,3.382,3.382,0,0,1-3.244-3.452A3.522,3.522,0,0,1,483.7,55.8l1.28-.278m-3.125-3.482.079.635v.407l-.605-.813V51.86m.2,14.235h-.2v-.407a.911.911,0,0,1,.605-.813l.208.2-.159.665-.456.357m.228,1.012.387-.2c.605,0,.814,1.022.814,1.627,0,.208-.208,1.22-.814,1.22s-.813-1.012-.813-1.22l.179-.972.248-.456m-.635,12.211.456-1.835.159-1.835,1.825.208-.407,3.66m-.724-47.8.546-.724.585-.278c1.825,0,2.847,6.1,2.847,7.529,0,1.825-.813,3.244-2.847,3.244s-2.847-1.418-2.847-3.244l.813-4.226.9-2.3m-.853,56.294-.456.248-.407-.813h1.022m.734-14.562.486.942c0,.605-.814,1.22-1.428,1.22a1.175,1.175,0,0,1-1.22-1.22,1.346,1.346,0,0,1,1.22-1.428l.942.486m-1.319-39.143-1.042,5.317a3.428,3.428,0,0,0,3.452,3.452c2.44,0,3.254-1.627,3.254-3.66,0-1.627-1.428-9.354-3.254-9.354-.456,0-.9.506-1.309,1.29l-1.1,2.956m.992,65.3.585.625a5.691,5.691,0,0,1,.427,2.629v1.418l-2.133-.784c-.813-.327-1.528-.734-1.528-1.25s.506-1.061,1.091-1.547l1.557-1.091M479.7,47.386l1.012-.407c.813,0,1.22.615,1.22,1.428s-.407,1.419-1.22,1.419a1.382,1.382,0,0,1-1.419-1.419l.407-1.022m.784,11.775.724.248.318.387c0,.4-1.22,1.418-1.627,1.617l1.835-.407.407.407-.615,1.835a3.612,3.612,0,0,1,1.627-1.022c.605,0,.605,1.835.407,2.242.2-.208,1.012-1.835,1.419-1.835s1.022,1.428,1.22,1.627v-.407s0-1.627.407-1.627a4.815,4.815,0,0,1,1.835,1.22l-.615-2.034c0-.2,0-.407.417-.407l1.825.407c-.407-.2-1.627-1.012-1.627-1.617s1.835-.813,2.034-.813c-.2,0-2.034-.208-2.034-.813s1.22-1.428,1.627-1.627l-1.825.2-.417-.2a3.9,3.9,0,0,1,.615-2.034,2.723,2.723,0,0,1-1.835,1.22c-.6,0-.407-1.835-.407-2.242-.2.407-.813,1.835-1.22,1.835-.605,0-1.012-1.428-1.22-1.835V54.3c0,.615,0,1.428-.605,1.428s-1.22-.615-1.627-1.022a2.735,2.735,0,0,1,.615,1.627c0,.407-.208.407-.615.407l-1.825-.2c.407.2,1.825,1.012,1.825,1.627s-2.034.813-2.232.813l1.19.179m-1.6-5.059h.2c.407-.208.615.2.615.605h-.208l-.605-.605m.526,9.5-.526.248h-.208l-.2-.2c0-.407.605-.615,1.012-.615l-.079.565m.337,4.265.149.873c0,.407-.2,1.419-.605,1.419-.813,0-.813-1.012-.813-1.419s0-1.428.813-1.428l.456.556m-1.27,16.724v-.2h1.012l-1.012-.407v-.208l1.22.208-1.022-.615.208-.2h.813l-.813-.407.2-.208,1.022.208h.407c-.407,0-1.022-.208-1.022-.615v-.2l1.429.2-1.022-.605,1.22-.208c2.034,0,2.639,1.627,3.045,3.254a7.983,7.983,0,0,1-2.837,1.022l-1.5-.357-1.349-.665m-.407-25.612,1.24-.665,1.4-.357c-.407-.407-2.232-1.22-2.232-1.825,0-.407.407-.407.605-.407l2.649.605a4.555,4.555,0,0,1-1.22-2.44l.2-.2v-.208c.615,0,1.835,1.022,2.44,1.627l-.2-1.627.2-1.22c1.012,0,1.627,1.835,1.825,2.242.208-.208,1.022-2.44,1.627-2.44.407,0,.208,2.44.208,3.045.605-.605,1.428-1.627,2.242-1.627l.2.615a4.985,4.985,0,0,1-.813,2.232,3.943,3.943,0,0,1,2.034-.605c.615,0,.813,0,.813.407a2.712,2.712,0,0,1,1.627-.615c.407,0,1.22,0,1.22.813,0,.407-1.419.813-1.627.813-.407,0-1.419-.2-1.419-.605a3.721,3.721,0,0,1-2.033,1.418,5.067,5.067,0,0,1,2.639.615l1.428-.407c.407,0,1.21.2,1.21.813s-1.419.813-1.825.813-1.012,0-1.22-.407a5.827,5.827,0,0,1-2.034.605c.407.2,2.034,1.22,2.034,1.825,0,0,0,.407-.813.407a4.609,4.609,0,0,1-2.232-.605,4.662,4.662,0,0,1,1.22,2.44l-.407.407c-.813,0-1.835-1.022-2.242-1.627v1.418c0,.208,0,1.428-.208,1.428-.813,0-1.418-1.835-1.627-2.242-.2.407-.813,2.242-1.617,2.242-.615,0-.208-2.242-.208-2.649a4.3,4.3,0,0,1-2.44,1.428l-.2-.407c0-.615.813-1.627,1.22-2.44l-2.649.605-.407-.2h-.2c0-.615,1.825-1.835,2.232-2.034l-1.468-.357-1.17-.655m-.208,26.227.208-.208a4.935,4.935,0,0,0,6.5,0h.208v.208c0,1.012-2.847,1.825-3.452,1.825a5.729,5.729,0,0,1-3.253-1.22l.813.208-1.022-.813m1.627-61.62,1.3.536.536,1.3a1.825,1.825,0,0,1-1.835,1.835,2.01,2.01,0,0,1-2.033-1.835,1.75,1.75,0,0,1,.635-1.3l1.4-.536m-.784,49.39.377.843c0,.605-.605,1.419-1.22,1.419a1.727,1.727,0,0,1-1.428-1.419c0-.615.813-1.22,1.428-1.22l.843.377m-.03-12.786-.169.476a1.8,1.8,0,0,1-1.26.337c-.407,0-1.627-.2-1.627-.813s1.022-.8,1.429-.8l.962.248.665.555m-.2-11.784-.536.357-.694.05a2.2,2.2,0,0,1-1.627-.407l-.2-.407.2-.407,1.022-.407a2.4,2.4,0,0,1,1.637.684l.2.536m0,5.892-.536.456-.694.159a2.322,2.322,0,0,1-1.627-.615v1.022l-.2-1.428.2-.2c.208-.417.814-.417,1.22-.417a2.211,2.211,0,0,1,1.438.526l.2.5m0,9.146-.536.466-.694.149-1.627-.407-.2-.407.2-.407,1.022-.208a2.687,2.687,0,0,1,1.637.347l.2.466m-2.857-12.608.506-.357.516-.05c.6,0,1.835.208,1.835.813s-1.23.615-1.428.615l-1.429-.208-.407-.605.407-.208m0-11.784.972-.565,1.27-.248a4.255,4.255,0,0,1,2.034.813v-1.22l-1.22-.407-1.627.407c-.813,0-1.429-.407-1.429-1.22a1.6,1.6,0,0,1,1.627-1.627,3.371,3.371,0,0,1,3.055,1.627l.208-1.428c-.813-2.034-3.264-.2-3.264-2.232,0-.407.615-.813,1.23-.813a2.7,2.7,0,0,1,2.232,1.627l.407-.813c-.407-1.835-2.44-.407-2.44-2.242a.875.875,0,0,1,.813-.813c1.022,0,1.627.813,2.242,1.627l.2-.813c-.407-1.22-1.627-.813-1.627-1.825l.407-.615c1.022,0,1.428,1.022,1.835,1.627.2-.407.407-.407.605-.407l-.2-1.627c0-.407.2-.813.6-.813s.605.208.605.813l-.407,1.428c.407.2.615.2.813.605.208-.605.814-1.627,1.429-1.627l.407.208.2.605c0,.605-1.22.407-1.418,1.627l.2,1.022a2.36,2.36,0,0,1,2.033-1.835c.407,0,.823.605.823,1.022,0,1.012-1.835.407-2.45,1.825l.407,1.022c.615-.813,1.627-1.835,2.648-1.835a1.318,1.318,0,0,1,1.022,1.022c0,1.418-2.649.407-3.264,2.034l.208,1.22a3.515,3.515,0,0,1,2.44-1.22,1.841,1.841,0,0,1,2.034,1.627,1.14,1.14,0,0,1-1.012,1.22l-2.45-.407-.813.2.208,1.428a4.294,4.294,0,0,1,2.034-.813,2.437,2.437,0,0,1,2.44,2.232c0,.813-.407,1.22-1.012,1.22-1.022,0-1.627-1.22-2.857-1.22h-1.012l-.208.813c1.22,0,3.055.813,3.055,1.825,0,.823-1.418,2.043-2.242,2.043s-1.012-2.043-2.232-2.649l-1.022.407a1.936,1.936,0,0,1,1.022,1.627,1.823,1.823,0,0,1-1.825,1.835,1.66,1.66,0,0,1-1.627-1.835,1.7,1.7,0,0,1,1.22-1.835l-1.022-.2c-1.627.407-1.419,2.649-2.44,2.649-.813,0-2.242-1.22-2.242-1.835,0-1.22,2.242-2.034,3.264-2.034l-.407-.813h-.813c-1.637,0-1.835,1.22-3.055,1.22l-.615-.407a1.126,1.126,0,0,1-.6-1.022l.6-1.21m0,26.426h.615c.605,0,1.835,0,1.835.813,0,.417-.823.823-1.23.823l-1.22-.407a.918.918,0,0,1-.813-.615l.813-.615m0-21.139.962.278c.357.179.665.427.665.734,0,.615-1.22.615-1.627.615-.6,0-1.418-.208-1.418-1.022l.555-.456.863-.149m0-12,.556.228.258.387c0,.407-.605.605-.814.813h-.6c-.407,0-1.627-.208-1.627-.813,0-.516.407-.714.893-.764l1.339.149m0-3.045.278.228.129.377-.407.813h-.813c-.407,0-1.617-.208-1.617-1.022,0-.4.8-.605,1.21-.605l1.22.208m0-2.847.407.605-.407.208-1.012.2c-.615,0-1.825-.2-1.825-.813s.8-.605,1.21-.605l.813.05.813.357m-.2,47.376-.407.942-1.022.476c-.605,0-1.21-.813-1.21-1.419a1.3,1.3,0,0,1,1.21-1.22l1.022.377.407.843m0-50.024-.456.635-.764.179c-.615,0-1.825-.208-1.825-1.022,0-.407,1.012-.605,1.21-.605a2.977,2.977,0,0,1,1.637.427l.2.387m-3.452,42.089-.05,1.2-.357,1.042c-.208,0-.208-2.034-.208-2.242s0-2.232.208-2.232l.357,1.042.05,1.19m.327-7.569.278.665a.958.958,0,0,1-1.012,1.012.928.928,0,0,1-.813-1.012c0-.407.407-1.022.813-1.022l.734.357m3.323.258.407.2h-.407c-.6.208-1.012.407-1.012,1.022a2.072,2.072,0,0,0,1.012,1.617l.407.208h-.407c-.6.2-1.22.605-1.22,1.012a2.357,2.357,0,0,0,1.22,1.835l.208.2h-.208c-.6.208-1.627.208-1.627,1.22,0,.615.813,1.23,1.22,1.428-.605.407-1.418.813-1.418,1.428a1.236,1.236,0,0,0,.605,1.22,3.2,3.2,0,0,1,1.22-1.627l.814-.208.813.407c0,.813-1.22,1.627-1.627,2.034v.407l.615.2c1.012,0,1.22-.813,1.418-1.419a1.991,1.991,0,0,0,1.637,1.419c.813,0,1.22-.605,1.419-1.419,0,.813.615,1.627,1.22,1.627,1.022,0,1.428-.813,1.627-1.627.407.605.813,1.627,1.825,1.627.615,0,1.22-1.022,1.22-1.627a2.394,2.394,0,0,0,2.043,1.825,2.1,2.1,0,0,0,1.419-1.012c.208.605.615,1.825,1.428,1.825a1.507,1.507,0,0,0,1.418-1.22c.208.615.615,1.22,1.22,1.22a1.343,1.343,0,0,0,1.22-1.418c0-1.012-1.22-1.22-2.034-1.012.407-.813,2.232-.813,2.232-1.835,0-1.419-1.22-1.22-2.232-1.22.605-.813,2.232-.813,2.232-2.034,0-1.022-1.825-1.022-2.43-1.022.605,0,2.232-1.012,2.232-1.825,0-.615-1.627-1.22-2.232-1.22.605-.407,2.232-1.012,2.232-1.825,0-1.022-.615-1.22-1.428-1.22a1.969,1.969,0,0,0,1.428-1.835c0-.813-1.022-1.22-1.627-1.22.407-.407,1.419-1.012,1.419-1.835,0-.8-.813-1.012-1.419-1.012a2.586,2.586,0,0,0,1.419-2.034c0-.605-1.419-1.012-1.825-1.22.605-.2,1.627-.813,1.627-1.627s-1.22-1.22-1.627-1.22c.407-.407,1.627-1.012,1.627-2.034,0-.615-1.22-1.022-1.627-1.022a2.34,2.34,0,0,0,1.22-1.825c0-.813-1.419-1.22-2.034-1.22a2.693,2.693,0,0,0,1.22-1.825c0-.813-1.22-1.022-1.627-1.22a1.975,1.975,0,0,0,1.428-1.627c0-1.022-1.428-1.22-2.242-1.22.615-.407,1.428-1.022,1.428-1.835,0-.605-1.428-1.012-2.034-1.22.605-.208,1.627-1.22,1.627-1.825s-.813-1.022-1.22-1.022l.605-1.012,1.627.407c1.627,10.574,3.254,21.149,3.254,31.515,0,5.079,0,10.574-.407,15.653a65,65,0,0,0-16.675-2.44h-3.869l-3.244.407a83.978,83.978,0,0,0,1.21-14.225V56.74a201.662,201.662,0,0,0-3.452-34.778l2.847.208-1.141.476-.486.407-.2.536c0,1.23,1.012,1.428,1.825,1.637-.605.2-1.627.813-1.627,1.419,0,.813,1.428,1.627,2.232,1.627-.605.208-1.825.813-1.825,1.418,0,1.022,1.428,1.428,2.034,1.637-.407.2-1.419.605-1.419,1.22s1.21,1.627,1.825,1.627a2.243,2.243,0,0,0-1.419,1.627c0,.813,1.21,1.22,1.825,1.418-.615.208-1.825.615-1.825,1.627,0,.615,1.21,1.22,2.024,1.419-.605.208-1.617.813-1.617,1.428,0,.813,1.21,1.627,1.617,1.835-.407.2-1.22.813-1.22,1.418s1.22,1.22,1.627,1.428c-.407.407-1.627,1.012-1.627,1.627s1.22,1.418,1.835,1.627c-.615,0-1.428.605-1.428,1.21,0,.813.813,1.428,1.627,1.627l.208.208h-.208c-.813.2-1.418.407-1.418,1.22l.407,1.042,1.012.585h.208l-.208.208c-.6,0-1.418.605-1.418,1.012l.486.992.932.843-.2-1.627.2-.208,1.22-.2c.407,0,1.637.2,1.637.813s-1.022.605-1.23.605a1.7,1.7,0,0,1-1.627-.605v1.22m-5.485,47.168.079-.635-.079-.784a24.814,24.814,0,0,1,5.485-.208l6.716,1.022,5.079,1.22c1.835.605,3.869,1.627,5.9,1.627h.407c3.66,0,5.9-1.835,5.9-5.694a6.267,6.267,0,0,1,1.22,2.847l-.208,2.034a10.685,10.685,0,0,0,3.859-9.156,6.463,6.463,0,0,1,1.627,4.067,7.828,7.828,0,0,1-2.639,5.287l3.045-.605.208.2-1.8,1.726a10.73,10.73,0,0,1-6.745,2.143c-4.474,0-8.134-2.034-12.41-3.254a43.107,43.107,0,0,0-10.168-2.242l-1.012-.2-2.391.149-2.083.456m1.835-50.421-1.2,1.845-.427,2.014a6.867,6.867,0,0,0,1.012,3.452,4.611,4.611,0,0,1-1.419-3.65,4.191,4.191,0,0,1,1.111-2.946l.922-.714m.2-11.6-.258.734-.555.288-1.012-.407A7.756,7.756,0,0,0,472.169,48a4.969,4.969,0,0,1-2.44-4.275,4.036,4.036,0,0,1,1.428-3.254,5.265,5.265,0,0,0-.813,3.055c0-.417.407-.615,1.012-.615l.486.258.327.556M469.5,73.286l.843-.278a1.017,1.017,0,0,1,0,2.034,1.136,1.136,0,0,1-1.22-1.022l.377-.734m.228-46.235.556.278.258.744a.875.875,0,0,1-.814.813.928.928,0,0,1-1.012-.813l.278-.744.734-.278m-.2,44.529.635.258.178.555V72.6l-.208-.208c-.605,0-1.22.407-1.22.813l-.407-.813.278-.555.744-.258m.139-2.559,1.28-.486c-1.825,1.022-2.847,3.452-3.045,5.486l-.208-1.825a3.452,3.452,0,0,1,.942-2.361l1.032-.813m-.545,25.444-1.428.913a3.941,3.941,0,0,1,3.869-3.462,5.158,5.158,0,0,1,4.057,2.44,4.358,4.358,0,0,1,.615,2.44,5.971,5.971,0,0,1-.615,2.857,13.111,13.111,0,0,1-2.639,3.859l-2.847.605a2.482,2.482,0,0,0-1.22-2.034c2.242-.605,4.88-1.617,4.88-4.067,0-2.034-1.22-3.859-3.254-3.859l-1.419.308m.6-62.731L467.973,29.9a4.67,4.67,0,0,1-.685-2.44,4.523,4.523,0,0,1,1.22-3.055,4.608,4.608,0,0,1-.605-2.232v-.615a4.831,4.831,0,0,1,1.012,2.649l-.2.615-.208-.208a4.84,4.84,0,0,0-.605,2.44,7.354,7.354,0,0,0,1.022,3.75l.8.932m-.407,19.105-.426,1.885L467.7,54.3a5.333,5.333,0,0,0,1.022-3.462,6.434,6.434,0,0,0-1.428-3.859l1.478,1.627.555,2.232m-1.369-15.445.556,2.232a5.073,5.073,0,0,1-1.627,3.66,5.892,5.892,0,0,0,1.022-3.66,5.382,5.382,0,0,0-1.428-3.859l1.478,1.627m-.665,14.433.556.278.258.734c0,.407-.407,1.022-.813,1.022-.615,0-.813-.615-.813-1.022l.179-.655.635-.357m-.615,3.869.357.962.05,1.27c0,.208,0,2.034-.407,2.034l-.407-2.034.407-2.232m.208,20.325.913.258.307.556c0,.813-.407,1.022-1.22,1.022a.957.957,0,0,1-1.022-1.022l.357-.556.665-.258m-1.022,32.943.536-1.7a1.478,1.478,0,0,1,1.3-.942,1.721,1.721,0,0,1,1.428.813,3.27,3.27,0,0,1-1.478,1.141l-1.786.684m.813-62.216-.129,1.19-.278,1.042c-.407,0-.605-2.034-.605-2.232s.2-2.242.605-2.242l.278,1.042.129,1.2m.536,17.885.486,2.242a5.56,5.56,0,0,1-1.428,3.66,6.28,6.28,0,0,0,1.022-3.66,5.589,5.589,0,0,0-1.627-3.869l.912.724.635.9m0-25.672.278.665a1.093,1.093,0,0,1-1.012,1.022,1.318,1.318,0,0,1-1.022-1.022,1.306,1.306,0,0,1,1.022-1.012l.734.347m-.536,27.914-.179.665-.635.347c-.407,0-.813-.605-.813-1.012a.932.932,0,0,1,.813-1.022l.635.288.179.734M468.2,32.6l1.607,1.825a4.218,4.218,0,0,1,.734,2.391c0,2.649-1.825,4.672-1.825,6.914,0,2.649,2.639,4.474,2.639,7.321,0,3.254-3.254,4.88-3.254,7.936,0,2.232,1.835,4.057,1.835,6.5,0,2.649-3.055,4.484-4.484,6.507.813-1.825,3.462-4.672,3.462-6.3,0-2.44-1.627-4.275-1.627-6.706,0-3.462,3.055-5.089,3.055-7.936,0-2.639-2.648-4.265-2.648-7.321,0-2.44,1.835-4.265,1.835-6.706,0-3.66-4.682-3.869-4.682-8.947,0-1.835,1.419-3.254,1.012-4.89a1.853,1.853,0,0,1,.615,1.428c0,1.22-.615,2.242-.615,3.462a4.792,4.792,0,0,0,.734,2.619l1.607,1.9m-3.968,52,.208-.605a5.607,5.607,0,0,0,3.254-6.1,32.258,32.258,0,0,0,7.926,2.034l5.089.407v.407a3.919,3.919,0,0,0-2.847,3.66,1.083,1.083,0,0,0-.615.813c0,1.22,2.242,2.232,3.055,2.232,0,.615.208,1.22.813,1.22.813,0,1.022-.605,1.022-1.22,1.012,0,3.244-1.012,3.244-2.232a.875.875,0,0,0-.814-.813c-.2-1.627-1.21-3.462-3.045-3.66v-.208a45.417,45.417,0,0,0,7.529,0v.407l-.556,3.214c-1.032,3.363-3.214,7.063-4.127,10.416l-.813-.407c-1.22,0-2.033,1.627-2.033,2.639l.615,1.22c-1.627.407-3.66,2.043-3.66,3.869,0,1.012.813,1.419,1.419,1.825l-4.275-.2h-2.033l2.033-2.242a7.056,7.056,0,0,0,1.627-4.474,5.646,5.646,0,0,0-1.627-4.265,6,6,0,0,0-4.057-1.627c-3.055,0-4.077,2.232-4.077,4.88V96.8a3.278,3.278,0,0,1,2.857-1.627,2.355,2.355,0,0,1,2.44,2.44c0,2.043-2.44,3.462-3.869,4.067v-.2c0-1.22-2.44-1.825-3.462-2.034-1.22-2.44-1.419-6.1-1.419-8.749l-.05-3.045.248-3.055m0-59.369-.2.813a4.453,4.453,0,0,1-.813-2.649v-.615l.734,1.22.278,1.23m0,45.541.208.615c0,.605-.407,3.254-1.022,3.254-.4,0-.4-.407-.4-.615a8.652,8.652,0,0,1,.764-2.827l.446-.427m.228,4.424.387.665a1.149,1.149,0,0,1-1.22,1.022.966.966,0,0,1-1.012-1.022,1.093,1.093,0,0,1,1.012-1.022l.833.357m-3.68,32.993.714-1.141a1.864,1.864,0,0,1,1.319-.684,7.007,7.007,0,0,1,2.232,1.012l-4.265.813m-2.44-64.656-.1-.665-.714-.357-.208.2.417,1.428-.417,1.835.744-1.071m1.5-20.9-1.012-.407-2.043-3.452,1.23.605M456.1,105.951h-.605l.2-1.627c3.264,0,8.541-.407,10.168-3.859.615.2,1.835.605,1.835,1.21,0,2.6-5.258,3.7-8.838,4.087l-2.758.188m.208-65.073-.178-1.042c-.129-.327-.337-.585-.635-.585l-.407.208-.208.2c0,.407.813.813.813,1.627a16.588,16.588,0,0,1-.813,3.055l1.022-1.577.406-1.885m-.565,67.662-1.061-.357c.407-1.22.813-1.22,2.232-1.22a2.387,2.387,0,0,1,2.242,1.627h-2.033l-1.379-.05m1.17-85.15-1.627-.407-2.639-3.254,2.232.2m-4.315-2.936.317.665-.06.655-.407.2a1.679,1.679,0,0,1-1.428-2.034l.407-.2.625.208.546.506m-1.577,3.145,2.242-.407,2.43,3.045-2.024.208m-2.847.605-2.648-2.44,1.627-.813,2.648,2.847m-6.517-.813,1.22-.813,2.45,2.649-1.23.615m-1.3-9.384.893-.179a2.655,2.655,0,0,1,2.649,2.242,2.488,2.488,0,0,1-2.649,2.232,2.3,2.3,0,0,1-2.44-2.232,2.152,2.152,0,0,1,.764-1.577l.784-.486m1.24,40.174,2.172-1.339a13.049,13.049,0,0,0,3.184-3.839,17.363,17.363,0,0,0-2.242,1.835,20.606,20.606,0,0,1-5.9,3.254l-.2-1.012.407-1.428c2.847-1.428,4.88-6.3,6.309-6.1h.407c2.44,1.835,4.871,3.859,5.486,6.914,1.22-2.44,3.66-3.055,4.474-5.892a42.2,42.2,0,0,0,1.835-8.749l2.837-4.067.407,11.388v1.022l-2.629,4.027c-2.817,4.047-6.21,8.015-10.178,10.6-2.033,1.22-5.079,3.055-7.529,3.055-.813,0-1.825-.208-1.825-1.22a2.992,2.992,0,0,1,.813-1.627c5.694-.615,8.342-2.44,10.574-7.519-2.034,3.045-6.914,6.5-10.574,6.5H443.9v-.407a2.475,2.475,0,0,1,.615-1.825c4.275-.407,7.727-1.418,9.354-5.486-1.22,2.44-7.321,4.265-9.969,4.88a1.366,1.366,0,0,1-.813-1.022,2.058,2.058,0,0,1,.813-1.418l2.381-.526m-2.172-29.372L442.073,24l.813-.813,2.44,2.242m-.813-10.773-.486.635-.942.179c-.4,0-1.418-.208-1.418-.813s1.022-.823,1.418-.823l.942.179.486.645M441.26,24.819l2.232,2.232c-.605.407-1.012,1.022-1.617,1.22l-1.627-2.44,1.012-1.012m-.2-6.1,1.577.456a1.666,1.666,0,0,1,.655,1.369,2.065,2.065,0,0,1-2.232,1.825,2,2,0,0,1-2.033-1.825,1.679,1.679,0,0,1,.635-1.369l1.4-.456m-.208,10.574L439.226,30.3l-1.012-3.254a1.371,1.371,0,0,0,1.012-.605l1.627,2.847m-2.847,76.857.159-1.4-.159-1.24c2.44,2.232,4.88,4.265,8.541,4.265,1.835,0,4.88-.605,4.88-3.254a3.878,3.878,0,0,0-.813-2.44c1.835,0,4.067.813,4.067,3.055,0,3.66-4.266,5.287-7.321,5.287a10.889,10.889,0,0,1-7.2-2.579l-2.153-1.7m.813-83.444.446.436.169.655a1.848,1.848,0,0,1-3.67,0c0-1.022,1.022-1.428,1.835-1.428l1.22.337m-.605,8.005-1.428.813-1.22-3.254,1.419-.605m-1.22-13.015,1.141.159c1.18.3,2.321,1.061,2.321,2.282,0,1.627-2.034,2.43-3.462,2.43-1.22,0-3.244-.8-3.244-2.43a2.485,2.485,0,0,1,2.222-2.311l1.022-.129m0,17.082-2.232.2-1.012-3.254,2.024-.407m.813-2.232-.139.645a1.585,1.585,0,0,1-1.488.774,1.378,1.378,0,0,1-1.419-1.419c0-.615.813-1.22,1.419-1.22l1.121.377.506.843m-.684,70-2.361-.665a2.483,2.483,0,0,1,4.88.605v.407l-2.519-.347M431.856,14.6l-.555-.565c0-.615,1.012-1.022,1.419-1.022s1.22.407,1.22,1.022c0,.407-.813.813-1.22.813l-.863-.248M431.3,96.389l2.837.665,2.847.357c1.022,0,2.45-.208,2.45-1.428a7.7,7.7,0,0,0-.813-2.639,1.374,1.374,0,0,0,.813-1.428,4.3,4.3,0,0,0-.615-2.43H437.4l.466-1.885c1.468-3.829,5.406-3.918,9.493-4.632l2.44-.605c1.022,5.079.208,14.84,2.648,19.115h-.615a7.7,7.7,0,0,0-3.045.407c1.22.407,2.232,1.012,2.232,2.232,0,2.034-3.045,2.649-4.474,2.649-4.067,0-6.3-2.847-9.146-5.287A8.042,8.042,0,0,0,432.313,97l-1.012-.615m.2-59.577-.407-.2.407-.407.615.407m-2.242,72.79,1.786-.913a1.99,1.99,0,0,0,.863-1.528,1.866,1.866,0,0,0-.813-1.627,3.73,3.73,0,0,0,2.639-3.859,4.712,4.712,0,0,0-.813-2.847c2.232,1.022,3.66,4.067,3.66,6.507,0,2.9-2.41,3.73-4.89,4.057l-2.43.208m2.44-77.264h-2.033l-.813-2.847,1.835-.407m-2.242,7.727.456-.714a7.571,7.571,0,0,1,2.8-.714l-3.254,1.428m2.034-17.895v.605c-.2,1.22,1.22,2.232,2.44,2.232a3.639,3.639,0,0,0,1.825-.813c.208,1.627-1.825,2.847-3.244,2.847s-3.254-1.012-3.254-2.44a2.319,2.319,0,0,1,.655-1.6l1.577-.833m-.407,8.739-.456.635-.764.179c-.605,0-1.419-.2-1.419-.813s.813-1.012,1.419-1.012l.764.278.456.734m.268-11.864.139.684a1.568,1.568,0,0,1-1.627,1.419c-.813,0-1.825-.605-1.825-1.419a1.772,1.772,0,0,1,1.825-1.627l1.121.436.367.506m.546,22.438.893-.407.129-1.012c1.21-.407,2.232-1.22,2.024-2.44v-.208c-.605,1.022-2.024.615-3.045.615-1.627,0-3.859,1.22-3.859,3.254l.605-.407,1.022.407.813-.208,1.419.407m-3.045-8.541.605,2.847-1.825.208-.823-2.857m0,37.645-.2-1.24,1.022,2.034M426,93.542l.417-.764a2.73,2.73,0,0,1,2.232-.863,2.153,2.153,0,0,1,2.44,2.44v.813L426,93.542M425.6,84.8l.913-2.073c5.128-9.721,17.974-9.969,17.6-16.635l1.627.2c2.847,0,6.914-2.44,8.948-4.067,5.089-3.859,8.342-8.947,10.773-14.433a108.235,108.235,0,0,1-4.871,31.118,31.9,31.9,0,0,1,15.038-3.462h1.627l3.462.2-.813,3.462-4.275-.2L467.7,77.69l-.208-.813v1.012c0,1.428-1.825,5.287-3.859,5.486l-.208.407a10,10,0,0,1-3.65,1.627,20.987,20.987,0,0,0,3.452-.605l-.2,1.825-3.66,1.22,3.66-.407-.208,1.22a7.394,7.394,0,0,1-3.254,1.428l3.462-.2V90.9a15.484,15.484,0,0,1-3.462,1.419l3.462-.407v1.022a6.815,6.815,0,0,1-3.462,1.627h.615a8.142,8.142,0,0,0,3.045-.615l.2.813a8.422,8.422,0,0,1-3.859,1.835,9.158,9.158,0,0,0,4.067-.813,33.165,33.165,0,0,0,1.825,3.869c-2.034,3.045-6.9,3.65-10.168,3.65a3.118,3.118,0,0,0-2.639-1.825c-2.44-7.122-.2-14.85-2.847-22.775-1.012-3.055-2.232-5.9-2.44-8.947v.605a34.2,34.2,0,0,0,1.835,9.969l-.407.2a4.783,4.783,0,0,1-1.428-2.837V78.1a5.322,5.322,0,0,0,1.022,3.452l-.813.605a5.8,5.8,0,0,1-2.242-4.057v1.012a6.323,6.323,0,0,0,1.22,3.254h-.813l-1.131-.784a5.158,5.158,0,0,1-1.716-3.69V78.5a5.856,5.856,0,0,0,1.419,4.057,8.474,8.474,0,0,0-3.859,1.022,4.965,4.965,0,0,1-2.44-4.265l-.2.813a5.8,5.8,0,0,0,1.825,3.859l-.6.407c-1.835-.407-2.649-2.649-3.055-4.265A6.156,6.156,0,0,0,438.215,85a6.779,6.779,0,0,0-1.23,4.484c-3.055-.308-6.438-.843-9.067-2.549L425.6,84.8M425.289,18l1.121-.308a1.22,1.22,0,1,1,0,2.44c-.813,0-1.627-.407-1.627-1.22l.506-.913m.307,9.255.635.278.179.734c0,.208-.2.615-.813.615a.9.9,0,0,1-.813-.615l.258-.734.555-.278m.813-4.682-.2.605c0,1.428,1.22,1.835,2.44,1.835l1.22-.2c-.2,1.22-1.627,1.627-2.639,1.627s-2.857-.407-2.857-1.835a1.665,1.665,0,0,1,.635-1.25l1.4-.784M425.7,86.449l1.448,1.1a19.357,19.357,0,0,0,11.07,2.946l.2,1.22c0,.813-.407.813-1.22.813-3.66,0-12.2-2.44-13.223-6.309,0-.407.208-1.012.615-1.012l1.111,1.24M425.19,29.9,426,32.745l-2.034.407-.605-2.649m1.825-8.739-.308.734-.913.278c-.407,0-1.22-.407-1.22-1.012s.813-1.022,1.22-1.022l.913.278.308.744m-3.373,6.686.734-.179a.747.747,0,0,1,.814.813.875.875,0,0,1-.814.813.928.928,0,0,1-1.012-.813l.278-.635m-.486,27.071h-.2l.605-.2M421.133,90.5l.764-1.071,1.061-.764a3.107,3.107,0,0,1,2.034,2.649l-.407,1.627L422.7,91.865,421.133,90.5m.813-67.314.555.258.248.555a.743.743,0,0,1-.8.823c-.407,0-1.022-.208-1.022-.823l.357-.555.665-.258M421.54,35.8l-.615-.407a.655.655,0,0,1,.615-.615c.2,0,.407.208.407.615l-.407.407m.605-5.089.605,2.649-1.617.605-.615-2.44m-.179-5.872.179.387c0,.605-.2,1.012-.813,1.012a.929.929,0,0,1-.814-1.012.9.9,0,0,1,.814-.615l.635.228m-.1,3.819.278.625c0,.615-.407.823-1.012.823a.75.75,0,0,1-.813-.823.74.74,0,0,1,.813-.8l.734.179m-.129,4.9-1.419.615-.615-2.242,1.22-.813m-1.825-4.265.734.149.278.456a.961.961,0,0,1-1.012,1.022.939.939,0,0,1-.823-1.022l.258-.456.565-.149m-.06,9.295.258.466c0,.407-.407.407-.813.407-.208,0-.407,0-.407-.407s.2-.615.407-.615l.555.149m.258-1.369-.992.436-.843.585-.2-2.44,1.428-1.022m.2-1.419-.258.555-.555.258a.932.932,0,0,1-1.022-.813.963.963,0,0,1,1.022-1.022l.555.278.258.744m-3.055,6.1-.605-.615c.2-1.012.2-1.627,1.012-2.034l.208,2.034-.615.615m-.992,63.009.387-.992,1.22-.605c3.055-1.835,6.914-3.462,10.574-3.462,3.254,0,7.926,1.22,7.926,5.287a3.637,3.637,0,0,1-3.651,3.66,10.969,10.969,0,0,1-3.263-.813,3.284,3.284,0,0,0,3.055-3.055c0-2.44-2.847-2.847-4.682-2.847a17.938,17.938,0,0,0-9.959,3.055l-2.034,1.22-.407-.615.833-.833m-.228-59.359-1.617-.2a7.631,7.631,0,0,1,1.825-2.847l-.208,3.045m-.407,8.541-2.232-.2c1.22-2.034,1.835-4.672,2.847-6.914l.605.2a.943.943,0,0,0,1.022-.605v-2.44l-.615-2.034.615-.2,1.418-1.022-.2,1.022c0,.605.813,1.22,1.428,1.22a1.328,1.328,0,0,0,.2-2.649l3.254-1.419-.2.407a1.351,1.351,0,0,0,1.22,1.418c.8,0,1.21-.605,1.21-1.418l-.8-1.022c5.486-1.627,11.993-.813,16.268-2.847,6.5-3.045,5.486-7.122,14.84-7.936l.2.615a.943.943,0,0,1-.605,1.022,15.936,15.936,0,0,1,4.474-.407,7.093,7.093,0,0,1,6.914,6.706l-.208,2.242a5.128,5.128,0,0,0-2.639-2.034c-.2-2.649-1.825-5.9-4.88-5.9-5.892,0-2.242,6.309-7.112,9.969,1.627-.407,2.847-3.055,3.254-4.682a4.739,4.739,0,0,1,3.045,2.847,4.817,4.817,0,0,0-2.649-4.067l.407-1.012c1.22,1.012,2.648,1.825,3.462,3.254a14.375,14.375,0,0,0-2.44-4.067l1.012-.615a10.225,10.225,0,0,1,2.648,3.254,17.131,17.131,0,0,0-1.428-3.452s4.077,2.43,4.077,5.079a3.046,3.046,0,0,1,2.837,2.034,10.824,10.824,0,0,1-2.639,4.474v.208c0,2.837-1.012,5.694-1.627,8.134-.813,2.44-2.847,3.859-3.462,6.091-2.034-8.124-8.531-5.892-8.531-14.84a15.439,15.439,0,0,1,.605-4.265,14.084,14.084,0,0,0-1.627,5.684,8.9,8.9,0,0,0,1.428,4.484,9.971,9.971,0,0,1-2.242,5.684l.2-1.617V47.386l-.813,3.452c-.605.407-1.012,1.022-1.825,1.23l.605-2.44-1.419,2.837-1.22.615.407-2.242a5.982,5.982,0,0,1-1.22,2.242l-1.012.2.2-1.418v-.813a4.151,4.151,0,0,1-.813,2.232l-1.22.208.407-2.44-1.022,2.44-1.012-.208.605-2.44-1.22,2.44-1.22-.2a10.277,10.277,0,0,0,.615-2.649,6.419,6.419,0,0,1-1.22,2.649h-1.627a9.751,9.751,0,0,0,1.012-3.452,6.338,6.338,0,0,1-1.825,3.452h-.605c-2.847,0-5.3,2.242-6.924,3.869,0-1.428,4.077-5.5,4.077-9.761l-.208-1.22c-4.275,2.232-7.926,3.66-12.608,3.859l-2.242.2m-3.859,3.67,3.045.863,3.055.555,5.694.407v.407l-2.639,3.462a4.517,4.517,0,0,1-2.242-1.022,4.1,4.1,0,0,0,1.835,1.428l-.615,1.012a3.428,3.428,0,0,1-2.034-.615l1.627,1.22-.615.813-1.012-.407-1.22-.407,1.22.813.813.407-.407,1.22h-.407a2.676,2.676,0,0,1-2.034-.605,4.274,4.274,0,0,0,2.034,1.22h.2l-.2,1.012v-.605l-.208.813a3.627,3.627,0,0,1-2.034-.813,4.665,4.665,0,0,0,2.034,1.419v.615a4.785,4.785,0,0,1-2.43,0,4,4,0,0,0,2.232.407v.813l.2,1.627a7.008,7.008,0,0,1-2.232.605h.813a1.772,1.772,0,0,0,1.419-.2l.208.407.407.605L413.6,72.8c.407-.2,1.012-.407,1.22-.813l.813-.407,1.012.407a4.479,4.479,0,0,1-1.418,1.835,3.639,3.639,0,0,0,1.835-1.627l.813.2,1.825-.407a1.366,1.366,0,0,1,.813,1.022l-.2-1.22.407-.208.813.813-.407-1.22.407-.2.407,1.012-.208-1.012,2.232-1.825a1.115,1.115,0,0,0,.615.813l-.615-1.428c0-.605.407-3.254,1.022-3.462l.6.615c.208,2.034,1.22,3.66,3.462,3.66.407,0,1.835,0,1.835.407-.208,2.232-5.7,3.452-7.529,3.859h1.627a10.032,10.032,0,0,1-8.134,4.682l-2.034-.407c-6.3-1.428-8.134-7.529-8.134-13.63l.635-5.357,1.4-5.208m-.556-3.432,2.153.536,2.47.248h2.034a31.321,31.321,0,0,0,10.366-2.639l.615,1.419c0,1.627-1.835,3.254-2.44,4.474h-1.419l-.407-1.022V54.3h-1.22l-.407-1.22L419.7,54.3h-2.034l-.407-1.22-.2,1.22h-1.23l-.407-1.428V54.1h-.605l-1.022-.208a2.458,2.458,0,0,1-.407-1.627,2.3,2.3,0,0,0,0,1.627l-1.21-.407a2.321,2.321,0,0,1-.615-1.627,1.747,1.747,0,0,0,0,1.418c-1.419-.2-6.507-2.232-6.716-3.65l1.528.129,1.786.506m1.349,53.328.833-.674.407-.833a27.335,27.335,0,0,1-8.948,3.055h.813a20.841,20.841,0,0,0,4.444-.615l2.45-.932M407,106.15l-1.934.208a12.777,12.777,0,0,1-6.1-1.428,16.633,16.633,0,0,0,12.2-7.727,3.409,3.409,0,0,1,1.825,2.649,2.533,2.533,0,0,1-.8,1.627c-.208-.407-.813-.615-1.22-.813a2.245,2.245,0,0,1,1.012,2.034c0,1.319-1.22,2.232-2.7,2.817L407,106.15m1.121-10.773-2.45,2.8c-2,2.311-3.154,3.3-7.717,4.523l.605.2c2.847,0,7.876-3.115,9.225-6.2l.337-1.319m-11.388,9.354v-1.022a6.809,6.809,0,0,0,1.22-2.034c4.672-.813,9.146-7.727,8.531-12.191.823.605,2.45,2.837,2.242,4.057a10.2,10.2,0,0,0,3.462-2.034c0,3.869-3.66,8.749-7.122,10.376l-4.1,1.577-4.236,1.27m1.012-32.745-2.6,1.448-2.281,1.607a3.426,3.426,0,0,0-.813-2.242,14.382,14.382,0,0,1,4.067-.813h1.627m-1.686-4.305L394.39,69.09a10.1,10.1,0,0,0-2.341,3.512l-1.22-1.428a31.024,31.024,0,0,1,3.66-3.65,22.124,22.124,0,0,0-4.067,3.244l.813-2.232a9.122,9.122,0,0,1,5.5-2.034h1.22l-1.895,1.18m-.387-9.493-2.321,3.888a72.851,72.851,0,0,0-3.531,8.283l-1.022-.605a51.976,51.976,0,0,1,2.847-6.716,38.225,38.225,0,0,0-3.452,6.309l-1.022-.407,2.649-6.914s5.079-6.507,8.739-7.321l-2.887,3.482m-9.93,18.688.873,1.091,1.171.942.813-.813-1.508-.466m-2.162-4.216,2.649.813-.814.813m-2.033-42.3.2-.605,1.022.605m-.05,45.977-1.17-.833c.2.813,1.22,1.428,2.033,2.034l.615-.813-1.478-.387M384.728,85l2.648-2.847a23.84,23.84,0,0,1,5.486-.605c1.627,0,3.869.2,5.089,1.22h-.813a15.467,15.467,0,0,0-9.761,3.452l-1.329-.754L384.728,85m-.407,18.51.407-2.242a11.373,11.373,0,0,0,4.682,1.428c3.452,0,5.277-3.045,6.706-5.694a5.462,5.462,0,0,1,.615,3.055A4.059,4.059,0,0,1,395.3,103.3a4.645,4.645,0,0,1,.605,2.242l-.2,1.776-.635,1.151-.258-1.409c-.605-1.309-2.133-2.024-3.888-2.46l-6.606-1.091m3.234-33.27,2.053,1.24c1.27,1.022,2.242,2.341,2.242,3.561a1.568,1.568,0,0,1-1.627,1.418,5.781,5.781,0,0,1-2.44-.813l2.232-2.639H388.8c-2.034,0-3.869-.615-4.682-2.44.208-.813.813-.813,1.428-.813l2.014.486M385.74,36.207l-1.091-.159-.942-.456.208-.605a2.831,2.831,0,0,1,3.055-.813l.605-1.022-1.428-1.825a4.681,4.681,0,0,1,2.45-1.23,5.036,5.036,0,0,1,.813,2.45,3.648,3.648,0,0,1-2.232,3.373l-1.438.288m-2.034,25.206V54.707a89.652,89.652,0,0,1,9.156-15.246,104.683,104.683,0,0,0-9.156,13.411V49.013c3.462-5.486,8.541-12.806,14.85-15.048-5.188,6.716-9.225,12.618-12.211,19.79l-2.639,7.658m0,6.11V64.061c0-1.428,4.682-9.761,5.5-11.189,2.44-3.859,5.694-8.124,9.969-9.959a111.879,111.879,0,0,0-12.608,25.831l-.823-.208-1.627.407a146.027,146.027,0,0,1,9.156-18.708l-5.009,8.491-4.553,8.8m2.44,12.806-2.44-1.22,1.835,2.034m-1.885-51.393,2.083-.863-.813-1.022a4.674,4.674,0,0,0-2.44,3.66l.446-1.042.724-.734m-1.17,50.382.794,1.091,1.24.932.813-.813-1.5-.526m.685-53.357-.814-1.012a5.19,5.19,0,0,0-2.43,3.65,3.2,3.2,0,0,1,1.161-1.7l2.083-.942m-1.22-1.419-.605-1.022c-1.419,1.022-2.44,2.034-2.44,3.66a2.552,2.552,0,0,1,1.071-1.7l1.974-.942m-3.125-.407,1.9-1.022-.605-.813c-1.22.813-2.44,2.034-2.44,3.462l1.141-1.627m.694-2.45-.615-.813a4.675,4.675,0,0,0-2.44,3.67,3.763,3.763,0,0,1,1.141-1.805l1.915-1.051m-1.022-1.418-.813-.615a4.079,4.079,0,0,0-2.44,3.462,3.316,3.316,0,0,1,1.171-1.726l2.083-1.121m-3.66,72.393-.575-1.379c-.7-1.339-1.766-2.48-3.293-2.48l-.605.2c.149.456,1.9,1.369,3.284,2.49l1.19,1.171m-1.022-18.688-1.19.9-.843,1.111-2.232.208a14.317,14.317,0,0,0,2.639-3.462l2.034-.407,2.242.407-2.649,1.24M371.1,93.244l1.26.932,1.18,1.2c-.2-1.22-1.419-3.66-2.837-3.66h-1.428l1.825,1.528M367.24,57.96,369,57.7l1.9.06a1.765,1.765,0,0,0,1.418,0l.208.407-5.287-.208m3.66-37.417-.407-.407-4.265,3.254.407.407m-1.022,58.565,2.411-1.786L370.3,78.5l2.837-.208c2.44,0,5.089.407,6.924,2.232L377,80.13a24.409,24.409,0,0,0-5.773.813l-5.615,1.419M370.236,16l-.555-.337c-.605,0-4.88,5.287-5.287,5.486l.2.407c.407-.407,5.9-4.265,5.9-5.079L370.236,16m-6.864,78.762h-.2c0,.813,1.825,1.428,2.44,1.835l1.627,1.825a4.137,4.137,0,0,0-2.49-3.432l-1.379-.228m1.429-55.51.6-1.954a2.024,2.024,0,0,1,1.835-.893l.813.208a6.729,6.729,0,0,0-1.627,4.057,4.245,4.245,0,0,0-3.254,2.242,2.322,2.322,0,0,1-.615-1.627,1.572,1.572,0,0,1,.813-1.319l1.429-.714M362.558,61.62l.208-.407,1.012.2a2.267,2.267,0,0,0,2.033-2.43c.208-.407.615-.407,1.23-.407h5.486v1.617l-3.254.208,3.045.605v.615h-9.761m3.055-46.364-.615-.2-3.045,3.452.605.407m1.22,18.51-.308.932-.913.486c-.605,0-1.21-.813-1.21-1.418A1.361,1.361,0,0,1,362.558,36l.913.407.308,1.022m.615,62.017-.407-1.26a4.015,4.015,0,0,0-3.254-2.4h-.605l1.825,1.518,2.44,2.143M367.448,6.11l-.159-.486-.456-.327c-.813,0-6.914,11.179-7.321,11.794l.407.2,3.839-5.585,3.69-5.595M357.072,65.886l.208-.605a10.873,10.873,0,0,0,4.672-3.055h10.366l-.407,1.627-3.452.407,3.452.407-.4,1.22H357.072m2.242-54.5-.407-.407-2.242,4.275.813.407m7.569,91.092,2.807-.4a11.283,11.283,0,0,0-5.7-1.428l-3.244.208c.2,2.232-2.034,3.66-3.67,4.672l6.388-2.113,3.422-.942m-5.942-27.041-3.045.417,2.034.2-1.835.813a9.566,9.566,0,0,0-1.428-2.44h6.716l-2.44,1.012m-4.88-65.063v-.208l2.242-5.089c0-.605-.615-.8-1.022-.8-.615,0-1.22,3.244-1.22,3.65l-.615,2.242.615.208m-1.22,55.1V68.336c.2-.615.407-1.022,1.22-1.022l.407.208c.407-1.428,2.034-.615,2.242-1.23h14.433l-.407,1.022-3.66.615,3.462.407-.813,1.418H353.005M352.8,86.221h-.2a3.336,3.336,0,0,0,.407-2.034l-.208-1.22,1.428-.2c10.773-2.44,19.313-11.794,19.313-23.38,0-4.275-2.837-15.455-8.541-15.455l-1.22.407c.407-1.835,2.033-2.649,3.67-2.857,0-2.43.407-4.265,3.254-5.277l-.208,1.627c0,7.321,6.1,10.574,6.1,21.555,0,13.62-9.354,23.986-22.369,26.634l-1.428.2m16.883-16.06-.813,1.418L365,71.986l3.264.407-1.022,1.428H352.6l-.208-.615c0-.407.813-.813.813-1.825v-1.22H369.68M353.61,97.867l-.625-.9-1-.367a9.212,9.212,0,0,1,1.627,6.1,6.006,6.006,0,0,0,.407-2.639l-.407-2.192m-1.22-15.911-.605-.615.605-1.825L353.2,78.1l1.022,1.012a4.1,4.1,0,0,1,1.22,2.232l-1.22.208-1.835.407m-.605-72.8h-.813l-.407,4.474.615.2m.8,70.36-.635,1.805a1.925,1.925,0,0,1-1.389,1.042c-.407,0-.407-.407-.615-.605a4.5,4.5,0,0,0,1.022-2.44,5.25,5.25,0,0,0-.813-2.034h.605a1.653,1.653,0,0,1,1.369.734l.456,1.5M348.938,0,348.3.278l-.179.744.407,13.015h.813l.208-12.816-.079-.833m-.1,43.388.178.357c0,.407-.208.615-1.022.615a.539.539,0,0,1-.605-.615c0-.407.407-.407.813-.407l.635.05m-.387,54.449-.456-1.428a7.216,7.216,0,0,0-.605,2.857,27.612,27.612,0,0,0,.605,4.265,26.429,26.429,0,0,0,.615-4.265l-.159-1.428m.684-53.1.486.635c-.2.615-.605.615-1.627.615-1.22,0-1.418-.407-1.22-.813.208-.615.615-.615,1.428-.615l.932.179m-.962,40.67-.655.734-.744.308-.813-.407a3.056,3.056,0,0,0,.813-2.242l-.2-1.419c0-.407.407-.615.813-.615.813,0,1.418,1.22,1.418,1.835l-.635,1.805m-2.817-38.409.575-.526a11.981,11.981,0,0,1,3.283-.079c.615,0,1.428.2,1.627.605,0,.813-.2.813-.813.813a13.74,13.74,0,0,1-4-.258l-.675-.556m0-38.23h-.823l.823,4.672.605-.2m2.033,34.976,2.847-.2a1.5,1.5,0,0,1,1.22,1.22,1.075,1.075,0,0,1-1.22,1.21h-5.486c-.615,0-1.022,0-1.022-1.012,0-.813.407-1.419,1.22-1.419l2.44.2m-2.44,33.35-2.242-.407H346.9m-3.869,18.51.407,2.639v-.208a8.333,8.333,0,0,1,1.428-5.892c-.714,0-1.171.556-1.458,1.27l-.377,2.192m.8-48.08,1.637-.734a33.654,33.654,0,0,0,6.507,0,3.368,3.368,0,0,1,2.242,1.428,5.084,5.084,0,0,1,.605,2.649l-.605,3.254c-.615,1.617-2.033,2.837-3.045,4.057-1.627,2.034-1.627,5.9-2.847,6.924a4.661,4.661,0,0,1-.615-2.242c0-4.067,3.055-6.1,3.055-8.739,0-.407,0-1.428-.615-1.428a.539.539,0,0,0-.605.615l.2,1.418c0,2.639-3.452,5.694-2.44,10.376a3.83,3.83,0,0,1-1.418-2.242c-.615-1.627-.417-3.869-1.23-5.089-1.418-2.034-3.045-3.859-3.045-6.091A4.718,4.718,0,0,1,342.63,53l1.21-1.022m-.724-.188L341.8,52.881a5.669,5.669,0,0,0-.992,3.66c0,4.057,3.045,4.871,3.66,7.717.407,1.835.813,4.89,2.847,5.5l.813,1.012c2.44-1.617,2.242-5.287,4.88-8.134l1.22-1.825a8.257,8.257,0,0,0,1.22-5.079,5.528,5.528,0,0,0-1.22-3.869,4.93,4.93,0,0,0-1.835-.813,1.588,1.588,0,0,0,.615-1.418c0-.813-.813-1.22-1.428-1.428l.208-.813c0-.605-1.012-1.012-1.627-1.012l.407-.615a.875.875,0,0,0-.813-.813l.208-.605a1.369,1.369,0,0,0-1.428-1.23c-.813,0-1.418.615-1.012,1.835-.407,0-.615.407-.615.813l.208.615c-.615.2-1.22.2-1.428.813v.2l.208.813c-1.022.208-1.428.615-1.428,1.627a1.236,1.236,0,0,0,.605,1.22l-1.954.744m-.506-40.442-.655-1.934-.744-.863c-.407,0-.605.407-.605.8l2.232,5.3.407-.208-.635-3.095m-4.652-.367-.407.407,1.835,4.275.6-.407m.1,18.976,2.718-.754a28.851,28.851,0,0,1,5.724-.526,51.88,51.88,0,0,1,5.694,0,22.814,22.814,0,0,1,7.122,2.44,2.494,2.494,0,0,0-1.022,2.034l.208,1.012a17.289,17.289,0,0,0-6.309-1.825L348.532,36a21.441,21.441,0,0,0-10.168,2.44l.208-1.012a2.493,2.493,0,0,0-1.022-2.034l2.539-1.161m-1.111,45.283-1.428-.813H346.5a1.721,1.721,0,0,0,1.428.407c1.627,0,.2-1.825,2.847-1.419,0-3.264,2.232-.615,2.024-3.264h13.838l-1.23,1.22-4.057.407,3.244.615L362.36,78.1h-8.134v-.208L352.8,76.877l-1.825,4.057c-2.638.208-5.9,0-8.541,0l-1.627-.605,2.232-.2-4.057-.615m-1.428-42.089-.377.932-.843.486a1.343,1.343,0,0,1-1.22-1.418c0-.813.407-1.428,1.22-1.428l.843.407.377,1.022m-4.275-11.189,2.847-3.66a17.276,17.276,0,0,1,12.409-5.486,17.8,17.8,0,0,1,5.694,1.012,19.436,19.436,0,0,1,9.553,8.947,70.386,70.386,0,0,1-9.553,1.22h-5.694a55.747,55.747,0,0,1-11.526-1.032l-3.73-1M335.11,97.3l1.835-1.518h-.615c-1.835,0-3.462,2.034-3.66,3.66l2.44-2.143m-1.428-21.654-.784-.526-.635-.694H343.85c.208.407,1.022,1.22,1.022,1.835a1.775,1.775,0,0,0,1.022,1.835h-9.354L334.5,76.669l2.857-.407-3.67-.615m-1.825-60.589-.615.2,3.055,3.66.6-.407M333.89,39.252l1.706.714a1.552,1.552,0,0,1,.942,1.319,2.522,2.522,0,0,1-.813,1.627,4.278,4.278,0,0,0-3.264-2.242,6.662,6.662,0,0,0-1.617-4.057l.8-.208A2.01,2.01,0,0,1,333.8,38.21l.089,1.042m0,55.51h-.208a4.163,4.163,0,0,0-4.057,3.66c.605-.605,1.012-1.418,1.825-1.825l2.143-1.26.3-.575m-.05-83.8L331.46,7.053,330.032,5.3a1.083,1.083,0,0,0-.615.813c0,.605,6.914,10.168,7.529,11.179l.407-.2-3.512-6.13m7.569,59.2.407.813v.407l-.407.2,2.242,2.242H331.857l-1.22-1.428,3.254-.407-3.859-.407c-.208-.605-.615-.813-.615-1.418h11.993M335.517,107.7l6.3,2.113c-1.617-1.012-3.859-2.44-3.65-4.672l-3.264-.208a10.7,10.7,0,0,0-5.684,1.428l2.827.4,3.472.942m4.93-39.668.764,1.726h-12.2l-.813-1.418,3.045-.407L328,67.314l-.407-1.022h11.794m-12.409-12.6L328,51.2c1.28-2.827,3.3-6.259,5.892-6.259,1.012,0,1.627.813,2.648,1.22l-.407-2.232a3.185,3.185,0,0,0,1.419-2.649l-.407-1.022a20.622,20.622,0,0,1,11.388-3.244l5.694.605a25.013,25.013,0,0,1,7.519,2.44l-.4,1.22a3.185,3.185,0,0,0,1.419,2.649l-.208,2.232c.813-.407,1.429-1.22,2.44-1.22,4.275,0,6.914,8.749,7.321,12l-.407.2a1.358,1.358,0,0,1-1.21-.813v.813l-2.034.208-1.22-.208-.615.813h-.407a1.855,1.855,0,0,0-1.627.813l.2.407a1.769,1.769,0,0,1-1.22,1.419l-1.012-.2-2.44,2.232c-1.012,1.022-2.44,1.428-3.452,2.034-.407.208-.407.615-.615,1.22-.813.208-1.627.208-2.034.823-1.22-.208-1.627.605-2.242,1.627.407.407.615,2.43.615,3.045s-.813.813-.813,1.825v1.835l-1.22.536a1.758,1.758,0,0,0-.605,1.3c-1.627,0-1.22.605-1.835,1.419l-.2.208a2.988,2.988,0,0,1-1.428-.615,1.855,1.855,0,0,1-.813-1.627c0-1.22-2.242-3.869-3.254-4.682l.2-.605c0-1.22-2.024-3.859-2.639-4.88v-.813c0-1.428-1.012-3.055-1.012-4.682,0-.407.605-.605.813-.8-.615-.813-.615-3.055-1.22-3.055s-.615,1.022-.813,1.22c0,.813-1.22,1.022-1.835,1.022a3.51,3.51,0,0,1-3.055-1.835c.813,0,2.242,0,2.242-1.012a.546.546,0,0,0-.615-.615l-1.22.407a1.719,1.719,0,0,1-1.012-.605c-1.418-1.428-1.825-.615-2.847-1.22l-.2.2H328.6l-1.627-.605m0,1.22v-.407l1.022.407m10.773,7.519.615,2.847v.813h-12l-.407-1.428,3.462-.605-3.66-.407-.208-1.22m.407-46.771-.2.208-.407.605c0,.813,5.485,4.672,5.892,5.079l.407-.407-2.7-2.817-1.766-1.776-1.23-.893m-.605,44.331V58.982h6.5v-.407h-6.5l.2-1.022,3.66-.605-3.66-.208.208-1.22h4.672l.813.813h-.407c.813,2.034,1.825,3.462,4.067,3.462a3.171,3.171,0,0,0,2.44-1.22l.407,1.012-.407,1.012.208,1.22h-12l-.2-1.012,3.254-.615-3.254-.2m3.859-36.2.407-.407-4.265-3.254-.407.407m1.825,71.173h-1.418c-1.429,0-2.857,2.44-2.857,3.66l1.071-1.2,3.2-2.46m-1.22-46.969.942-2.053a11.527,11.527,0,0,0,.684-6.487c2.649,1.012,3.254,2.847,3.254,5.277a4.369,4.369,0,0,1,3.859,2.857l-1.418-.407c-5.694,0-8.541,11.179-8.541,15.455,0,11.784,9.146,21.754,20.543,23.579l.407,1.22a5.829,5.829,0,0,1-.615,2.034C332.264,83.989,322.1,73.207,322.1,59.389a23.567,23.567,0,0,1,2.48-11.13l1.994-3.512m-1.657,31.624-1.19-.9-2.648-1.24,2.034-.407,2.242.407A14.361,14.361,0,0,0,328,77.69l-2.242-.208-.843-1.111M325.35,90.5l-.615-.2c-2.034,0-3.254,2.024-3.66,3.859a8.946,8.946,0,0,1,2.371-2.212l1.9-1.448M321.56,22.884l.694.764.446.962a4.488,4.488,0,0,0-2.43-3.462l-.615.615,1.9,1.121m-2.718,57.643,1.508-1.121a11.393,11.393,0,0,1,5.406-1.111l2.847.208a28.4,28.4,0,0,0,4.672,3.859c-3.65-.813-7.519-2.232-11.388-2.232l-3.045.4m1.5-56.294.694.813.446.992a5.187,5.187,0,0,0-2.43-3.67l-.615.813,1.9,1.051m-.069,3.025-.208-1.032a5.961,5.961,0,0,0-2.232-2.43l-.615.813,1.9,1.022,1.151,1.627m1.617,53.477,6.864,1.121,6.557,1.726a37.355,37.355,0,0,0,10.376,3.66l1.627.605,1.22-.407,1.428.615c.813,0,1.22-.615,1.825-.813h1.22l1.22-.208a53.582,53.582,0,0,0,9.553-3.452c1.627-.813,10.981-2.847,13.223-2.847a8.136,8.136,0,0,1,4.88,1.418c-1.825-3.244-4.067-4.265-7.727-4.464.813-1.835,3.462-2.857,5.089-3.264a4.576,4.576,0,0,0-3.462-1.22h-1.627a27.012,27.012,0,0,0,3.66-13.818c0-6.11-1.627-9.969-4.682-15.256a13.267,13.267,0,0,1-1.617-6.3l.4-3.254-2.837,1.22a3.037,3.037,0,0,0-1.835-.407c-1.012,0-2.034.2-2.44,1.22-1.022-2.44-8.333-4.275-10.574-4.682a54.471,54.471,0,0,0-5.694,0c-3.869,0-9.354.407-12.4,3.055a2.68,2.68,0,0,0-2.043,1.627,2.887,2.887,0,0,0-2.44-1.22,3.022,3.022,0,0,0-1.825.407l-2.847-1.22.407,3.254a13.163,13.163,0,0,1-1.627,6.3c-3.055,5.089-4.682,9.354-4.682,15.256a27.012,27.012,0,0,0,3.66,13.818h-1.627a5,5,0,0,0-3.65,1.22c1.825.407,4.464,1.428,5.277,3.264-3.66.2-5.892,1.22-7.926,4.464l2.539-1.012,2.539-.407M318,26.981l.774.744.476.952c-.2-1.627-1.22-2.639-2.639-3.66L316,26.039l2,.942M316.858,28.4l.714.744.456.952a4.673,4.673,0,0,0-2.44-3.65l-.813,1.012,2.083.942m.159,51.731-1.458.684-1.6.526.813.813,1.27-.932m.764-49.7-.208-1.141a5.671,5.671,0,0,0-2.232-2.52l-.813,1.022a4.607,4.607,0,0,1,2.8,1.686l.456.952m-3.462,1.22.813-.605.407.605m-.317,56.492,1.081-.446,2.292-.327,1.428-1.022-1.428-.2a5.152,5.152,0,0,0-4.275,2.649l.9-.655m-.5-8.094,1.835-2.034a7.913,7.913,0,0,1-2.649,1.22l.814.813m-1.22-6.1-.813-.813,2.44-.813m.615,4.474-1.379.833-1.676.387,1.022.813m.813-3.045-1.349.754-1.5.466,1.012.813m2.619-44.559,1.052.635v.605l-.853.456-.982.159a3.474,3.474,0,0,1-3.452-3.66,4.878,4.878,0,0,1,.605-2.45,4.687,4.687,0,0,1,2.44,1.23l-1.428,1.825.615,1.022h.813l1.19.179m-5.862,43.13h.605c2.847,0,7.727-3.66,7.122-6.914h.2V35.591a6.7,6.7,0,0,0-4.88-6.3,71.518,71.518,0,0,1,7.321-8.144l1.22-.407a5.021,5.021,0,0,1,3.254,1.627c6.309,6.11,19.313,7.122,27.457,7.122l3.452-.2c6.507-.407,16.675-2.034,21.754-6.924a4.585,4.585,0,0,1,3.055-1.627l1.22.407c1.627,1.22,6.1,6.517,7.529,8.144a6.889,6.889,0,0,0-5.089,6.3V64.874l.2,6.1c.407,3.045,4.484,6.507,7.331,6.507L384.322,85a10.714,10.714,0,0,0-4.265-.813c-8.144,0-15.871,7.936-25.831,9.156l-5.287.2c-12.806,0-20.335-9.146-29.689-9.146l-3.66.407-7.112-7.321m5.277-7.727.863.1.565.714c-1.22,2.44-3.462,2.639-5.892,2.44a12.839,12.839,0,0,0,2.232,2.639,5.78,5.78,0,0,1-2.44.813,1.45,1.45,0,0,1-1.627-1.418c0-1.825,2.172-3.888,4.285-4.8l2.014-.486m-7.926,23.589,1.21-1.875C310.321,87.342,316.65,85,321.283,85c3.254,0,5.694,1.627,8.134,3.254a39.2,39.2,0,0,0,21.357,6.309h3.452c5.9-.813,11.179-3.462,16.07-6.716,2.232-1.419,4.672-2.847,7.519-2.847,5.079,0,12.409,2.44,13.223,8.342a22.393,22.393,0,0,0-3.66-.615,5.531,5.531,0,0,0-4.275,1.835c-1.825-3.254-5.287-4.672-8.947-5.287,5.9,1.418,9.552,7.727,9.959,13.421l-1.825-.208-4.88.208a7.28,7.28,0,0,1-3.66-.615c-1.428-5.287-4.266-8.739-9.969-8.739h-.2c5.5,1.22,8.948,6.914,9.354,12.2a19.42,19.42,0,0,0-9.969-2.847,11.864,11.864,0,0,0-4.672.813V102.7a10.4,10.4,0,0,0-2.847-6.914,10.958,10.958,0,0,1,2.034,6.1,6.491,6.491,0,0,1-3.254,5.694c-2.44,1.825-4.067,1.825-5.694,4.672-2.44-4.672-8.947-3.66-8.947-10.366a12.649,12.649,0,0,1,1.825-6.1,11.589,11.589,0,0,0-2.639,7.727,12.5,12.5,0,0,0-4.682-.813,18.885,18.885,0,0,0-9.959,2.847c.605-5.287,3.869-10.981,9.354-12.2h-.407c-5.287,0-8.342,3.452-9.562,8.739a8.491,8.491,0,0,1-3.859.615l-4.682-.208-2.034.208c.407-5.694,4.077-12,9.969-13.421-3.66.615-6.914,2.034-8.947,5.287a5.539,5.539,0,0,0-4.265-1.835l-3.869.615m.615-18.3-2.272-1.607-2.411-1.448h1.419a8.321,8.321,0,0,1,3.869.813l-.605,2.242m-.169-4.305-1.339-1.647a16.2,16.2,0,0,0-3.383-2.589h1.022a8.276,8.276,0,0,1,5.5,2.034l.813,2.232-3.869-3.244a27.784,27.784,0,0,1,3.254,3.65L307.256,72.6l-.982-1.865m.258,12.925L303.824,83l-2.678-.228a10.327,10.327,0,0,1,5.5-1.22,21.606,21.606,0,0,1,5.079.605L314.16,85l-1.5.536-1.349.684L309.1,84.743l-2.569-1.081m2.6-43.388,3.452,4.384,2.807,4.355v3.859a86.467,86.467,0,0,0-8.948-13.411c3.452,4.88,6.706,9.761,8.948,15.246v6.706l-2.52-7.569c-2.907-7.142-6.944-13.163-12.132-19.879a16.622,16.622,0,0,1,4.4,2.529l3.988,3.779m-1.319,19.442,1.478,2.311,2.837,6.914-1.012.407a38.226,38.226,0,0,0-3.452-6.309,51.959,51.959,0,0,1,2.847,6.716l-1.22.605c-1.835-5.486-4.275-11.378-8.551-15.653a11.07,11.07,0,0,1,5.119,2.817l1.954,2.192m.3-9.771,1.994,2.926c.8,1.428,5.287,9.761,5.287,11.189v3.462l-4.355-8.8-4.8-8.491c3.055,6.1,6.507,12.4,8.948,18.708a2.93,2.93,0,0,0-2.242-.2c-3.452-8.947-7.519-17.9-13-25.831a17.075,17.075,0,0,1,5.843,4.216l2.331,2.817m4.632,53.357-3.581.942-3.74.486c-3.66,0-11.388-1.022-11.388-5.9a5.443,5.443,0,0,1,1.022-3.045l.2,1.012c.208-4.672,2.44-4.88,5.892-6.1-1.419,1.22-2.837,3.055-2.837,5.089,0,4.067,4.672,6.914,8.332,6.914l1.488-.169,1.438-.446,2.768-1.22.407,2.44.2.615V103.3h.615l2.847.407c-3.869,2.034-8.332,4.067-12.816,4.067l-7.112-.605-1.528.149-1.528.456v-.407c.615-1.627,2.648-2.44,4.077-3.045a29.844,29.844,0,0,0,8.332,1.419,11.268,11.268,0,0,0,5.376-1.28l1.538-1.161M290.6,81.093l.992.05-1.419-1.22-.407.813m1.617-5.089-.813-.605L289.56,77.69m1.825,4.672-1.617-1.428-.407.615.932.635m.278.585-1.419-.813-.2.407c.2.407,1.012.407,1.419.407h.2m-2.43-8.342-.645,1.736-.784,1.726,2.242-3.055m-2.44-5.892.357-.734.05-.893-.208-1.22.615.2,1.22-.2a4.649,4.649,0,0,1-1.23,2.46l-.8.387m.407,17.28,1.855,1.786a5.975,5.975,0,0,0,2.609.863,1.361,1.361,0,0,1-.813,1.22h-.2c-1.627,0-3.452-1.835-3.859-3.66l.407-.208m.407-58.764v-.407l-1.627.407m0,33.548.248-.813-.05-.8h.407l1.022-.407.605,1.617c0,.407,0,.813-.407,1.022l-1.825-.615m1.825,20.742.813.932c.744,1.28,1.468,3.343,3.452,3.343a2.3,2.3,0,0,0,1.627-.615l.615-.407a2.116,2.116,0,0,1,.813,1.627,1.726,1.726,0,0,1-1.428,1.627l-.813.208a7.794,7.794,0,0,1-6.9-4.88l.685-1.22,1.141-.615M285.294,12.2l.2-2.034-.2-1.418A3.3,3.3,0,0,1,287.328,12v1.012l-2.034-.813m0,13.838.377-.913.843-.308.605.2m-2.44,76.659,2.341-.913,2.341-.3a13.07,13.07,0,0,1,4.057.605v.2a5.235,5.235,0,0,0,1.835,1.835l-1.835-.208h-.407a11.807,11.807,0,0,0-5.277,1.22l-3.055-2.44m1.9-42.724-.685.228a2.553,2.553,0,0,0-1.428-2.034,2.169,2.169,0,0,0,1.23-1.419l1.419,2.847-.536.377m.129,27.269-.972.159-.655.456c-.407-.407-.615-.615-.615-1.022S285.7,85,285.7,85l1.012,1.22m0-18.5-.169.536a1.919,1.919,0,0,1-1.458.684,1.287,1.287,0,0,1-1.428-1.418,4.518,4.518,0,0,1,1.022-2.242,3.285,3.285,0,0,1,1.855,1.6l.179.843m-2.192-44.509.873-.456.913-.179a2.3,2.3,0,0,1,1.627.605c-.2-.813-1.22-.813-2.034-.813a3.05,3.05,0,0,0-2.847,2.242l1.468-1.4m2.371,3.581,1.25.258-.407-1.22.407-1.22-.615.208-1.012-.208a1.749,1.749,0,0,0-1.835,1.428,2.7,2.7,0,0,1-1.627.605l2.539.129,1.3.02m-3.026,18.966.456.555.149.873h-.2l-1.835-.407-.2-1.022,1.012-.2m1.25,31.207,2.014-2.946-.813-.407a22.943,22.943,0,0,1-3.67,5.694l2.47-2.341m-.843-31.614h-.407l-1.22.407-.2-.615,1.22-.813m-.813,3.055,1.19.655.436.972c0,.605-.407.813-.615.813-.813,0-1.22-1.022-1.627-1.428l.615-1.012m-.079,11.279,1.3-.506a1.75,1.75,0,1,1,0,3.452,1.823,1.823,0,0,1-1.835-1.825l.536-1.121m.079,5.009.813-1.25h.407a3.6,3.6,0,0,0,2.034-.813,4,4,0,0,1,2.648,3.254c0,.615-.407.813-1.022.813a2.839,2.839,0,0,1-2.649-2.44v1.22c-.407.813-1.012,2.034-2.232,2.034-1.022,0-1.428-.2-1.428-1.419v-.615l.8-.288.625-.5m-.813-18.728-.813-.208,1.22-1.835.605.823m1.022-29.293L280.4,17.5a.745.745,0,0,1-.8-.813c0-.714.655-1.329,1.468-1.756l2.391-.694m-.615,47.793-.962,1.121-1.27.506a1.32,1.32,0,0,1-1.22-1.22,2.937,2.937,0,0,1,1.012-2.242l.615-.4.536,1.418,1.29.813m-1.012-15.653-.486.913-.942.308a1.167,1.167,0,0,1-1.21-1.22,1.3,1.3,0,0,1,1.21-1.22l.942.377.486.843m.2,11.179-.734.863-.278,1.171-1.22.407a1.169,1.169,0,0,1-1.22-1.22,3.931,3.931,0,0,1,.615-2.034l1.339.784,1.5.03M285.7,71.58l1.716.744a28.961,28.961,0,0,0,6,.883c1.428.208,3.67.813,3.67,2.44,0,3.462-3.462,3.67-3.67,8.342-.2.813-1.22,1.22-2.232,1.22-1.418,0-2.44-1.835-2.847-3.055a4.721,4.721,0,0,0,1.22-2.232l.813-.813h1.22l-2.847-.407c-3.452,0-7.122,2.034-9.146,2.034-.813,0-1.022-.407-1.022-1.012l3.859-3.769L285.7,71.58M278.38,50.024l-.615-.4c0-.813.813-1.428,1.022-1.835l1.22.615a2.867,2.867,0,0,1-1.061,1.448l-.566.169m.476-36.087,1.329-.675,1.24-.248-3.254,3.67c-.605,0-.813-.208-.813-.615l.436-1.161,1.061-.972m-.536,18.837-.556-.228c-.407,0-.407.407-.407.605,0,.407,0,.615.407.615s.813-.208.813-.615l-.258-.377m.258,14.006v.605c-.2.615-.605.615-1.22.615-.407,0-1.22,0-1.22-.615s1.022-.813,1.428-.813l1.012.208m.506,3.4.714-.555.2.833.417.2-.238-.377-.169-.863v-.2l.4-.813h1.022l.407.605-.278,1.141-.308.456.476-.248.307-.942,1.22.407a.961.961,0,0,0,1.022-1.012,2.6,2.6,0,0,0-.813-1.428h1.012v1.022a13.646,13.646,0,0,1-2.033,6.507c-2.639-.615-5.892-4.275-6.3-7.122.208.615,1.22.615,1.835.615a1.111,1.111,0,0,0-.615,1.012,1.306,1.306,0,0,0,1.022,1.012l.7-.248m-.456,51.066,1.309-.823,1.081-.982a1.536,1.536,0,0,1,1.22,1.418c0,2.034-3.66,2.034-5.287,2.034h-.813l-.2-.605,2.688-1.042m.357-89.048-1.17,1.25-.863,1.4c-.2.407-.2.813-.813.813l-.407-.813a2.289,2.289,0,0,1,1.17-1.776l2.083-.873m-.407,33.766v.407l-1.22-.208c-.407,0-1.418.407-1.418,1.22l-.407-2.44,3.045,1.022m-1.4-4.047-2.668-2.262a5.624,5.624,0,0,0,2.648-1.419,1.9,1.9,0,0,0,1.825,1.012c.615,0,1.022-.813,1.022-1.419a3.705,3.705,0,0,1,2.639,2.232,21.118,21.118,0,0,1-2.639,3.66L277.18,41.92m2.262,12.261,1.488,1,1.716.744C284.471,54.3,285.7,50.233,285.7,48a5.307,5.307,0,0,1,.813,3.045c0,2.847-1.428,6.309-4.682,6.309a4.638,4.638,0,0,1-2.44-1.22c-3.66-2.649-4.88-7.936-5.287-12.2l1.22,1.012a12.2,12.2,0,0,0,2.857,8.025l1.26,1.21m-.357-24.789.883.764.843.347a1.642,1.642,0,0,0,1.627-.813l-.605.208a1.492,1.492,0,0,1-1.627-1.627l.407-2.639c0-1.022-.813-2.043-.813-2.857l1.012-2.034c.615-1.012,2.242-1.22,3.055-1.825a15.032,15.032,0,0,0,3.462-2.847h1.627l.655,1.151.357,1.29a1.52,1.52,0,0,0-1.012,1.627,2.719,2.719,0,0,0,.605,1.627v.407c0,2.232,1.825,4.474,3.045,6.309-.407.605-1.418.605-1.627,1.21l-.605.208c-1.012,0-.2-.605-.813-.813l-.2.407c0,.813,1.012.605,1.617.407l-.2,1.22a3.72,3.72,0,0,1-3.045,1.022c.2.813,1.418,1.419,2.033,1.825a.949.949,0,0,0-.615,1.022c0,.813.813,1.419.813,2.034,0,1.825-5.5,1.825-6.507,1.825l-1.022-.2V38.24c0-2.034-.813-4.067-3.244-4.067h-.615c1.825.2,2.847,1.825,3.254,3.452h-.407c-.813.208-1.419-1.22-1.419-2.232-.813.605-.208,3.254-1.22,3.254s-1.835-2.034-1.835-2.847a1.951,1.951,0,0,0-.2,1.825l-1.835,1.22-.2-.813c0-2.034,1.418-3.254,3.254-3.859A4.585,4.585,0,0,1,273.9,29.9c0-1.419,1.23-1.627,2.242-1.627l1.756.347,1.19.774m-6.2,11.894,1.22-1.428a45.938,45.938,0,0,0,5.694,4.682,2.726,2.726,0,0,0-1.22,1.022L275.5,43.646l-2.619-2.361M273.9,68.743l-.258.932c-.456.843-1.369,1.448-1.369,2.52l-.2-.615.189-.813.843-1.409.188-.823a4.3,4.3,0,0,0-.813-2.242l1.091.923.327,1.528m1.151,29.838,1.726-.714a5.326,5.326,0,0,0,2.42-2.49h.407c1.012,0,2.024.2,2.024,1.419,0,2.649-5.684,4.88-7.926,4.88-1.22,0-2.034-.407-2.034-1.617l.407-1.428,1.22.2,1.756-.248M271.813,11.6l1.676-1.835-.2,1.22a6.405,6.405,0,0,0,1.22,3.462c0,1.22-1.428,1.627-2.242,1.835a2.56,2.56,0,0,1-1.22-2.242l.208-1.24.555-1.2m-.357,28.469-.615-.655a6.458,6.458,0,0,1-.605-3.006V31.118l.685,4.474.536,4.474m-2.43-15.048.674-.823c1.895-1.6,5.853-1.061,8.878-4.265-.307,3.353-3.928,3.512-6.924,4.146l-2.629.942m0,3.254,2.321-1.369c2.48-1,5.307-1.27,7.44-3.72-.159,3.2-3.859,3.551-6.983,4.206l-2.778.883m2.232-6.378-1.825.278h-.813c2.639-1.428,5.277-2.034,7.926-3.254a12.382,12.382,0,0,1-3.333,2.242l-1.954.734m-2.847-1.756,1.121-.952A20.471,20.471,0,0,1,274.1,17.5l-2.619,1.7-3.075.942m.208,36.812.2,1.627-.407,3.244a5.571,5.571,0,0,0,1.825,4.275c-2.024-.813-2.43-2.242-2.43-4.474l.813-4.672m.03-16.923.982,2.43a9.169,9.169,0,0,1,1.419,4.325l-.2.813c-.615-3.66-3.859-6.11-3.859-10.574A15.226,15.226,0,0,1,268,31.931c.407,1.022.208,3.462.208,4.682l.436,3.412m-1.329,64.021-.536-1.756-.2.813A3.9,3.9,0,0,0,268,105.951l.615-.615-1.3-1.29m2.609-54.657.665,1.637.258,1.647v.407L269.2,49.657c-2.093-3.482-5.069-7.1-5.069-10.6a10.356,10.356,0,0,1,1.23-5.5l-.407,3.055a17.387,17.387,0,0,0,2.946,9.324l2.024,3.452m-1.111,58.793,2.331-.407,2.341-1.012a8.306,8.306,0,0,1-3.859.813c-2.44,0-4.067-1.22-4.067-4.067a3.347,3.347,0,0,1,1.835-3.045,5.669,5.669,0,0,0,5.684,4.672,5.777,5.777,0,0,0,3.055-.813,4.624,4.624,0,0,0,3.66,3.254A9.508,9.508,0,0,1,274.1,109.4l-4.067-.2a7.353,7.353,0,0,0-5.287,1.825,3.639,3.639,0,0,1-.813-1.825,2.866,2.866,0,0,1,1.627-2.44,2.763,2.763,0,0,0,1.4,1.091l1.855.327m-4.265-81.539.992.278.833.744.407,1.627v.4l-2.44-.2a3.007,3.007,0,0,1-1.627-2.44l1.835-.407m-1.428,38.637V66.5c0,2.034,2.034,1.022,2.242,2.847-1.022-1.012-2.857-.605-2.857-2.639l.149-.794.466-.635m.159-21.039.853,1.726c1.428,2.44,5.089,6.3,5.089,9.146a36.821,36.821,0,0,0-3.045-4.682c-2.242-2.837-4.275-4.464-4.275-8.739a11.507,11.507,0,0,1,.605-3.66l.278,4.2.5,2.014m-.565-11.9-1.022-.2a5.41,5.41,0,0,1,4.484-2.242,3.441,3.441,0,0,1-2.291,2.262l-1.17.179M261.7,56.74l-.764-.357-.456-.655v.2c0,.813.407,1.428,1.022,1.428.407,0,1.012-.615,1.418-1.022l-1.22.407m2.033-27.051-1.091.288-.942.734a3.791,3.791,0,0,1-1.627-1.419,2.69,2.69,0,0,1,1.835-1.22l.833.962.992.655m-5.277,21.149-.873-.347-.556-.665v.2c0,.813.208,1.627,1.022,1.627a2.3,2.3,0,0,0,1.627-1.012l-1.22.2m1.419,42.505,1.746.278a7.928,7.928,0,0,1,3.948,3.174,10.615,10.615,0,0,0-3.66-.605c-2.44,0-5.694,1.627-5.694,4.474v.407a5.257,5.257,0,0,1,2.44-3.055c.615.208,2.232.813,2.232,1.428,0,1.22-3.045,1.825-3.045,4.067,0,2.847,4.265,3.045,6.507,2.847-.615.605-1.22,1.22-1.22,1.825h-.813c-4.474,0-8.749-2.639-8.749-7.717a7.423,7.423,0,0,1,5.049-6.964l1.26-.159M259.325,41.3l-.873.982-2.44,1.448-5.7-2.44h.208c2.034,0,6.716-1.22,7.529-3.254l1.627-.407c-.407.813,0,1.428,0,2.44l-.347,1.23m24.134,27.041h.2l1.022,1.418-1.835.407,1.627.2-.2.615a5.948,5.948,0,0,1-2.649,0,2.936,2.936,0,0,0,2.242,1.012l-.208.208-1.419.2-1.428-.2a4.25,4.25,0,0,0,2.44,1.012l-.2.208h-.813a5.7,5.7,0,0,1-1.835,0l2.034,1.012-.407.407h-.605l-1.627-.2a5.174,5.174,0,0,0,1.825,1.012l-.813.813a4.045,4.045,0,0,1-2.232,0l1.627.823-.813.813h-2.034c.208.407.813.605,1.22.813-.605.407-2.639,2.024-3.452,2.024l-1.637-.2-1.627-3.452-.407-.615v.615l-1.22-.208a2.708,2.708,0,0,0-1.617.615l.605-.208,2.44.407.2.813c-1.012.208-2.024,0-2.837.407h.605l2.44.208.2.605-2.639.407h.605l2.44.407v.407a4.068,4.068,0,0,0-2.232.605l1.012-.2,1.22.2.208.615-2.242.605,1.022-.2,1.627.2c.407,1.22,2.034,2.649,2.034,4.067l-.813,1.627a21.622,21.622,0,0,0,3.66,6.716c-.813,1.419-2.034,2.639-3.66,2.639-1.428,0-1.835-.813-2.034-2.034a3.711,3.711,0,0,0,1.418-1.22l-1.627.813-.2-.605,1.627-1.428-1.835.813-.2-.813a2.7,2.7,0,0,0,1.418-1.22l-1.627.813-.2-.407,1.418-1.418a2.621,2.621,0,0,1-2.033.813c-.407-.813-1.419-1.428-2.024-2.232a2.822,2.822,0,0,0,1.617-1.23,3.346,3.346,0,0,1-2.232.823c-2.44,0-1.419-2.649-2.232-4.275-.407-1.22-3.67-5.486-4.89-5.486-1.012,0-1.21-.208-1.617-1.022v-.813a9.247,9.247,0,0,0-1.627-4.682,9.949,9.949,0,0,1,.813,4.89V78.5l-1.022.2a2.811,2.811,0,0,1-1.418-2.44v.615a3.2,3.2,0,0,0,.605,1.825l-.605.615a6.219,6.219,0,0,1-1.428-1.835l.813,2.242-1.22-1.627.813,1.825-.2.208L253.77,78.5a3.2,3.2,0,0,0,.615,1.825h-.208l-1.022-1.418.615,1.617-.407.407-1.022-1.825.615,2.034-1.835.407c-1.418-.813-3.045-2.034-3.045-3.66l.407-1.428,3.254-2.609,2.649-3.085h.605c2.034,0,4.275-2.43,5.486-3.65l1.835,2.034c.605.2,2.242.605,2.242,1.21s-2.649.813-2.649,2.847c0,1.22,1.627,2.242,2.847,2.44a2.371,2.371,0,0,1-1.22-2.034c0-1.627,3.869-.2,3.869-2.639,0-1.825-2.847-2.639-2.847-4.067,0-1.22,1.012-2.242,2.033-3.055,0,3.869,5.079,3.264,5.079,5.3,0,1.012-1.825,2.024-1.825,3.65,0,3.254,5.892,2.649,5.892,6.309l-.407,1.419a2.581,2.581,0,0,0,1.022-2.232c0-3.055-3.67-2.847-3.67-5.089,0-1.22,2.649-2.232,2.649-4.464,0-3.67-4.88-2.649-4.88-6.309,0-3.452,2.639-3.859,2.639-7.926a11.818,11.818,0,0,0-1.22-5.287c.615,0,.813-.813.813-1.22a7.465,7.465,0,0,0-1.418-3.462,10.423,10.423,0,0,1,1.418-3.055,4.98,4.98,0,0,0,1.22,2.242v1.22a16.526,16.526,0,0,0,3.462,10.574,4.152,4.152,0,0,0-1.22,2.847,4.269,4.269,0,0,0,1.428,2.847l-.208,1.627a2.834,2.834,0,0,0,2.034,2.44l-.2.813a1.961,1.961,0,0,0,1.518,1.885l2.748.357-2.391-.6c-.813-.327-1.468-.833-1.468-1.647l.2-1.22c-.605,0-2.034-1.022-2.034-1.835a3.107,3.107,0,0,1,.813-2.034,2.807,2.807,0,0,1-1.419-2.43,3.761,3.761,0,0,1,1.012-2.44l.407.407-.2,2.034c0,1.012.2,1.617,1.419,1.617a4.676,4.676,0,0,0-1.22,2.44,1.847,1.847,0,0,0,2.033,1.627l-.407,1.022a1.87,1.87,0,0,0,2.033,1.835l1.012-.208.208,1.428M245.844,39.46l2.033-.407a2.779,2.779,0,0,0,1.012,1.617l-3.045-1.21m-.407,52.455-.208-.2-.2-.615h.605m-.813-17.28V68.534h1.022v4.672m5.486-28.866-1.448,1.042-1.6.585a1.374,1.374,0,0,1-1.22-1.835l-.615.208c-1.22,0-2.649-.615-2.649-1.835l.208-1.22,7.321,3.055,2.133.734,2.143.893a5.033,5.033,0,0,0-1.637,3.254c0,2.43,2.043,4.672,4.077,5.694.2,2.232-.615,5.277,2.837,5.277h.813c-4.464-1.418-1.22-4.265-3.244-6.3-2.242,0-3.462-1.825-3.462-4.067a9.037,9.037,0,0,1,1.022-3.859c3.859,1.627,8.124,5.079,8.124,9.761,0,2.639-1.418,5.277-2.847,7.519a11.851,11.851,0,0,0,3.055-7.727,9.192,9.192,0,0,0-1.428-5.089c2.242,1.022,4.484,2.44,4.484,5.089a15.043,15.043,0,0,1-.615,3.254c-1.419,2.847-8.333,11.388-11.586,11.388-1.022,0-1.23-1.419-1.23-2.034l.208-1.012a1.987,1.987,0,0,0,1.835-.823l1.627.615a2.376,2.376,0,0,0,2.232-1.835,2.317,2.317,0,0,1-1.825,1.22,1.845,1.845,0,0,1-1.428-.605,4.028,4.028,0,0,1-2.44,1.22,2,2,0,0,1-2.033-1.835l.407-1.22a3.215,3.215,0,0,0,2.44-1.012,2.151,2.151,0,0,0,1.835,1.012,3.362,3.362,0,0,0,2.44-1.627,3.9,3.9,0,0,1-2.034,1.022,3.055,3.055,0,0,1-1.835-.813l.407-.615a5.522,5.522,0,0,1-3.254,1.627c-1.22,0-2.44-.605-2.44-2.034l.2-1.22a4.661,4.661,0,0,0,2.242.615c1.835,0,2.847-1.012,2.649-2.847v-.407c0,1.22-.615,2.639-2.043,2.639a4.557,4.557,0,0,1-2.639-1.21l.813-.813a3.583,3.583,0,0,1-2.232,1.22c-.407,0-2.033-2.242-2.033-2.847a7.236,7.236,0,0,1,.813-2.242l1.22.208c0,.813.407,2.034,1.418,2.034a5.749,5.749,0,0,0,3.452-1.428,6.6,6.6,0,0,1-2.639.813c-1.22,0-1.428-.407-1.22-1.419V54.3c1.22-.407,1.419-1.835,3.254-1.835h-.615c-1.419,0-1.22,1.637-3.452,1.637a3.25,3.25,0,0,1-2.847-1.637c-1.012-.2-2.034-.813-2.034-1.627a3.8,3.8,0,0,1,.615-1.617l1.012.2c.208,1.419,1.835,2.232,3.055,2.232a5.331,5.331,0,0,0,3.65-1.825,5.872,5.872,0,0,1-3.65,1.012,2.2,2.2,0,0,1-2.033-1.419l2.639-1.012-2.44.2c-1.22,0-2.639-.2-2.639-1.627a3.443,3.443,0,0,1,.605-2.034h1.22a1.625,1.625,0,0,0,1.835,1.428,2.991,2.991,0,0,0,1.746-.714l1.3-1.319m-6.1,33.548,1.428-.407a4.966,4.966,0,0,0,2.639,4.265l-2.44.208-1.627-4.067m0,0L245.636,80l1.022,1.954h-1.835l-.764-1.786L243.6,78.1M242.58,88.255v-.2h.813l-.813-.615h1.22l-.585-.149-.427-.456h1.22l-1.022-.407.208-.208h1.22l-1.022-.407.407-.407,1.428.407-1.012-.605,1.22-.208c1.627,0,2.44,1.627,2.639,3.254a6,6,0,0,1-2.639,1.022l-1.508-.357-1.349-.665m-.605-13.828V68.336l1.22.2v5.892m.427,15.078,1.815.387a5.737,5.737,0,0,0,3.254-1.23h.2l.208.208c0,1.022-2.847,1.825-3.66,1.825a5.824,5.824,0,0,1-3.264-1.21l.813.2-1.012-1.022,1.647.843m-.357-9.4.744,1.855-1.428-.208a10.854,10.854,0,0,1-.813-3.65c.407.2.813,0,1.22,0l.278,2m-2.51-2h.813l.407,3.65h-1.22c-.407-.2-.407-1.012-.407-1.419l.407-2.232M240.091,55.1l-.357.625c0,1.419,2.242,1.825,3.254,2.034,0-.615-2.232-1.22-2.232-2.034,0-.407,2.847-1.022,3.254-1.22H242.58l-1.657.228-.833.367m-.556,18.51V67.721l1.22.208v6.3m-1.418-35.79,1.418.208,2.44-.615c.407.813,1.022,1.022,1.835,1.428a7.4,7.4,0,0,1,2.847,1.418l6.3,2.847,6.1,2.242a2.726,2.726,0,0,0,0,1.825,16.072,16.072,0,0,0-4.672-2.847l-16.268-6.507m1.012,11.794-1.319.327a1.244,1.244,0,0,0-.714,1.091c0,1.022,1.22,2.043,2.033,2.649,0-.605-1.22-1.627-1.22-2.44,0-1.22,2.232-1.428,2.847-1.428l-1.627-.2M239,101.934l1.091-1.19,1.478-2.728h.407c.813,0,1.22.208,1.22,1.022,0,1.22-3.254,4.88-4.474,4.88-.605,0-.813-.615-1.012-1.22l1.29-.764m-1.7-29.541V66.709l1.012.605v5.694M237.5,45.273l-.575.446-.238.655c0,1.22,1.428,2.232,2.242,2.639-.615-.605-1.627-1.825-1.627-2.639s2.232-1.22,2.837-1.22l-1.21-.208-1.428.327m-.2-5.813-.843.179-.377.625c0,1.428,2.232,2.242,3.254,2.44-.407-.407-2.44-1.825-2.44-2.44l1.627-.407-1.22-.4m-2.44,30.294V65.281l1.22.813v5.079m.407-39.034,1.518.327,1.528-.129,2.034,1.627c-1.627.407-3.452,1.22-5.287,1.22a2.847,2.847,0,0,1-2.847-2.44l3.055-.605M233.5,67.85l-.476-.536V63.852l.813.813v3.869M236.49,84.4l.605-.813-4.275-.615-2.847-.2,2.847.605m-1.627-54.29.665.556.962.258,1.835.2a2.251,2.251,0,0,0,1.428,1.835l-3.264.208c-2.034,0-4.464-.208-4.464-2.649v-.605l2.837.2m2.857,57.752.813-.813-2.043-.208-4.672-.605,4.672,1.22M231.4,88.661l.605-.605-4.464-.615m2.232-35.175,1.24.536,1.805.069a4.878,4.878,0,0,0,2.45-.605,3.8,3.8,0,0,0,2.847,1.012l.407-.2c-1.428,0-3.254-.615-3.254-2.44a2.472,2.472,0,0,1,.605-1.825c-.605-.407-1.627-1.22-1.627-1.835,0-1.419,2.034-2.44,2.034-3.254,0-1.22-2.847-2.44-2.847-4.672l.407-1.627,8.739,3.452-.2,1.419a2.531,2.531,0,0,0,1.012,2.043l-.2,1.627a3.322,3.322,0,0,0,1.022,2.639,3.841,3.841,0,0,0-.615,2.034c0,1.428,1.428,2.232,2.649,2.639l.605.615a4.5,4.5,0,0,0-1.012,2.242c0,1.418,2.033,3.859,3.66,3.66l-.407,1.418a2.515,2.515,0,0,0,2.43,2.639l-.2,1.022a2.713,2.713,0,0,0,1.627,2.242v.2l.2.615-3.254.407c-1.617,0-3.65-.407-3.65-2.45l.407-1.627h-1.627c-1.637,0-3.055-.2-3.055-2.034a4.778,4.778,0,0,1-2.44.407c-.407,0-3.452-.813-3.452-1.627s2.232-1.617,2.847-1.825c.605,1.825,2.837,2.232,4.265,2.232V60.6h-.813c-2.034,0-3.452-.407-3.045-2.639a2.151,2.151,0,0,1-1.835-1.012,5.234,5.234,0,0,1-3.869,1.22l-.813-.208a2.121,2.121,0,0,1-.813-2.232l-2.034.605c-2.024,0-3.045-1.22-2.837-3.254l1.319-.258,1.319-.555m-.208-.2-1.825.655-1.825.357a1.712,1.712,0,0,1-1.835-1.835v-.407h.407a18.759,18.759,0,0,0,4.474-1.21l-.2.8.169.972.635.665m-5.029-28.42,1.171.962v.208c0,1.627,1.22,2.44,2.847,2.44l1.825-.208.407,1.428c-2.43-.407-7.519-1.428-7.519-4.89l.407-1.22.863,1.28m2.6,22.319.555.615a3.806,3.806,0,0,0,2.282.605h2.847l1.23-.208,1.012,1.428-.2,2.024.2,1.637-2.242-.208c-1.22,0-3.65-.407-3.65-2.034l.4-.813h-.2a19.369,19.369,0,0,1-4.067.813c-1.012,0-2.242,0-2.242-1.22l.208-1.22,3.869-1.418M224.08,59.994l-.149.377-.466.228a.644.644,0,0,1-.605-.605.532.532,0,0,1,.605-.605l.466.149.149.456m0,28.261h-.813a5.739,5.739,0,0,1-1.428,2.649l1.5-1.171.744-1.478m.079-2.718.129-2.768h.2c.615.813,0,3.045,1.835,3.045,1.627,0,1.419-2.847,1.419-3.859l2.033-1.428h.813l2.232.208,4.275,1.012c1.627.407,3.254.407,3.66,2.242a35.272,35.272,0,0,1-5.892,5.079L232.82,90.9h-2.44l2.242.605.407.813h-.208a4.842,4.842,0,0,1-2.44,0,3.141,3.141,0,0,0,2.242.615h.813l1.428,1.419a4.3,4.3,0,0,0-.813,2.242,4.478,4.478,0,0,1,1.418-1.835l.407.407a4.3,4.3,0,0,0-.813,2.242l1.428-1.627h.605a5.46,5.46,0,0,0-1.012,2.232l1.418-1.627,3.254,1.22v.407l-.278,1.151c-.536,1.319-1.756,2.916-2.976,2.916a3.975,3.975,0,0,1-1.627-.605l-.813,1.012h-.2c-.615-2.024-.208-3.244-2.043-5.079-1.825-1.627-5.079-4.067-7.519-4.88-1.012-.407-3.869-.407-3.869-1.627,0-.813,1.022-2.847,1.22-3.66a1.293,1.293,0,0,0,1.091-.5l.417-1.21m.913,17.617,2.579.853,2.529.317a5.625,5.625,0,0,0,2.639-.615,3.246,3.246,0,0,0,1.022-1.627c.208.813.407,1.22,1.22,1.22.407,0,1.022-.407,1.022-.605a3.381,3.381,0,0,0,1.418,0v.2a1.29,1.29,0,0,0,1.428,1.428c1.825,0,3.244-1.428,4.265-2.847l1.428-.208.605.407s-3.254,3.66-4.474,3.66a1.366,1.366,0,0,1-1.022-.813,3.722,3.722,0,0,0,1.022,2.44,21.594,21.594,0,0,0-7.936-1.825h-.605a16.348,16.348,0,0,0-8.134,2.232v-.407a3.781,3.781,0,0,1,1.428-2.44,11.886,11.886,0,0,0-4.89-2.034l-.2-2.024,2.182,1.458,2.47,1.23m22.4-67.354.813.2c3.045,0,5.079-1.418,7.112-3.254-1.835,1.22-4.067,2.44-6.3,2.44a4.541,4.541,0,0,1-3.462-1.825,13.555,13.555,0,0,0,4.474-3.055c-1.22,1.022-4.265,2.649-6.1,2.649-1.022,0-2.44.2-3.055-1.022a30.749,30.749,0,0,0,5.3-2.44,20.925,20.925,0,0,1-7.727,2.034c-1.022,0-2.44-.407-2.44-1.627a23.95,23.95,0,0,0,5.892-2.44c-2.44.813-5.079,1.835-7.321,1.835a2.755,2.755,0,0,1-1.835-.407,3.185,3.185,0,0,1-1.22-2.44l1.22-.407,2.45-1.22-2.45.813a11.493,11.493,0,0,1-3.65.605c-.813,0-2.034-.2-2.034-1.22v-.2h.605a16.029,16.029,0,0,0,5.079-1.428l.813-.615-.813.407a15.313,15.313,0,0,1-5.079,1.22,3.532,3.532,0,0,1-3.452-2.639h1.22a10.343,10.343,0,0,0,4.464-.813l-2.837.2c-2.44,0-8.134-1.012-8.134-4.464l.3-1.19.913-1.051,6.15,3.888,6.458,3.432,10.574,5.287c4.682,1.835,15.663,4.682,18.51,8.541a4.461,4.461,0,0,0-2.033,1.835l-2.034.407c-.605,1.825-5.287,2.639-6.914,2.639a1.7,1.7,0,0,1-1.825-1.825l1.012-.813h.605c3.254,0,6.309-.407,7.737-3.66-1.428,2.44-3.869,3.045-6.517,3.045l-1.825-.2a6.611,6.611,0,0,1-3.859,1.627,2.371,2.371,0,0,1-2.034-.813l3.254-2.034-3.283,1.4a11.236,11.236,0,0,1-3.432.635,2.505,2.505,0,0,1-2.639-2.44,13.584,13.584,0,0,0,3.65-1.428l1.022.208,1.428-.208,1.547,1.141,1.706.694M220.013,61.412l-.615.615c-.605,0-.8-.407-.8-.615,0-.605.2-.813.8-.813l.387.179.228.635m1.627-17.687.566.952a4.812,4.812,0,0,0,3.095,1.29l1.627-.208v.208l-2.8.833-3.1.387c-.813,0-4.057,0-4.057-1.627a3.849,3.849,0,0,1,1.012-2.034l3.66.2m-1.22,59.17,1.419.407a6.214,6.214,0,0,0-3.65,2.44l1.418.407c.407.208.813.407.813.813a1.142,1.142,0,0,1-1.22,1.022,2.257,2.257,0,0,1-2.232-2.242,2.756,2.756,0,0,1,2.143-2.658l1.309-.188m-5.486-39.857-.179.645-.635.169c-.407,0-.615-.2-.615-.813a.539.539,0,0,1,.615-.605l.635.149.179.456m-.208-1.012-1.379.456-.456,1.369c0,.813.615,1.428,1.835,1.428a1.576,1.576,0,0,0,1.627-1.428,1.915,1.915,0,0,0-.506-1.369l-1.121-.456m1.676-8.68,1.984-.069-2.44-.407c-1.825,0-4.682,1.428-5.089,3.055a5.689,5.689,0,0,1,3.462-2.242l2.083-.337m-5.942.139,2.46-1.22a12.246,12.246,0,0,1,5.466-.615,3.97,3.97,0,0,0-2.639-.605,9.128,9.128,0,0,0-7.529,4.275l2.242-1.835m-.823,9.959-.258.565-.546.248a.845.845,0,0,1,0-1.627l.546.258.258.555m.813,10.574-.605-.2-.208.2c0,.615-1.012,1.627-1.825,2.034l1.547-.784,1.091-1.25m-1.22-11.586-1.111.407-.506,1.012a1.794,1.794,0,0,0,1.617,1.835,1.971,1.971,0,0,0,1.835-1.835,1.292,1.292,0,0,0-.615-1.012l-1.22-.407M208.09,74.893l.615-.952.327-1.141-.605-.2a9.707,9.707,0,0,1-2.034,3.452l1.7-1.161m-.833-21.436,2.411-1.647a18.066,18.066,0,0,1,4.652-2.182,15.187,15.187,0,0,1,5.287-1.022l2.232.407a2.829,2.829,0,0,0,1.428,1.627v.407A2.162,2.162,0,0,0,225.1,53.08l2.847,5.287c1.825,3.452,2.639,7.321,4.871,10.783,2.043,3.045,5.3,6.091,9.156,6.091,4.474,0,8.332-3.859,11.179-6.9a2.531,2.531,0,0,0,1.23,2.232c-1.835,1.627-3.055,3.452-5.287,4.672a13.081,13.081,0,0,1-7.122,2.043A11.389,11.389,0,0,1,232.82,72.6c-2.44-3.452-3.65-7.529-5.486-11.388-1.012-2.034-3.045-5.892-5.5-6.706a7.028,7.028,0,0,1,1.835,1.627h-.407c-4.474,0-8.541,2.847-13.015,2.847a5.2,5.2,0,0,1-5.079-3.055l.605-1.012,1.478-1.458m-.307,5.317,1.538.615,1.766.2c4.474,0,9.146-2.847,13.63-3.254l1.419,2.242-1.22-.208c-4.682,0-8.947,3.452-13.63,3.452a6.652,6.652,0,0,1-6.091-4.057l.813-1.627L205.8,57.7l1.151,1.071m.446-27.3,1.637.456c1.012,2.242,3.66,3.254,6.1,3.462a5.736,5.736,0,0,1-4.067,1.22c-4.474,0-7.936-2.44-7.936-7.122l.208-1.012a9.491,9.491,0,0,0,2.539,2.262l1.518.734m-.8,17.339v.407l-.883.635-1.349.169c-.615,0-2.649-.4-2.649-1.418l.813-.2,1.5.2,2.569.208m-.357,4.722-1.27.714a7.264,7.264,0,0,1-2.847.665c-.407,0-1.22,0-1.22-.615s5.089-1.22,6.1-1.835l.208.208-.972.863m.357-2.9-.417.506a5.438,5.438,0,0,1-2.43.506c-.615,0-3.254-.2-3.254-1.22,0-.407.2-.8.605-.8l2.034.605,1.657.357,1.805.05m0,1.012.208.417a16.787,16.787,0,0,1-5.3,1.21c-1.012,0-1.22-.2-1.22-1.21l.407-.417a4.894,4.894,0,0,0,2.44.208l3.462-.208m25.821-11.993-2.361.565-2.51.248c-1.627,0-3.462-.407-4.275-1.627l3.462-1.418a11.4,11.4,0,0,1-4.682,1.012,6.948,6.948,0,0,1-5.485-3.045,13.3,13.3,0,0,0,4.87-1.22,16.545,16.545,0,0,1-4.265.605c-2.639,0-5.287-.407-6.716-2.847h.208c1.627,0,3.462,0,4.88-1.012a11.849,11.849,0,0,1-3.869.605,9.463,9.463,0,0,1-7.311-3.254h5.892L206.8,27.9c-4.315-.5-10.376-1.567-10.376-4.92l.615-1.835,17.736,7.985,18.044,7.678v.615l-.357,1.111-.05,1.121,1.27,1.805,1.18,1.042.685.456.536.764c0,.813-2.45,1.835-2.034,3.055l-1.23.2H231.6c-1.419,0-3.045-.2-3.859-1.627l2.847-1.012a11.98,11.98,0,0,1-4.672.813c-1.428,0-2.857-.407-3.264-1.835l2.45-1.22a7.552,7.552,0,0,1-3.67.813,4.651,4.651,0,0,1-4.265-2.034l2.232-1.22a18.7,18.7,0,0,1-4.672.813,3.487,3.487,0,0,1-3.462-2.639,6.6,6.6,0,0,0,4.077-2.44,7.734,7.734,0,0,0,6.9,3.66c.813,1.617,3.055,2.024,4.682,2.024a6.476,6.476,0,0,0,4.88,2.242l2.1-.436.952-.377-2.043.2a5.8,5.8,0,0,1-4.464-1.627l2.1-.556,1.954-.863m-32.328,7.529-.635.456-.179.764c-2.232-.208-6.309-2.649-6.309-5.3,0-.813,1.022-1.22,1.835-.813l5.287,4.89m-1.825,2.44-.615,1.21c-2.033-.2-8.541-3.65-8.541-5.892a1.517,1.517,0,0,1,2.44-1.22c1.22,1.022,1.627,2.44,3.254,3.66l3.462,2.242M188.7,34.173l1.409.585c1.29,1.091,2.242,3.373,2.857,4.3h-.813a1.7,1.7,0,0,0-1.627.605,7.009,7.009,0,0,1-2.43-4.265l.069-.764.536-.456m0-1.428-.258.565-.555.248a.875.875,0,0,1-.813-.813.747.747,0,0,1,.813-.813l.555.179.258.635m3.194,16.476,1.071.605a17.948,17.948,0,0,0,4.484,2.034,1.269,1.269,0,0,0,0,1.22c-1.835,0-10.376-2.649-10.376-4.672,0-.407.407-2.242,1.022-2.242l3.8,3.055M189.937,51.4l4.256,1.875,3.254.823.605,1.012h-1.22c-2.232,0-11.179-.813-11.179-4.067,0-.407.407-1.22.813-1.22l3.472,1.577m-3.065-19.472-.387.913-.833.308a1.17,1.17,0,0,1-1.22-1.22,1.312,1.312,0,0,1,1.22-1.22l.833.387.387.833m-2.649,1.835,1.5.506,1.349,1.121c1.428,1.22,1.22,3.045,2.034,4.672-.813,0-1.627,1.012-2.232,1.418-1.627-1.418-4.077-3.859-4.077-6.091l.407-1.28,1.022-.347m.407,12.608-.2-.407a2.655,2.655,0,0,1,2.44-2.649,2.636,2.636,0,0,1,3.244-2.242,1.962,1.962,0,0,1,2.034-1.418,3.958,3.958,0,0,1,2.857,1.825l-1.22.208-1.022-.407c-.813,0-1.428,1.012-1.627,1.419h-.615c-1.627,0-2.024,1.23-2.232,2.649,0,0-2.232,2.242-2.034,3.66-.813.208-1.825.615-1.825,1.627a2.522,2.522,0,0,0,.813,1.627c-.615.407-.407.813-.407,1.428-.813-.417-2.043-.615-2.043-1.627a1.465,1.465,0,0,1,.615-1.23,2.419,2.419,0,0,1-.615-2.024,2.643,2.643,0,0,1,1.032-2.123l.8-.317m-.605-14.641-.149.684a1.782,1.782,0,0,1-1.686.942,1.632,1.632,0,0,1,0-3.264,1.773,1.773,0,0,1,1.686.952l.149.684m-3.174,3.908.833.684c1.766,1.716,4.017,5.267,4.781,6.18-1.022,0-1.627.813-1.835,1.835-2.033-1.428-6.507-4.275-6.507-6.716a2.086,2.086,0,0,1,2.033-2.232l.694.248m-4.146,69.7,3.789-1.954a25.158,25.158,0,0,1,10.644-2.311,20.611,20.611,0,0,1,13.421,4.88,12.494,12.494,0,0,0-5.5-.813c-1.617,0-4.464,1.012-6.706,1.825l3.254-2.847h-1.825c-2.857,0-6.716,1.22-9.563,2.44l2.44-2.847a15.314,15.314,0,0,0-4.682.357l-5.277,1.27m3.859-72.592-.188.982a2.334,2.334,0,0,1-2.252,1.458,2.44,2.44,0,1,1,0-4.88,2.334,2.334,0,0,1,2.252,1.458l.188.982m3.254,12.816-.794.456-.635.764c-1.627-.813-6.706-3.055-6.706-5.089,0-.407.813-2.639,1.627-2.639.407,0,1.776,1.419,3.174,2.946l3.333,3.561m-8.134-1.835,6.3,3.66a2.93,2.93,0,0,0-.2,2.242c-2.242-.208-6.706-2.034-6.706-4.682l.149-.764.456-.456m0-8.947,1.19.456.436,1.379a1.444,1.444,0,0,1-1.627,1.419c-1.012,0-1.825-.605-1.825-1.419a1.782,1.782,0,0,1,.536-1.379l1.29-.456m.129,3.809.278.665c0,.813-.407,1.418-1.22,1.418a1.224,1.224,0,0,1,.208-2.43l.734.347m-.327,3.1-.258.565-.555.248a.932.932,0,0,1-.813-1.022l.605-.605.744.258.278.556m40.462,3.254-1.924-.417c-1.944-.555-3.769-1.666-3.769-4.265l.407-1.617a4.159,4.159,0,0,0,3.264,2.48l1.418.159.754.893,1.071.734-.685.942-.536,1.091v.407c0,2.44,4.265,2.847,5.892,2.44v.813a21.633,21.633,0,0,0-6.3-1.012,44.815,44.815,0,0,0-7.321.813l-.407,1.012a3.9,3.9,0,0,0,1.022,2.034l-.407.407c-.813,0-1.428-1.22-1.428-2.034l.615-1.419-.615.2a8.945,8.945,0,0,1-4.474-1.419l-.407.813a1.135,1.135,0,0,0-1.22,1.012,1.233,1.233,0,0,0-.813,1.825,1.136,1.136,0,0,0-.615,1.022,1.494,1.494,0,0,0,.407,1.22c-.407,0-.605.407-.605.813a1.366,1.366,0,0,0,.813,1.022v.605l-.208.208a1.233,1.233,0,0,1-1.21-1.428,1.448,1.448,0,0,1-.615-1.22,1.11,1.11,0,0,1,.615-1.012l-.407-.823a1.266,1.266,0,0,1,.8-1.22l-.2-.4c0-.407.407-1.022.813-1.022v-.2a.778.778,0,0,1,1.012-.615c.208-.605.615-.605,1.022-.605-5.079-2.649-8.749-8.134-10.981-13.223-.407-.813-1.428-3.254-2.639-3.254h-.407a3.649,3.649,0,0,0-3.254-.813,3.407,3.407,0,0,0-2.45-1.012c-.605,0-1.418.2-1.627.605l-2.43-.605a3.31,3.31,0,0,0-3.462,3.452v1.428a2.2,2.2,0,0,0-1.419,2.034l.407,2.034c-.208,0-.615.407-.615,1.012l.407,1.22-.2,1.22.605,2.44c3.254,9.146,13.63,12.608,22.369,12.608a34.667,34.667,0,0,0,9.354-1.22,43.922,43.922,0,0,0-4.275,9.959c-.813,3.264-1.627,5.5-4.464,7.529-2.649,1.825-6.11,1.419-9.156,1.825-3.452.407-7.936,2.45-7.936,6.507,0,2.847,2.034,3.462,2.034,5.089,0,2.034-4.672,3.045-4.672,6.507,0,2.44,3.045,4.672,4.88,5.486-.813-.605-2.033-1.825-2.033-3.045,0-3.66,8.749-1.835,8.749-6.914,0-3.254-4.067-5.287-4.067-8.541l.2-.813c2.847-1.825,8.947-.605,13.223-2.44a11.639,11.639,0,0,0,6-5.892l.913-2.847.357-1.835.05-1.835c-2.043,9.354-5.7,12.816-14.85,13.024l-4.067.2c-1.825.615-3.462,2.034-3.254,4.067l1.022-2.034v.407c0,3.254,3.859,5.486,3.859,8.541,0,4.067-6.309,3.045-8.134,5.287,1.22-4.067,7.529-1.835,7.529-5.9a1.866,1.866,0,0,0-.813-1.627l.2.813a2.055,2.055,0,0,1-1.825,2.242l.2-1.22c0-3.055-2.847-4.682-2.847-6.716a2.671,2.671,0,0,1,.605-1.617,3.056,3.056,0,0,0-1.418,2.232c0,1.825,1.627,2.847,1.627,4.474,0,1.825-2.242,2.232-3.462,3.045,1.022-1.012,2.649-1.627,2.649-3.045,0-2.034-2.034-2.242-2.034-4.474,0-3.859,4.067-6.1,7.321-6.507,3.254-.615,6.716.407,9.563-1.835,4.464-3.045,5.079-10.168,7.112-15.246.615,3.254,4.067,4.474,6.706,4.474,2.857,0,5.5-1.022,8.144-2.034a1.349,1.349,0,0,0-.813,1.418,1.568,1.568,0,0,0,1.418,1.627,1.607,1.607,0,0,0,1.627-1.627,1.649,1.649,0,0,0-1.835-1.627l3.869-1.21a2.058,2.058,0,0,0-.813,1.418c0,.813.605,1.22,1.428,1.22A1.343,1.343,0,0,0,225.3,60.4a1.7,1.7,0,0,0-1.419-1.418H225.3c2.648,4.871,3.462,11.179,7.519,15.445a12.034,12.034,0,0,0,6.517,3.462l-.208,1.835.208,1.825a28.026,28.026,0,0,1-6.517-1.825,2.825,2.825,0,0,1-1.22-2.242,4.876,4.876,0,0,1-3.045,3.254l-1.627,1.012.208,1.428c0,.605,0,1.627-.615,1.825-1.627,0-.407-2.847-2.033-2.847s-.2,4.275-1.627,4.275c-1.22,0-1.022-3.66-1.835-3.66-1.22,0-.2,4.474-1.627,4.474-1.617,0-.8-3.66-2.232-3.66s-.813,3.254-2.033,3.254c-1.012,0-.813-3.055-1.012-3.869l-1.835.208c3.66-.813,8.739-4.265,10.773-7.529h.407a3.157,3.157,0,0,0,2.649-1.627,3.6,3.6,0,0,1-2.033.813h-.813l.407-.605a3.579,3.579,0,0,0,2.648-2.44,2.761,2.761,0,0,1-2.242,1.419l.615-2.639c-2.242,6.309-6.507,9.761-12.618,11.993a14.565,14.565,0,0,0-4.057,1.835,5.291,5.291,0,0,0-1.835,3.254,5.4,5.4,0,0,1-2.847,1.012h2.648v.615a6.8,6.8,0,0,1-3.055,1.022,6.863,6.863,0,0,0,2.847,0v.8a4.5,4.5,0,0,1-2.847.615,6.986,6.986,0,0,0,2.847.2,8.192,8.192,0,0,0,.615,3.055v.2l1.012-.2a1.309,1.309,0,0,1,1.22,1.012c0,2.034-5.287,4.682-6.914,4.682-.813,0-1.022-.2-1.022-.813l.208-1.022a7.867,7.867,0,0,0,4.831-2.172l.665-1.488-.774,1.22a9.477,9.477,0,0,1-4.722,1.835C200.69,96.8,199.877,97,198.865,97c-.605,0-1.419-.208-1.419-1.022,0-1.627,4.672-8.947,4.672-12.806,0-1.428-1.428-1.835-1.428-2.847,0-2.034,5.7-2.034,5.7-7.727a8.851,8.851,0,0,0-.863-3.918l-.764-1.161.913,2.083.308,2.381c0,6.309-6.11,5.089-6.11,8.342,0,1.22,1.428,1.825,1.428,2.847,0,3.66-4.672,10.574-4.672,12.806,0,2.034,1.627,1.835,3.045,1.835l.2.2c.407,0,.407.407.615.813l-.208,1.23.327,1.032,1.1.585,1.875-.4a11.636,11.636,0,0,0,4.841-3.055,1.322,1.322,0,0,1,.8,1.022c0,1.418-5.079,3.859-6.706,3.859l-.615-.208-.2-.605v-.615l-.159.714.159.714c-3.66-1.835-6.507-2.847-10.574-2.847a26.868,26.868,0,0,0-17.895,7.112c3.254-1.22,8.332-3.045,11.794-3.045a23.442,23.442,0,0,0-2.847,3.859,29.237,29.237,0,0,1,9.553-3.045l1.835-.407-5.892,5.079c3.452-1.627,8.134-3.859,11.993-3.859a53.94,53.94,0,0,1,5.9.605l-.813-1.418a14.8,14.8,0,0,0,6.091,1.012,2.284,2.284,0,0,0,1.22,0,15.505,15.505,0,0,1-2.232-3.254l.407-.813c.813,0,1.627,3.66,4.067,3.66l1.022-.2-4.682-6.507a2.163,2.163,0,0,0-1.825-1.022l.4-1.627a1.655,1.655,0,0,0-1.617-1.825l-1.22.2V92.123c0-4.474.813-7.122,5.079-8.541h2.242c0,1.012-.208,3.859,1.419,3.859,1.835,0,1.428-2.847,2.033-3.452l.208.2c.2,1.22.407,3.462,2.024,3.462,1.22,0,1.627-2.242,1.627-3.254.208.813.615,2.44,1.428,2.847-.615.813-1.835,2.649-1.835,3.66v.407c0,1.22,1.428,1.418,2.44,1.627a20.663,20.663,0,0,1,9.761,5.694,5.252,5.252,0,0,1,.813,3.045c0,.407-.407,1.022-.813,1.022a4.61,4.61,0,0,1-2.232.605c-4.88,0-8.749-2.44-11.794-6.1a16.361,16.361,0,0,0,1.012,5.287H219.4a3.2,3.2,0,0,0-3.65,3.254A3.424,3.424,0,0,0,219.2,109.2a2.277,2.277,0,0,0,2.44-2.034,3.458,3.458,0,0,0-1.22-2.034,3.037,3.037,0,0,1,2.034-.615l1.627.208a2.469,2.469,0,0,0-1.22,2.44l.407,1.825c1.835-1.825,6.914-3.045,9.553-3.045h.813a19.381,19.381,0,0,1,7.727,1.419,9.43,9.43,0,0,0,4.077.615l4.265-.407-3.859-2.847.407-.407c1.418,0,2.639,2.034,3.859,2.44l.407-.615c0-2.034-4.474-5.892-6.507-5.892l.208-1.428c0-1.22-.823-1.825-2.043-1.825l-1.419.407c-1.22-.615-7.122-4.88-7.122-6.309l3.055-2.44c2.034-1.419,5.079-3.66,5.892-6.1l2.043.208V84.4c-1.637.407-2.45,2.034-2.648,3.66l-.813.813c0,1.022,2.232,2.034,3.055,2.232a1.17,1.17,0,0,0,1.22,1.22c.605,0,.813-.605,1.012-1.22.813-.2,3.055-1.21,3.055-2.232a.875.875,0,0,0-.813-.813c-.208-1.835-1.22-3.462-3.055-3.66V82.769c2.847,0,9.354-.615,10.783-3.254h2.034a2.333,2.333,0,0,0,2.232,1.22c1.419,1.012,3.66,3.045,4.275,4.88.813,2.034-.208,4.682,3.045,4.474,1.627,2.034,4.067,5.694,4.067,8.134v.2a2.621,2.621,0,0,0-.813,2.043A2.365,2.365,0,0,0,273.9,102.7l1.428-.208.615.813v.407l-2.45.407c-2.033,0-4.464-1.012-4.464-3.254a2.714,2.714,0,0,1,.407-1.617h-.813c-2.648,0-4.275,1.418-4.275,4.265l.615,2.44h-1.637c-1.22,0-4.464-.407-4.464-2.034,0-1.835,3.045-2.242,3.045-4.265,0-1.022-1.022-1.637-2.033-2.043a5.1,5.1,0,0,1,3.254-1.012,5.6,5.6,0,0,1,3.66,1.418c-1.419-3.045-3.462-5.287-7.112-5.287-4.067,0-7.529,4.067-7.529,8.134,0,5.089,3.66,7.936,8.739,7.936h2.033v.2a4.662,4.662,0,0,0,2.45,3.66c2.034-2.847,6.5-2.44,9.553-2.44a9.021,9.021,0,0,0,6.1-2.232l4.067.407,1.835-.208a14.58,14.58,0,0,1-2.242-3.045l.615-.813a19.944,19.944,0,0,1,2.847,3.254.961.961,0,0,0,1.012-1.022,2.087,2.087,0,0,0-1.012-1.627,9.683,9.683,0,0,1,5.277-1.22l3.055.407-3.055,1.22a7.161,7.161,0,0,0-1.825,4.682v1.627a13.7,13.7,0,0,1,1.825-2.847,8.231,8.231,0,0,1,3.055-.615l6.914.615,4.166-.516,4.166-1.111a6.291,6.291,0,0,0,3.462.813,13.16,13.16,0,0,0,3.869-.813h-.208c-1.22,0-3.045-.813-3.045-2.034a1.361,1.361,0,0,1,.813-1.22l2.232.2a9.495,9.495,0,0,0,4.265-1.012L322.5,109c3.055-3.452,7.936-5.079,12.2-5.079a9.387,9.387,0,0,1,4.275.813c1.825,5.694,7.926,5.079,9.553,8.134,1.022-1.835,3.859-2.44,5.694-3.66a7.934,7.934,0,0,0,3.66-4.474,11.532,11.532,0,0,1,4.474-.813c4.275,0,9.156,1.627,11.993,5.079a29.754,29.754,0,0,0-.407-5.892,10.12,10.12,0,0,0,4.077,1.012,15.8,15.8,0,0,0,4.265-.813,3.583,3.583,0,0,1,.813,2.44,2.908,2.908,0,0,1-3.452,3.055l2.639.2c2.44,0,6.1-.407,5.9-3.66,2.44,0,5.684.813,5.684,3.66a8.548,8.548,0,0,1-.813,3.055c2.648-1.22,3.869-4.275,3.67-6.914l1.825-.208a16.022,16.022,0,0,0,7.519,2.034c2.242,0,6.11-.813,6.716-3.452l2.034-.407h.407a2.218,2.218,0,0,1,2.648,2.639,3.761,3.761,0,0,0,1.012-2.44,2.892,2.892,0,0,0-1.825-2.639,20.534,20.534,0,0,1,7.926-1.627c1.418,0,3.254.208,3.254,2.034,0,2.034-3.66,1.825-5.089,1.627,1.428,2.639,5.3,3.452,7.936,2.847l.407,1.419c0,1.835-3.254,2.242-4.682,2.44a13.9,13.9,0,0,0,4.077.407c2.024,0,6.507-.605,7.112-3.254a11.232,11.232,0,0,0,9.562,4.88c2.44,0,4.88-.407,6.3-2.639a7.13,7.13,0,0,0,4.067,1.012c2.44,0,10.574-1.418,12-3.66l5.684.208a33.741,33.741,0,0,1,8.541,1.825c4.484,1.627,9.364,3.66,14.245,3.66A10.712,10.712,0,0,0,506.124,109c5.5.813,11.189,2.847,16.685,2.847s12.4-2.44,12.4-9.146c0-4.682-3.452-6.716-7.727-7.321a4.582,4.582,0,0,1,3.055,4.275,14.58,14.58,0,0,0-4.275-.407h-2.847c2.232.605,4.672,2.024,4.672,4.672,0,3.452-2.639,4.88-5.684,4.88l-3.869-.208c2.033,0,6.507-.407,6.507-3.254a5.159,5.159,0,0,0-1.22-2.847l.208-.813A3.984,3.984,0,0,0,522,99.037l-.407.208-.615-1.428a20.2,20.2,0,0,0-2.648-5.694c-1.825-3.055-5.684-6.716-5.684-10.168,0-3.045,3.452-8.749,4.672-12.2l1.22-4.88a30.678,30.678,0,0,0,.615-5.892l-.208-2.242v.813c-5.486-.407-9.552-3.66-13.421-7.122l-.615-4.464c2.847,2.847,8.144,9.354,12.409,9.354h.605c-4.266-1.22-9.959-6.716-13.213-9.761-.407-4.484-1.419-8.947-2.034-13.63,5.9,3.462,11.388,7.727,14.84,13.63a44.71,44.71,0,0,1,7.122,25.007v2.847c0,3.462,2.847,5.287,2.847,8.134,0,.813-.407,1.012-1.022,1.012-1.22-3.859-2.837-3.65-3.045-8.739l-.2,1.419c0,4.275,2.639,6.309,2.639,8.134,0,.615-.208.813-.813.813-1.627-3.66-3.452-3.66-3.452-8.541,0-2.847.605-5.684.605-8.531a18.808,18.808,0,0,0-1.716-8.213L518.94,56.74l1.27,2.272a19.041,19.041,0,0,1,1.379,7.489c0,3.055-.813,5.694-.813,8.739,0,5.694,4.265,8.342,4.265,12a6.2,6.2,0,0,1-1.012,2.649l.605.2c2.232-1.835,4.474-4.275,4.474-7.529s-2.242-4.265-3.462-6.914c-.813-2.034-.2-4.88-.2-7.112a23.453,23.453,0,0,0-.615-5.287c-1.012-7.112-3.859-15.455-8.541-21.149-9.761-11.6-26.019-17.895-40.67-19.928a117.737,117.737,0,0,0-16.873-1.22,13.664,13.664,0,0,0-5.694-2.034,10.618,10.618,0,0,0-9.156-5.9,10.072,10.072,0,0,0-4.265,1.022c-1.419-1.022-4.682-1.428-6.507-1.428-4.067,0-6.914,2.857-9.156,6.11-3.045,4.464-6.9,6.1-9.146,11.378A27.769,27.769,0,0,0,413.4,37.02c-1.012.813-3.452,3.045-3.452,4.464,0,1.022,1.428,1.022,2.033,1.22-.813,1.835-2.232,5.089-2.232,6.924-1.627,0-3.462-1.22-5.089-1.22-.615,0-1.22.2-1.22,1.012,0,1.627,3.462,3.452,4.682,3.859-1.22,3.462-2.45,7.529-2.45,11.189,0,6.507,2.043,13.014,9.156,14.641l2.034.208a11.09,11.09,0,0,0,8.947-5.089c1.835-1.022,6.1-1.835,6.1-4.474,0-1.627-2.232-1.418-3.254-1.418H427.64c-.208-1.022-1.23-4.275-2.45-4.275-1.825,0-2.033,3.254-2.033,4.474-1.419,1.22-3.452,2.847-5.277,2.847-2.043,0-2.45-1.627-2.45-3.254,0-4.88,3.869-9.553,7.321-12.608l-.4,2.44.4,1.022c.813,0,4.484-5.089,8.144-5.089,2.232,0,4.265.615,6.507.615a13.78,13.78,0,0,0,4.88-.813V54.3a2.3,2.3,0,0,0,.605,1.627,3.054,3.054,0,0,0-.813,1.835c0,.407.406.813.813,1.22l-.407,1.21a1.614,1.614,0,0,0,.605,1.428,4.721,4.721,0,0,0-.605,2.232,2.119,2.119,0,0,0,1.419,2.034c-2.024,7.321-16.873,7.321-18.708,18.51l-.2-.615c-1.022.208-2.034.813-2.034,2.034l.407,1.428c-1.22.407-3.045,1.419-3.045,3.055,0,2.43,4.871,4.057,6.706,4.672l-1.627-.208a16.178,16.178,0,0,0-10.574,3.869l-1.022.813v-.2a2.883,2.883,0,0,0-2.024-2.857A14.907,14.907,0,0,0,413.2,90.5l-.208-1.428a8.88,8.88,0,0,1-3.65,3.055,17.679,17.679,0,0,0-4.077-6.1l.208,2.44c0,3.66-1.022,7.321-3.859,9.761a15.984,15.984,0,0,1-3.66,2.847v-.605a11.45,11.45,0,0,0-2.043-6.11c-1.012,3.66-3.254,7.321-7.519,7.321a7.379,7.379,0,0,1-3.66-.813v-.4a11.943,11.943,0,0,0-1.022-4.682,9.416,9.416,0,0,1,5.5-2.242,4.048,4.048,0,0,1,2.242.407l.2-1.418a7.521,7.521,0,0,0-3.452-5.9c2.639-1.825,6.706-2.232,9.761-2.232l5.079.2c-2.639-2.639-6.3-3.66-10.168-3.66a20.064,20.064,0,0,0-4.88.615l3.254-4.265c.813-.208.813-.615,1.419-1.23.615-.813,5.089-3.452,6.309-3.452h1.627c-1.627-.615-2.639-1.22-4.474-1.22l-2.847.407c1.22-2.44,3.869-4.265,6.507-5.287a7.389,7.389,0,0,0-3.045-.615,8.057,8.057,0,0,0-4.88,1.428c2.023-5.089,4.265-9.761,8.541-13.421H399.37c-3.055,0-6.309,2.649-8.332,5.089A111.525,111.525,0,0,1,401,41.692c-7.727,2.034-12.4,9.761-15.455,16.476,3.055-9.562,8.739-17.7,14.85-25.424-7.529,1.835-12.608,8.541-16.685,14.85V36.812l2.034.407a4.44,4.44,0,0,0,4.484-4.672,6.152,6.152,0,0,0-2.033-4.474c-2.242-2.44-4.484-5.3-6.914-7.529a4.265,4.265,0,0,0-2.242-.813c-1.418,0-2.639,1.012-3.66,2.034a25.9,25.9,0,0,1-7.321,4.067L365,26.644a20.236,20.236,0,0,0-10.773-9.761,17.8,17.8,0,0,0-5.694-1.012,19.428,19.428,0,0,0-16.675,10.168l-.615-.208c-2.43-1.012-5.485-2.242-7.321-4.067a5.549,5.549,0,0,0-3.859-2.034,3.639,3.639,0,0,0-1.825.813c-2.648,2.232-4.682,5.089-7.122,7.529a6.152,6.152,0,0,0-2.034,4.474,4.432,4.432,0,0,0,4.474,4.672l1.835-.407V47.594c-3.869-6.309-8.948-13.015-16.675-14.85,6.507,7.727,11.993,15.861,15.038,25.424-3.244-6.716-7.926-14.443-15.445-16.476a97.141,97.141,0,0,1,9.761,17.29c-2.242-3.254-5.089-5.089-9.156-5.089,4.474,3.66,6.507,8.332,8.541,13.421a8.077,8.077,0,0,0-4.88-1.428,7.39,7.39,0,0,0-3.045.615,14.292,14.292,0,0,1,6.706,5.287l-3.055-.407c-1.825,0-2.837.605-4.464,1.22,3.452,0,5.277,1.419,7.926,3.452a2.172,2.172,0,0,0,1.428,1.23l3.244,4.265a20.359,20.359,0,0,0-5.079-.615,14.773,14.773,0,0,0-10.366,3.66l4.672-.407c2.847,0,7.529.615,9.969,2.242a10.2,10.2,0,0,0-4.88,7.519,4,4,0,0,1,2.232-.407,9.361,9.361,0,0,1,5.486,2.242l-1.012,4.474a12.416,12.416,0,0,1-4.88,1.22c-3.254,0-8.332-1.627-8.332-5.694a7.6,7.6,0,0,1,3.244-5.892l-2.024-.208a5.294,5.294,0,0,0-5.287,5.486l-1.637,2.242-.407,1.835.208,1.418a8.463,8.463,0,0,0-3.859-1.012c-1.835,0-3.66.813-5.3,1.21a6.25,6.25,0,0,0-2.639-1.617,3.985,3.985,0,0,0,.813-2.45c0-1.825-2.033-2.034-3.452-1.825l-3.055-6.309a1.925,1.925,0,0,0,.407-1.419c0-2.242-1.627-3.254-2.242-5.089l2.242.208c4.672,0,8.541-3.254,13.421-3.254v.615l-2.034,1.825h-.2a2.6,2.6,0,0,0-2.034,2.232l.407.615c-.813,0-2.043.407-2.043,1.22,0,.605.813.813,1.022,1.418a5.075,5.075,0,0,0-2.649,4.474,8.321,8.321,0,0,0,.813,3.869c1.627-.407,3.264-2.034,4.275-3.254,0,1.012-.813,2.639-1.012,3.66,2.847-1.022,3.859-2.847,4.672-5.694a1.634,1.634,0,0,0,1.012-1.022h1.022l.605-.2a2.234,2.234,0,0,0,2.043-2.242,2.832,2.832,0,0,0-1.428-2.44v-.2c0-2.034,4.067-4.672,4.067-8.342,0-2.639-2.639-3.045-4.682-3.452-2.44-.407-5.079-.407-7.718-1.22l.813-1.012a4.523,4.523,0,0,0,2.639-3.869,7.763,7.763,0,0,0-1.22-3.66,3.845,3.845,0,0,0,.615-1.627,3.864,3.864,0,0,0-1.022-2.034,3.755,3.755,0,0,0-1.825-3.452,9.478,9.478,0,0,0,1.22-4.682,11.471,11.471,0,0,0-4.89-8.947l2.44-2.639c1.23-.208,5.9.2,5.9-2.242l-.605-2.034c1.617-.2,1.617-1.012,1.617-2.44l.407-.605-.2-.813v-.208c0-1.22,1.627-1.022,1.627-2.034,0-.813-2.034-3.452-2.648-4.474-.605-1.627-.2-3.055-.2-4.682a4.53,4.53,0,0,0-1.22-3.452v-.813a2.087,2.087,0,0,0-1.012-1.627c0-2.44-.407-5.079-3.462-5.486l.208.813-.615,2.837a14.129,14.129,0,0,0-4.88-1.012,14.355,14.355,0,0,0-5.089,1.012l-.2-1.22a4.013,4.013,0,0,1,.407-2.232,6.848,6.848,0,0,0-4.275,6.1c-3.65,2.847-4.871,6.914-4.464,11.6-.208-.407-1.022-.615-1.428-.615a4.594,4.594,0,0,0-2.847,1.22l.407.813a3.674,3.674,0,0,0-3.254,1.835,3.811,3.811,0,0,0,2.44,1.627l-.813,1.825,3.254.813-1.022,1.835h-.2c-3.859-4.275-10.574-6.1-15.861-8.134-4.682-1.627-9.146-4.275-13.63-6.924l-12.806-7.727a5.92,5.92,0,0,0-2.232,4.077c0,2.639,3.045,4.464,5.277,4.871l-.605,2.649c0,2.847,2.648,4.067,4.88,4.474v.615c0,2.847,2.639,3.66,5.079,3.452a1.947,1.947,0,0,0,.407,1.428c.813,1.22,2.649,1.627,4.275,1.418,0,1.022.208,1.835,1.022,2.242l-5.3-2.242c-11.794-5.089-23.986-9.761-35.78-15.256a6.356,6.356,0,0,0-1.22,3.254c0,3.462,4.87,4.275,7.311,4.682l-.2,2.44c0,4.275,2.648,7.122,7.112,7.122a5.4,5.4,0,0,0-.605,2.43c0,2.6,2.172,3.928,4.375,4.434l2.133.248" transform="translate(-172.836 47.759)" fill="#858585"/>
    </g>
  </g>
</svg>
