<svg id="Group_13000" data-name="Group 13000" xmlns="http://www.w3.org/2000/svg" width="37.882" height="31.415" viewBox="0 0 37.882 31.415">
  <g id="Rectangle_57" data-name="Rectangle 57" transform="translate(0 0)" fill="#fff" stroke="#707070" stroke-width="0.2">
    <rect width="37.882" height="31.415" rx="3" stroke="none"/>
    <rect x="0.1" y="0.1" width="37.682" height="31.215" rx="2.9" fill="none"/>
  </g>
  <g id="Group_13001" data-name="Group 13001" transform="translate(-96.743 -76.976)">
    <g id="Group_48439" data-name="Group 48439" transform="translate(106.866 83.866)">
      <path id="Path_8384" data-name="Path 8384" d="M124.5,92.457a8.672,8.672,0,0,1-12.842,7.521l-4.794,1.523,1.563-4.609a8.5,8.5,0,0,1-1.242-4.436,8.658,8.658,0,0,1,17.315,0Zm-8.657-7.223a7.259,7.259,0,0,0-7.279,7.223,7.148,7.148,0,0,0,1.386,4.235l-.909,2.682,2.8-.889a7.242,7.242,0,1,0,4.005-13.251Zm4.372,9.2c-.054-.088-.2-.141-.407-.246s-1.256-.615-1.451-.685-.337-.105-.477.105-.548.685-.673.826-.247.158-.459.053a5.806,5.806,0,0,1-1.707-1.045,6.405,6.405,0,0,1-1.181-1.458c-.123-.21-.012-.324.093-.429s.213-.246.319-.368a1.443,1.443,0,0,0,.212-.352.382.382,0,0,0-.018-.368c-.053-.105-.477-1.141-.654-1.564s-.353-.405-.477-.405a3.061,3.061,0,0,0-.353.037,1.2,1.2,0,0,0-.62.263,2.354,2.354,0,0,0-.742,1.756,4.075,4.075,0,0,0,.866,2.178,8.672,8.672,0,0,0,3.625,3.18c2.158.843,2.158.562,2.547.526a2.142,2.142,0,0,0,1.432-1,1.75,1.75,0,0,0,.124-1Zm0,0" transform="translate(-106.866 -83.866)" fill-rule="evenodd"/>
    </g>
  </g>
</svg>
