<svg xmlns="http://www.w3.org/2000/svg" width="42" height="34" viewBox="0 0 42 34">
  <g id="Group_63" data-name="Group 63" transform="translate(-125 -918.056)">
    <g id="Rectangle_61" data-name="Rectangle 61" transform="translate(125 918.056)" fill="#fff" stroke="#707070" stroke-width="0.2">
      <rect width="42" height="34" rx="3" stroke="none"/>
      <rect x="0.1" y="0.1" width="41.8" height="33.8" rx="2.9" fill="none"/>
    </g>
    <path id="icons8-instagram" d="M8.016,3A5.021,5.021,0,0,0,3,8.016v6.946a5.021,5.021,0,0,0,5.016,5.016h6.946a5.021,5.021,0,0,0,5.016-5.016V8.016A5.021,5.021,0,0,0,14.962,3Zm8.1,3.087a.772.772,0,1,1-.772.772A.774.774,0,0,1,16.12,6.087Zm-4.63,1.158a4.245,4.245,0,1,1-4.245,4.245A4.247,4.247,0,0,1,11.489,7.245Zm0,.772a3.473,3.473,0,1,0,3.473,3.473A3.478,3.478,0,0,0,11.489,8.016Z" transform="translate(135 924.056)"/>
  </g>
</svg>
