<svg xmlns="http://www.w3.org/2000/svg" width="41" height="34" viewBox="0 0 41 34">
  <g id="Group_2673" data-name="Group 2673" transform="translate(-173.741 -917.75)">
    <g id="Rectangle_62" data-name="Rectangle 62" transform="translate(173.741 917.75)" fill="#fff" stroke="#707070" stroke-width="0.2">
      <rect width="41" height="34" rx="3" stroke="none"/>
      <rect x="0.1" y="0.1" width="40.8" height="33.8" rx="2.9" fill="none"/>
    </g>
    <path id="noun-telegram-4137491" d="M128.144,50.372,123.9,67.851a1.315,1.315,0,0,1-1.879.856l-5.364-2.769-2.536,4.149a1.315,1.315,0,0,1-2.436-.682V64.782a1.322,1.322,0,0,1,.407-.948l10.453-9.978a.174.174,0,0,0-.274-.141L109.8,62.4l-4.191-2.162a1.313,1.313,0,0,1,.075-2.37l20.664-9.005a1.311,1.311,0,0,1,1.8,1.513Z" transform="translate(77.035 875.018)"/>
  </g>
</svg>
